<?xml version="1.0" encoding="UTF-8"?>
<svg width="382px" height="79px" viewBox="0 0 382 79" version="1.1" xmlns="http://www.w3.org/2000/svg" xmlns:xlink="http://www.w3.org/1999/xlink">
    <!-- Generator: Sketch 47.1 (45422) - http://www.bohemiancoding.com/sketch -->
    <title>POWER Copy</title>
    <desc>Created with Sketch.</desc>
    <defs></defs>
    <g id="Cover" stroke="none" stroke-width="1" fill="none" fill-rule="evenodd">
        <g id="Full-vertical-Copy-12" transform="translate(-530.000000, -1062.000000)" fill="#F33F3F">
            <path d="M559.944,1063.988 C579.552,1063.988 589.812,1074.704 589.812,1090.436 C589.812,1106.282 579.324,1116.77 559.83,1116.77 L548.886,1116.77 L548.886,1135.694 C548.886,1138.316 547.632,1139 545.58,1139 L534.294,1139 C532.242,1139 530.988,1138.316 530.988,1135.694 L530.988,1067.294 C530.988,1065.242 531.672,1063.988 534.294,1063.988 L559.944,1063.988 Z M559.83,1101.38 C568.722,1101.38 572.598,1096.478 572.598,1090.778 C572.598,1084.85 568.722,1080.062 559.83,1080.062 L548.886,1080.062 L548.886,1101.38 L559.83,1101.38 Z M661.518,1088.042 L661.518,1114.946 C661.518,1132.958 644.418,1140.71 630.852,1140.71 C617.286,1140.71 600.414,1132.958 600.414,1114.946 L600.414,1088.042 C600.414,1070.03 617.286,1062.278 630.852,1062.278 C644.418,1062.278 661.518,1070.03 661.518,1088.042 Z M643.62,1113.35 L643.62,1089.638 C643.62,1082.342 638.376,1078.124 630.852,1078.124 C623.442,1078.124 618.198,1082.342 618.198,1089.638 L618.198,1113.35 C618.198,1120.646 623.442,1124.864 630.852,1124.864 C638.376,1124.864 643.62,1120.646 643.62,1113.35 Z M765.6,1063.988 L753.516,1063.988 C750.096,1063.988 749.298,1066.268 748.956,1067.636 L737.67,1106.396 L726.612,1067.636 C726.156,1066.04 725.358,1063.988 722.85,1063.988 L714.87,1063.988 C712.248,1063.988 711.45,1066.04 710.994,1067.636 L700.05,1106.396 L688.764,1067.636 C688.308,1066.268 687.624,1063.988 684.204,1063.988 L671.664,1063.988 C669.612,1063.988 669.27,1065.926 669.612,1067.294 L690.702,1136.606 C690.702,1136.606 691.272,1139 693.78,1139 L703.812,1139 C706.776,1139 707.46,1136.378 707.46,1136.378 L718.86,1100.012 L730.26,1136.378 C730.26,1136.378 730.944,1139 733.908,1139 L743.484,1139 C745.992,1139 746.562,1136.606 746.562,1136.606 L767.538,1067.294 C767.994,1065.926 767.652,1063.988 765.6,1063.988 Z M832.86,1123.04 L796.494,1123.04 L796.494,1107.992 L827.046,1107.992 C829.668,1107.992 830.352,1106.738 830.352,1104.686 L830.352,1095.794 C830.352,1093.742 829.668,1092.488 827.046,1092.488 L796.494,1092.488 L796.494,1080.062 L830.922,1080.062 C833.544,1080.062 834.228,1078.808 834.228,1076.756 L834.228,1067.294 C834.228,1065.242 833.544,1063.988 830.922,1063.988 L781.788,1063.988 C779.166,1063.988 778.482,1065.242 778.482,1067.294 L778.482,1135.694 C778.482,1137.746 779.166,1139 781.788,1139 L832.86,1139 C835.482,1139 836.166,1137.746 836.166,1135.694 L836.166,1126.346 C836.166,1124.294 835.482,1123.04 832.86,1123.04 Z M911.406,1135.352 L895.332,1111.982 C902.4,1109.588 911.178,1101.266 911.178,1089.296 C911.178,1082 908.784,1075.502 904.566,1071.398 C899.778,1066.61 894.306,1064.102 881.88,1064.102 L853.152,1064.102 C850.53,1064.102 849.96,1065.356 849.96,1067.408 L849.96,1135.694 C849.96,1138.316 851.1,1139 853.152,1139 L864.438,1139 C866.49,1139 867.744,1138.316 867.744,1135.694 L867.744,1080.062 L882.906,1080.062 C888.834,1080.062 893.394,1083.824 893.394,1089.752 C893.394,1095.11 888.15,1098.986 882.564,1098.986 L880.284,1098.986 C877.662,1098.986 876.978,1100.24 876.978,1102.292 L876.978,1111.412 C876.978,1114.604 877.206,1115.858 878.232,1117.226 L890.544,1135.58 C892.14,1137.974 893.508,1139 896.244,1139 L909.696,1139 C911.862,1139 912.432,1136.948 911.406,1135.352 Z" id="POWER-Copy"></path>
        </g>
    </g>
</svg>