<?xml version="1.0" encoding="UTF-8"?>
<svg width="277px" height="42px" viewBox="0 0 277 42" version="1.1" xmlns="http://www.w3.org/2000/svg" xmlns:xlink="http://www.w3.org/1999/xlink">
    <title>Danielle - green</title>
    <defs></defs>
    <g stroke="none" stroke-width="1" fill="none" fill-rule="evenodd">
        <g transform="translate(-205.000000, -132.000000)" fill="#AEC777">
            <path d="M205,173.25 L205,132 L220.51,132 C231.84,132.055 241.08,141.295 241.08,152.625 C241.08,164.01 231.84,173.25 220.455,173.25 L205,173.25 Z M239.925,152.625 C239.925,141.79 231.18,133.1 220.345,133.1 L206.1,133.1 L206.1,172.15 L220.345,172.15 C231.18,172.15 239.925,163.46 239.925,152.625 Z M246.305,173.25 L245.095,173.25 L264.345,132 L265.555,132 L284.805,173.25 L283.595,173.25 L277.435,159.995 L252.465,159.995 L246.305,173.25 Z M264.95,133.265 L253.015,158.895 L276.885,158.895 L264.95,133.265 Z M324.35,173.25 L326.055,173.25 L326.055,132 L324.955,132 L324.955,172.15 L293.11,132 L291.295,132 L291.295,173.25 L292.395,173.25 L292.395,133.1 L324.35,173.25 Z M338.1,173.25 L338.1,132 L337.055,132 L337.055,173.25 L338.1,173.25 Z M351.245,173.25 L376.93,173.25 L376.93,172.15 L352.29,172.15 L352.29,152.68 L375.225,152.68 L375.225,151.58 L352.29,151.58 L352.29,133.1 L376.93,133.1 L376.93,132 L351.245,132 L351.245,173.25 Z M387.16,132 L386.115,132 L386.115,173.25 L411.855,173.25 L411.855,172.205 L387.16,172.205 L387.16,132 Z M422.085,132 L421.04,132 L421.04,173.25 L446.78,173.25 L446.78,172.205 L422.085,172.205 L422.085,132 Z M455.965,173.25 L481.65,173.25 L481.65,172.15 L457.01,172.15 L457.01,152.68 L479.945,152.68 L479.945,151.58 L457.01,151.58 L457.01,133.1 L481.65,133.1 L481.65,132 L455.965,132 L455.965,173.25 Z" id="Danielle-Copy-2" style="mix-blend-mode: multiply;"></path>
        </g>
    </g>
</svg>
