<?xml version="1.0" encoding="UTF-8"?>
<svg width="277px" height="42px" viewBox="0 0 278 42" version="1.1" xmlns="http://www.w3.org/2000/svg" xmlns:xlink="http://www.w3.org/1999/xlink">
    <!-- Generator: Sketch 47.1 (45422) - http://www.bohemiancoding.com/sketch -->
    <title>Danielle</title>
    <desc>Danielle - Pink</desc>
    <defs></defs>
    <g stroke="none" stroke-width="1" fill="none" fill-rule="evenodd">
        <g transform="translate(-204.000000, -42.000000)" fill="#FF8E8E">
            <path d="M204.813763,84 L204.813763,42.75 L220.323763,42.75 C231.653763,42.805 240.893763,52.045 240.893763,63.375 C240.893763,74.76 231.653763,84 220.268763,84 L204.813763,84 Z M239.738763,63.375 C239.738763,52.54 230.993763,43.85 220.158763,43.85 L205.913763,43.85 L205.913763,82.9 L220.158763,82.9 C230.993763,82.9 239.738763,74.21 239.738763,63.375 Z M246.118763,84 L244.908763,84 L264.158763,42.75 L265.368763,42.75 L284.618763,84 L283.408763,84 L277.248763,70.745 L252.278763,70.745 L246.118763,84 Z M264.763763,44.015 L252.828763,69.645 L276.698763,69.645 L264.763763,44.015 Z M324.163763,84 L325.868763,84 L325.868763,42.75 L324.768763,42.75 L324.768763,82.9 L292.923763,42.75 L291.108763,42.75 L291.108763,84 L292.208763,84 L292.208763,43.85 L324.163763,84 Z M337.913763,84 L337.913763,42.75 L336.868763,42.75 L336.868763,84 L337.913763,84 Z M351.058763,84 L376.743763,84 L376.743763,82.9 L352.103763,82.9 L352.103763,63.43 L375.038763,63.43 L375.038763,62.33 L352.103763,62.33 L352.103763,43.85 L376.743763,43.85 L376.743763,42.75 L351.058763,42.75 L351.058763,84 Z M386.973763,42.75 L385.928763,42.75 L385.928763,84 L411.668763,84 L411.668763,82.955 L386.973763,82.955 L386.973763,42.75 Z M421.898763,42.75 L420.853763,42.75 L420.853763,84 L446.593763,84 L446.593763,82.955 L421.898763,82.955 L421.898763,42.75 Z M455.778763,84 L481.463763,84 L481.463763,82.9 L456.823763,82.9 L456.823763,63.43 L479.758763,63.43 L479.758763,62.33 L456.823763,62.33 L456.823763,43.85 L481.463763,43.85 L481.463763,42.75 L455.778763,42.75 L455.778763,84 Z" id="Danielle" style="mix-blend-mode: multiply;"></path>
        </g>
    </g>
</svg>
