<?xml version="1.0" standalone="no"?>
<!DOCTYPE svg PUBLIC "-//W3C//DTD SVG 20010904//EN"
 "http://www.w3.org/TR/2001/REC-SVG-20010904/DTD/svg10.dtd">
<svg version="1.0" xmlns="http://www.w3.org/2000/svg"
 width="261.000000pt" height="261.000000pt" viewBox="0 0 261.000000 261.000000"
 preserveAspectRatio="xMidYMid meet">
<metadata>
Created by potrace 1.11, written by Peter Selinger 2001-2013
</metadata>
<g transform="translate(0.000000,261.000000) scale(0.100000,-0.100000)"
fill="#000000" stroke="none">
<path d="M685 2600 c-2 -4 -12 -43 -21 -85 -1 -5 -23 -87 -48 -181 -26 -94
-48 -179 -50 -190 -2 -10 -11 -44 -20 -74 -8 -30 -36 -131 -60 -225 -24 -93
-54 -206 -66 -250 -12 -44 -23 -87 -25 -95 -2 -8 -14 -58 -28 -110 -14 -52
-45 -171 -70 -265 -24 -93 -57 -215 -72 -270 -15 -55 -28 -107 -30 -115 -2 -8
-28 -109 -59 -225 -31 -116 -73 -276 -94 -356 l-38 -146 961 1 960 1 31 120
c17 66 44 165 58 220 15 55 29 107 31 116 2 8 31 118 64 245 113 423 272 1029
276 1044 7 33 76 297 86 326 5 17 12 42 14 54 3 13 25 100 51 194 49 182 52
194 60 241 l6 30 -957 0 c-526 0 -958 -2 -960 -5z m1081 -503 c61 -32 106
-108 99 -168 -4 -38 -15 -100 -22 -128 -10 -42 -64 -132 -84 -139 -13 -5 -209
-8 -227 -3 -2 1 12 29 32 64 19 35 38 84 41 110 l7 47 -96 0 c-52 0 -97 -4
-100 -8 -3 -5 -8 -24 -11 -42 -3 -18 -15 -51 -26 -74 -23 -47 -157 -267 -179
-294 -8 -9 -37 -51 -64 -92 -129 -196 -146 -244 -142 -407 3 -125 5 -139 29
-194 l15 -36 101 0 c98 0 111 3 92 22 -13 14 -41 126 -41 163 0 17 6 34 13 39
19 12 216 13 224 0 3 -5 7 -20 9 -31 12 -110 35 -170 108 -283 29 -45 34 -66
27 -105 0 -4 -13 -14 -28 -21 -40 -20 -368 -21 -442 -1 -113 30 -190 79 -261
167 -69 85 -89 144 -93 270 -6 167 7 198 240 563 77 120 145 229 152 242 7 12
20 67 31 121 22 116 38 158 74 194 40 40 59 42 321 41 138 0 176 -3 201 -17z"/>
</g>
</svg>
