<svg xmlns="http://www.w3.org/2000/svg" viewBox="0 0 400.13 408"><defs><style>#god-human{fill:#1c142b;min-height:100px;animation:levitate ease-in-out 5s;animation-iteration-count:infinite;transform-origin:50% 50%;-webkit-animation:levitate ease-in-out 5s;-webkit-animation-iteration-count:infinite;-webkit-transform-origin:50% 50%;-moz-animation:levitate ease-in-out 5s;-moz-animation-iteration-count:infinite;-moz-transform-origin:50% 50%;-o-animation:levitate ease-in-out 5s;-o-animation-iteration-count:infinite;-o-transform-origin:50% 50%;-ms-animation:levitate ease-in-out 5s;-ms-animation-iteration-count:infinite;-ms-transform-origin:50% 50%}@keyframes levitate{0%,100%{transform:translate(0,0)}50%{transform:translate(0,-60px)}}@-moz-keyframes levitate{0%,100%{-moz-transform:translate(0,0)}50%{-moz-transform:translate(0,-60px)}}@-webkit-keyframes levitate{0%,100%{-webkit-transform:translate(0,0)}50%{-webkit-transform:translate(0,-60px)}}@-o-keyframes levitate{0%,100%{-o-transform:translate(0,0)}50%{-o-transform:translate(0,-60px)}}@-ms-keyframes levitate{0%,100%{-ms-transform:translate(0,0)}50%{-ms-transform:translate(0,-60px)};
</style></defs><title>Human levitating</title><g><path id="god-human" d="M227,85.1c-.26-.28-.53-.56-.77-.86-1.37-1.66-8.42-9.09-20.11-2.59a20.77,20.77,0,0,0-10.18,15.51c-1.45,11.15-3.88,17.45-3.88,17.45s.48,1-8.73,1.45c0,0-11.15-1.94-17.94,2.91,0,0-1.94,1.45-7.76,2.42s-11.15,1.45-14.54,2.42-9.7-.48-9.7-.48-7.76-2.91-22.3-2.42c0,0-6.79-1.45-10.67-2.42S95.1,118,95.1,118a14.74,14.74,0,0,0-6.3-3.39c-3.88-1-3.88,1-3.88,1s-2.91-.48-5.33,2.91,1,3.39,1,3.39,1.45,1,0,2.42-1,3.39,1.45,3.39,5.82,1.94,12.12,0a4.54,4.54,0,0,1,6.3-1c3.88,2.42,12.6,4.36,12.6,4.36s10.67,2.91,15,2.91a47.89,47.89,0,0,0,9.21,1c4.85,0,19.39,1.45,27.15-1h8.24a4.58,4.58,0,0,1,4.36,4.85,112.78,112.78,0,0,0,1.45,13.09s4.85,16.48,6.79,17.94-1,15-1,15-2.42,1.94-2.91,7.27-2.91,23.76.48,32a53,53,0,0,1,3.88,14.54s1.45,10.18,2.91,13.09c0,0-.48,13.09-1,20.36s1.94,18.91,1.94,18.91,6.79,21.82,7.76,25.21,1.94,7.76,1,10.18-2.42,6.3-2.42,7.27-2.91,2.42-2.42,4.36-1.45,3.88-1.45,3.88-1.45,3.39,2.42,5.33a13.83,13.83,0,0,0,8.24,1s2.91-2.42,3.39-3.39,1.45,1,4.85-1.94c0,0-2.91-14.54,1.45-17.45s1.45-12.12,1.45-12.12a33,33,0,0,0,3.39-12.12c.48-6.79,4.85-20.85,1.45-34.42S221.15,245,221.15,245s9.21-28.12,9.7-35.88-1-24.72-2.42-27.63-6.79-12.6-6.79-15,.48-14.54,1.45-15.51,1.94-7.76,1-10.18,5.33-2.42,5.33-2.42,14.54,2.91,16.48,2.91,15.51.48,17,0c0,0,4.85,1.45,8.73-1s4.36,0,26.66-9.7l4.36-1.94s6.79-.48,9.21,0,6.3-2.42,6.3-2.42a2.44,2.44,0,0,0,1.94-3.39s1.45-2.42-.48-3.88-1-2.91-1.94-3.88c-.48-.48-5.82-1.45-6.79,0A38.4,38.4,0,0,0,306,118a13,13,0,0,1-5.82,2.91c-3.39,1-13.57,4.36-17,5.33s-11.15,1-15.51,3.88c0,0-4.36,1-7.76-.48s-13.57-1.45-13.57-1.45-9.7-2.42-10.18-3.88-6.3-3.88-9.21-3.88-5.82-.48-7.27,0-1.45-1.94-.48-1.94,2.91-.48,2.42-1.94,2.91-1,2.91-1l.48-6.3a2.59,2.59,0,0,1,2.42-1.94c1.94,0,2.42-2.42,2.42-2.42s.48-2.91,1-3.39S233.63,92.28,227,85.1Z"/>
</g></svg>
