<svg xmlns="http://www.w3.org/2000/svg" xmlns:xlink="http://www.w3.org/1999/xlink" viewBox="0 0 714 438"><defs><style>.a{fill:none;}.b{clip-path:url(#a);}.c{fill:#5c428e;}.d{fill:#405ecc;}.e{fill:#564ca5;}.f{fill:#47306b;}.g{fill:#4babc9;}.h{clip-path:url(#b);}</style><clipPath id="a"><path class="a" d="M132.56,438s1-6.93-2-20.78c0,0,.49-3.46-6.43-7.42s-6.93-7.92-6.93-7.92l-5.94-5.94c-1-1-3-5.94-5.94-7.92S52.9,342.5,51.91,340.52,45,329.63,45,323.7s-3-12.87-3-12.87-3-23.75-1-27.71c0,0-3-10.89-5.94-15.83S22.22,242.55,24.2,236.61s-7.92-25.73-7.92-25.73-5.94-16.82-5.94-19.79-3-7.92,6.93-14.84,26.72,2,26.72,2S57.84,185.15,64.77,200s9.9,14.84,11.88,30.68a28.47,28.47,0,0,0,4,5.94c2,2,2,19.79,2,19.79s7.92,10.89,7.92,15.83c0,0,3,0,4,2s1-6.93,1-6.93-1-19.79,13.86-28.7a9.56,9.56,0,0,0,0-7.92c-2-4,3-9.9,3-9.9s2-19.79,0-24.74-3-27.71-4.95-31.67-4-12.87-4-12.87-4-21.77-3-27.71-2-36.62-2-36.62-5.94-34.64,4-51.46,27.71-1,27.71-1S137,40.66,139,57.48c0,0,5.94,17.81,4.95,31.67a72.67,72.67,0,0,0,2,23.75s5.94,20.78,6.93,28.7,2,18.8,1,20.78c0,0,6.93,17.81,6.93,20.78h3s-3-17.81-2-25.73c0,0-2-23.75-2-25.73s-2-11.88,0-18.8V71.34l1-41.57S165.72,8,184.52,8s21.77,20.78,21.77,20.78V74.31s2,24.74,1,34.64c0,0,1,8.91,2,13.86s2,36.62,2,44.53a48.33,48.33,0,0,0,2,13.86s3,2,3-5.94a74.89,74.89,0,0,1,2-15.83s-1-7.92,2-12.87c0,0,0-24.74,3-30.68s5.94-35.63,5.94-35.63L234,40.66s2-18.8,21.77-18.8,20.78,21.77,20.78,21.77-1,25.73-3,31.67-2,16.82-2,16.82-2,21.77-3,25.73,0,14.84,0,14.84,0,10.89-2,15.83-1,10.89-1,10.89-6.93,22.76-6.93,37.61l4.95,4.95s3-10.89,4-10.89-1-13.86,2-16.82c0,0,0-9.9,4-14.84s4-23.75,4-23.75,2-33.65,3-35.63,3-20.78,17.81-20.78,17.81,18.8,17.81,18.8,3,15.83,0,39.59c0,0-2,19.79-2,24.74s-3,17.81-3,17.81,1,16.82-1,20.78-3,30.68-3,30.68,7.92,17.81,4,62.35-36.62,113.81-36.62,113.81-7.92,16.82-5.94,29.69Z"/></clipPath><clipPath id="b"><path class="a" d="M580.89,438s-1-6.93,2-20.78c0,0-.49-3.46,6.43-7.42s6.93-7.92,6.93-7.92l5.94-5.94c1-1,3-5.94,5.94-7.92s52.45-45.52,53.44-47.5,6.93-10.89,6.93-16.82,3-12.87,3-12.87,3-23.75,1-27.71c0,0,3-10.89,5.94-15.83s12.87-24.74,10.89-30.68,7.92-25.73,7.92-25.73,5.94-16.82,5.94-19.79,3-7.92-6.93-14.84-26.72,2-26.72,2-13.86,6.93-20.78,21.77-9.9,14.84-11.88,30.68a28.47,28.47,0,0,1-4,5.94c-2,2-2,19.79-2,19.79S623,267.29,623,272.23c0,0-3,0-4,2s-1-6.93-1-6.93,1-19.79-13.86-28.7a9.56,9.56,0,0,1,0-7.92c2-4-3-9.9-3-9.9s-2-19.79,0-24.74,3-27.71,4.95-31.67,4-12.87,4-12.87,4-21.77,3-27.71,2-36.62,2-36.62,5.94-34.64-4-51.46-27.71-1-27.71-1-6.93,5.94-8.91,22.76c0,0-5.94,17.81-4.95,31.67a72.67,72.67,0,0,1-2,23.75s-5.94,20.78-6.93,28.7-2,18.8-1,20.78c0,0-6.93,17.81-6.93,20.78h-3s3-17.81,2-25.73c0,0,2-23.75,2-25.73s2-11.88,0-18.8V71.34l-1-41.57S547.74,8,528.94,8s-21.77,20.78-21.77,20.78V74.31s-2,24.74-1,34.64c0,0-1,8.91-2,13.86s-2,36.62-2,44.53a48.33,48.33,0,0,1-2,13.86s-3,2-3-5.94a74.89,74.89,0,0,0-2-15.83s1-7.92-2-12.87c0,0,0-24.74-3-30.68s-5.94-35.63-5.94-35.63l-4.95-39.59s-2-18.8-21.77-18.8S436.9,43.63,436.9,43.63s1,25.73,3,31.67,2,16.82,2,16.82,2,21.77,3,25.73,0,14.84,0,14.84,0,10.89,2,15.83,1,10.89,1,10.89,6.93,22.76,6.93,37.61L449.77,202s-3-10.89-4-10.89,1-13.86-2-16.82c0,0,0-9.9-4-14.84s-4-23.75-4-23.75-2-33.65-3-35.63-3-20.78-17.81-20.78-17.81,18.8-17.81,18.8-3,15.83,0,39.59c0,0,2,19.79,2,24.74s3,17.81,3,17.81-1,16.82,1,20.78,3,30.68,3,30.68-7.92,17.81-4,62.35,36.62,113.81,36.62,113.81,7.92,16.82,5.94,29.69Z"/></clipPath></defs><title>godArtboard 1 copy 13</title><g class="b"><polygon class="c" points="121.18 445.42 121.18 415.73 150.87 410.79 221.14 413.75 296.35 420.68 296.35 470.16 121.18 470.16 121.18 445.42"/><path class="d" d="M97.43,396.93,135,275.2l100-4L288.43,418.7s-37.61,4.95-46.51,4.95-9.9-6.93-31.67-3-49.48-4.95-49.48-4.95-27.71-2-34.64,4.95-34.64-3-34.64-3Z"/><path class="e" d="M182.12,285.58s11.3,31.19,11.3,53S184.52,390,184.52,390s-15.83,18.8-58.39,20.78S41,363.28,41,363.28L67.74,291l27.71-10.89S179.73,281.11,182.12,285.58Z"/><path class="d" d="M84.11,292c6.6-4.6,14.56-10.54,18.27-14.78,20.63-31.67-21.77-18.8-21.77-18.8L26.18,316.77l29.69,40.58s8.69-28.54,13.93-45.72A37.24,37.24,0,0,1,84.11,292Z"/><path class="f" d="M280.51,405.84s-12.87,10.89-66.31,0c0,0,4.95-9.9-7.92-34.64,0,0,.61-79.42-3.65-89.19s19.49-17.31,19.49-17.31l54.43,37.23,41.57,46.51Z"/><path class="c" d="M93.47,285.1l6.93-6.93s14.84-28.7,38.54-18.3c9.95,8.41,31-10.17,31-10.17l40.28,11.65,4,18.8s-51.46,7.92-59.38,11.88S109.31,291,93.47,285.1Z"/><path class="g" d="M91.49,272.23s6.93,2,7.92,5.94,6.93-7.92,9.9-7.92,3.88-15.26,26.19-4.17L142,254.42l-17.81-9.9-37.61,6.93Z"/><path class="e" d="M214.21,280.15s28.7,35.63,32.66,49.48,6.93,17.81,9.9,18.8,12.87-1,19.79,4,25.73,0,25.73,0l15.83-67.3-57.4-35.63-38.6,11.88Z"/><path class="f" d="M311.19,285.1s-29.69-24.74-64.33-23.75-53.44-17.81-53.44-17.81l25.73-34.64L249.84,201l26.72,2,43.54,27.71Z"/><path class="f" d="M91.49,272.23s-2.28-31.19,14.2-32.42,52.1-9.15,77.84,12.62l3,5.94s-21.77-4-30.68,5.94-25.73-1-25.73-1S119.2,232.65,91.49,272.23Z"/><path class="e" d="M205.77,244s5.47-13.36,16.36-15.34S234,210.88,246.87,208.9,272.6,200,272.6,195s-52.51-23.86-52.51-23.86l-49.43-1.87-9.9,23.75,12.87,43.54,30.68,11.88Z"/><path class="d" d="M100.4,241.56s4.95-3,18.8-3,19.79-2,19.79-2,28.7,6.93,39.59,20.78,11.88-4.95,35.63,22.76c0,0,26.72-2,36.62-7.92s-4-10.89-4-10.89-46.69-15.49-56-28.53-11.29-24.91-11.29-24.91l-64.33,13.86-17.81-1Z"/><path class="c" d="M109.67,201.53l-7.3,35.08s8.91-5.94,10.89-3,9.9-4,9.9-4,4.95-4,6.93,0,14.84-6.93,14.84-6.93,4-2,5.94,2,14.84-15.83,21.77-15.83,1,21.77,15.83,24.74a14.27,14.27,0,0,0,10.89-12.87c1-10.89-18.8-18.8-18.8-18.8s-19.79-10.89-8.91-18.8-1-13.86-1-13.86S106.09,185.25,109.67,201.53Z"/><path class="d" d="M112.27,201s15.83-7.92,22.76-7.92a14.41,14.41,0,0,1,14.84-5.94s4-5.94,9.9-4c0,0,3-9.9,0-18.8l-4-23.75s-28.7-37.61-65.32,0-18.8-13.86-18.8-13.86-53.44,3-27.71,28.7S74.67,208.9,74.67,208.9Z"/><path class="c" d="M100.4,147.54s20.78,9.9,37.61,0,16.82-6.93,16.82-6.93,3-29.69-3-40.58,1-26.72,1-26.72S90.5,37.69,64.77,87.17-8.46,119.83-8.46,119.83s-15.83,1,27.71,29.69S100.4,147.54,100.4,147.54Z"/><path class="d" d="M83.58,94.1s30.68,13.86,63.34-7.92c0,0,6.93-39.59,0-62.35s-34.64,6.93-46.51-4.95S54.88-34.55,24.2,6-29.24,25.81-2.52,71.34,83.58,94.1,83.58,94.1Z"/><path class="f" d="M158.56,132.1l.23,51.07s6.93-4,12.87,0,29.69,3,32.66-4c6.93-3,9.9,4,9.9,4V124.78H158.79Z"/><path class="g" d="M155.57,129.19s8.16,11.42,30.93,9.44,31.67-13.86,31.67-13.86,4-13.86,4-17.81-33.65-9.9-43.54,2-22.76,7.92-22.76,7.92Z"/><path class="e" d="M155.57,116.85s21,18.81,58.64,0c0,0-1-24.74,0-31.67s-4.95-19.79-4.95-19.79l-53-1Z"/><path class="c" d="M214.21,183.17s11.88,9.9,17.81,10.89,19.06-2.34,23.38,2.3,5.31-16.15,5.31-16.15L234,164.36l-23.75-4S211.24,180.2,214.21,183.17Z"/><path class="c" d="M159.78,69.36s16.82,21.77,45.52,3S216.19,8,216.19,8s11.88-22.76,44.53-13.86,29.69-44.53-10.89-36.62-95,4-100-6.93S84.56-34.55,159.78,69.36Z"/><path class="e" d="M219.16,134.67l-4.84,30.38s6.82,3.26,7.81,13.16S237,183.17,237,183.17s12.87-3,15.83,0-2,11.88,4.95,14.84,9.9-38.6,9.9-38.6l2-18.8Z"/><path class="d" d="M219.36,120.4l-.21,13.29s15.83,11.88,24.74,9.9a100.4,100.4,0,0,1,18.8-2s3,1,0,7.92,8.91,0,8.91,0l3-21.77Z"/><path class="c" d="M219.16,127.75s28.7-1,35.63,2-8.91,4-8.91,4-6.93,4,6.93,3,18.8,2,18.8-4,1.05-48.44,4.49-51.43-49-17.84-52,0S212.23,87.17,219.16,127.75Z"/><path class="c" d="M262.7,201a17,17,0,0,1,6.93,15.83s0-5.94,6.93-3,10.89,10.89,19.79,9.9,17.81,19.79,17.81,19.79l4-32.66s-3-24.74,3-29.69-54.43-9.9-54.43-9.9Z"/><path class="f" d="M229.05,80.24s11.88,13.86,41.57,7.92c0,0,20.78-28.7,34.64-27.71s0-35.63,0-35.63S283.48,8,303.28-.91s-56.41-41.57-63.34-14.84c-4.78,18.45-20.88,9.54-30.4,2.25-7.16-5.48-17.49.69-15.84,9.56,1,5.24,5.3,11.67,16.2,19.1a16.16,16.16,0,0,1,6.6,17.22C213.2,45.86,211.14,68.3,229.05,80.24Z"/><path class="g" d="M266.66,171.29s11.88-1,19.79,5.94,13.86,2,13.86,2,8.91-2,9.9,13.86h9.9l-2-31.67-48.49-8S264.68,165.35,266.66,171.29Z"/><path class="f" d="M269.63,170.3s12.87-4,18.8-4,4.95,4,13.86,4,15.83-8.91,15.83-8.91V132.52l-43.88-2.29s-7.7,38.09-7.64,40.07S269.63,170.3,269.63,170.3Z"/><path class="e" d="M100.4,129.73s7.92,17.81,17.81,12.87c6.84-3.42,16.51-4,21.84-4a8.51,8.51,0,0,0,7.46-4.33,18.06,18.06,0,0,0,1.38-13.4l4,22.76s-18.8,14.84-49.48,6.93C100.4,143.58,100.4,129.73,100.4,129.73Z"/><path class="e" d="M276.56,134.67a48.8,48.8,0,0,0,11.88,4c5.94,1,15.83,0,18.8,2s9.9,0,9.9,0l4-73.23s3-8.91-14.84,0c-8.88,4.44-13.83,1.5-16.56-2.57a3.58,3.58,0,0,0-6.38,1.09C278.81,82,271.6,113.42,276.56,134.67Z"/><path class="f" d="M45,324.69s3-36.62,12.87-39.59,6.93-12.87,20.78-13.86,16.82-19.79,16.82-19.79L78.63,214.84,13.31,232.65-.54,276.19Z"/><path class="e" d="M22.22,254.42S41,248.48,46,249.47s4.95-4,9.9-4.95,11.88-1,24.74-17.81-4-55.42-4-55.42,3-11.88,9.9-9.9S22.22,99-2.52,150.51-40.13,189.1,22.22,254.42Z"/><path class="f" d="M87.81,356.35a11.17,11.17,0,0,1-.2-6.38c3-11.89,11.85-44,20.7-48.05,8.41-3.82,41,5.35,55.44,9.72A11.65,11.65,0,0,1,172,323c-.15,9.5-5,24.32-30.07,34.37-22.44,9-32.8,16-37.56,20.49a11.71,11.71,0,0,1-11.82,2.54l-.26-.09a11.66,11.66,0,0,1-6-17.28C87.75,360.72,88.52,358.39,87.81,356.35Z"/></g><g class="h"><polygon class="c" points="592.27 445.42 592.27 415.73 562.59 410.79 492.32 413.75 417.11 420.68 417.11 470.16 592.27 470.16 592.27 445.42"/><path class="e" d="M616,396.93,578.42,275.2l-100-4L425,418.7s37.61,4.95,46.51,4.95,9.9-6.93,31.67-3,49.48-4.95,49.48-4.95,27.71-2,34.64,4.95,34.64-3,34.64-3Z"/><path class="f" d="M531.33,285.58s-11.3,31.19-11.3,53S528.94,390,528.94,390s15.83,18.8,58.39,20.78,85.11-47.5,85.11-47.5L645.71,291,618,280.15S533.73,281.11,531.33,285.58Z"/><path class="d" d="M629.34,292c-6.6-4.6-14.56-10.54-18.27-14.78-20.63-31.67,21.77-18.8,21.77-18.8l54.43,58.39-29.69,40.58s-8.69-28.54-13.93-45.72A37.24,37.24,0,0,0,629.34,292Z"/><path class="d" d="M432.94,405.84s12.87,10.89,66.31,0c0,0-4.95-9.9,7.92-34.64,0,0-.61-79.42,3.65-89.19s-19.49-17.31-19.49-17.31L436.9,301.92l-41.57,46.51Z"/><path class="c" d="M620,285.1l-6.93-6.93s-14.84-28.7-38.54-18.3c-9.95,8.41-31-10.17-31-10.17l-40.28,11.65-4,18.8s51.46,7.92,59.38,11.88S604.15,291,620,285.1Z"/><path class="f" d="M622,272.23s-6.93,2-7.92,5.94-6.93-7.92-9.9-7.92S600.27,255,578,266.09l-6.47-11.67,17.81-9.9,37.61,6.93Z"/><path class="e" d="M499.25,280.15s-28.7,35.63-32.66,49.48-6.93,17.81-9.9,18.8-12.87-1-19.79,4-25.73,0-25.73,0l-15.83-67.3,57.4-35.63,38.6,11.88Z"/><path class="c" d="M402.26,285.1s29.69-24.74,64.33-23.75S520,243.54,520,243.54L494.3,208.9,463.62,201l-26.72,2-43.54,27.71Z"/><path class="g" d="M622,272.23s2.28-33.12-14.2-34.43-52.1-9.72-77.84,13.41l-3,6.31s21.77-4.2,30.68,6.31,25.73-1.05,25.73-1.05S594.25,230.2,622,272.23Z"/><path class="e" d="M507.69,244s-5.47-13.36-16.36-15.34-11.88-17.81-24.74-19.79S440.86,200,440.86,195s52.51-23.86,52.51-23.86l49.43-1.87,9.9,23.75-12.87,43.54-30.68,11.88Z"/><path class="f" d="M613.06,241.56s-4.95-3-18.8-3-19.79-2-19.79-2-28.7,6.93-39.59,20.78-11.88-4.95-35.63,22.76c0,0-26.72-2-36.62-7.92s4-10.89,4-10.89,46.69-15.49,56-28.53,11.29-24.91,11.29-24.91l64.33,13.86,17.81-1Z"/><path class="c" d="M603.78,201.53l7.3,35.08s-8.91-5.94-10.89-3-9.9-4-9.9-4-4.95-4-6.93,0-14.84-6.93-14.84-6.93-4-2-5.94,2-14.84-15.83-21.77-15.83-1,21.77-15.83,24.74a14.27,14.27,0,0,1-10.89-12.87c-1-10.89,18.8-18.8,18.8-18.8s19.79-10.89,8.91-18.8,1-13.86,1-13.86S607.37,185.25,603.78,201.53Z"/><path class="d" d="M601.18,201s-15.83-7.92-22.76-7.92a14.41,14.41,0,0,0-14.84-5.94s-4-5.94-9.9-4c0,0-3-9.9,0-18.8l4-23.75s28.7-37.61,65.32,0,18.8-13.86,18.8-13.86,53.44,3,27.71,28.7-30.68,53.44-30.68,53.44Z"/><path class="f" d="M613.06,147.54s-20.78,9.9-37.61,0-16.82-6.93-16.82-6.93-3-29.69,3-40.58-1-26.72-1-26.72S623,37.69,648.68,87.17s73.23,32.66,73.23,32.66,15.83,1-27.71,29.69S613.06,147.54,613.06,147.54Z"/><path class="c" d="M629.88,94.1S599.2,108,566.54,86.18c0,0-6.93-39.59,0-62.35s34.64,6.93,46.51-4.95S658.58-34.55,689.26,6,742.7,25.81,716,71.34,629.88,94.1,629.88,94.1Z"/><path class="f" d="M554.9,132.1l-.23,51.07s-6.93-4-12.87,0-29.69,3-32.66-4c-6.93-3-9.9,4-9.9,4V124.78h55.42Z"/><path class="d" d="M557.88,129.19s-8.16,11.42-30.93,9.44-31.67-13.86-31.67-13.86-4-13.86-4-17.81,33.65-9.9,43.54,2,22.76,7.92,22.76,7.92Z"/><path class="e" d="M557.88,116.85s-21,18.81-58.64,0c0,0,1-24.74,0-31.67S504.2,65.4,504.2,65.4l53-1Z"/><path class="g" d="M499.25,183.17s-11.88,9.9-17.81,10.89-19.06-2.34-23.38,2.3-5.31-16.15-5.31-16.15l26.72-15.83,23.75-4S502.22,180.2,499.25,183.17Z"/><path class="f" d="M553.68,69.36s-16.82,21.77-45.52,3S497.27,8,497.27,8,485.39-14.76,452.73-5.86,423-50.39,463.62-42.47s95,4,100-6.93S628.89-34.55,553.68,69.36Z"/><path class="c" d="M494.3,134.67l4.84,30.38s-6.82,3.26-7.81,13.16-14.84,4.95-14.84,4.95-12.87-3-15.83,0,2,11.88-4.95,14.84-9.9-38.6-9.9-38.6l-2-18.8Z"/><path class="g" d="M494.09,120.4l.21,13.29s-15.83,11.88-24.74,9.9a100.4,100.4,0,0,0-18.8-2s-3,1,0,7.92-8.91,0-8.91,0l-3-21.77Z"/><path class="c" d="M494.3,127.75s-28.7-1-35.63,2,8.91,4,8.91,4,6.93,4-6.93,3-18.8,2-18.8-4-1.05-48.44-4.49-51.43,49-17.84,52,0S501.23,87.17,494.3,127.75Z"/><path class="f" d="M450.76,201a17,17,0,0,0-6.93,15.83s0-5.94-6.93-3-10.89,10.89-19.79,9.9-17.81,19.79-17.81,19.79l-4-32.66s3-24.74-3-29.69,54.43-9.9,54.43-9.9Z"/><path class="d" d="M484.4,80.24s-11.88,13.86-41.57,7.92c0,0-20.78-28.7-34.64-27.71s0-35.63,0-35.63S430,8,410.18-.91s56.41-41.57,63.34-14.84c4.78,18.45,20.88,9.54,30.4,2.25,7.16-5.48,17.49.69,15.84,9.56-1,5.24-5.3,11.67-16.2,19.1A16.16,16.16,0,0,0,497,32.37C500.26,45.86,502.32,68.3,484.4,80.24Z"/><path class="d" d="M446.8,171.29s-11.88-1-19.79,5.94-13.86,2-13.86,2-8.91-2-9.9,13.86h-9.9l2-31.67,48.49-8S448.78,165.35,446.8,171.29Z"/><path class="c" d="M443.83,170.3s-12.87-4-18.8-4-4.95,4-13.86,4-15.83-8.91-15.83-8.91V132.52l43.88-2.29s7.7,38.09,7.64,40.07S443.83,170.3,443.83,170.3Z"/><path class="g" d="M613.06,129.73s-7.92,17.81-17.81,12.87c-6.84-3.42-16.51-4-21.84-4a8.51,8.51,0,0,1-7.46-4.33,18.06,18.06,0,0,1-1.38-13.4l-4,22.76s18.8,14.84,49.48,6.93C613.06,143.58,613.06,129.73,613.06,129.73Z"/><path class="f" d="M436.9,134.67a48.8,48.8,0,0,1-11.88,4c-5.94,1-15.83,0-18.8,2s-9.9,0-9.9,0l-4-73.23s-3-8.91,14.84,0c8.88,4.44,13.83,1.5,16.56-2.57a3.58,3.58,0,0,1,6.38,1.09C434.65,82,441.86,113.42,436.9,134.67Z"/><path class="c" d="M668.48,324.69s-3-36.62-12.87-39.59-6.93-12.87-20.78-13.86S618,251.45,618,251.45l16.82-36.62,65.32,17.81L714,276.19Z"/><path class="d" d="M691.24,254.42s-18.8-5.94-23.75-4.95-4.95-4-9.9-4.95-11.88-1-24.74-17.81,4-55.42,4-55.42-3-11.88-9.9-9.9S691.24,99,716,150.51,753.59,189.1,691.24,254.42Z"/><path class="e" d="M625.64,356.35a11.17,11.17,0,0,0,.2-6.38c-3-11.89-11.85-44-20.7-48.05-8.41-3.82-41,5.35-55.44,9.72A11.65,11.65,0,0,0,541.43,323c.15,9.5,5,24.32,30.07,34.37,22.44,9,32.8,16,37.56,20.49a11.71,11.71,0,0,0,11.82,2.54l.26-.09a11.66,11.66,0,0,0,6-17.28C625.71,360.72,624.94,358.39,625.64,356.35Z"/></g></svg>