<svg xmlns="http://www.w3.org/2000/svg" viewBox="0 0 1172 545"><defs><style>.a{isolation:isolate;}.b,.g{fill:#fff;}.b{mix-blend-mode:overlay;}.c{fill:none;stroke:#4babc9;stroke-miterlimit:10;}.d{fill:#405ecc;}.e,.h{fill:#564ca5;}.e{opacity:0.2;}.f{fill:#261f35;}.i{fill:#130e23;}</style></defs><title>godArtboard 1 copy 14</title><g class="a"><rect class="b" x="228.11" y="286" width="64.89" height="83.43"/><rect class="b" x="1096.11" y="356" width="64.89" height="83.43"/><rect class="b" x="533.11" y="85" width="64.89" height="83.43"/><rect class="b" x="11.11" y="54" width="64.89" height="83.43"/><rect class="b" x="944.11" y="112" width="64.89" height="83.43" transform="translate(1130.27 -822.84) rotate(90)"/><polyline class="c" points="43 65 260.5 297.5 976 133 1128.5 370.5 565.5 95.5 260.5 297.5"/><circle class="d" cx="43.5" cy="65.5" r="3.5"/><circle class="d" cx="260.5" cy="297.5" r="3.5"/><circle class="d" cx="976.5" cy="133.5" r="3.5"/><circle class="d" cx="1128.5" cy="370.5" r="3.5"/><circle class="d" cx="565.5" cy="95.5" r="3.5"/><path class="e" d="M834.72,545A332.47,332.47,0,0,0,899,348C899,163.54,749.46,14,565,14S231,163.54,231,348a332.47,332.47,0,0,0,64.28,197Z"/><rect class="f" x="434" y="272.41" width="264" height="148.5"/><rect class="g" x="443" y="277.47" width="246" height="138.38"/><path class="h" d="M567,296s2.5-.5,2.5.5,3,0,3-1,3,1,3,1a10.07,10.07,0,0,0,3,1c1,0,2,2,2,2s3,2,4,1,1,3,3,3,8,2,9,3,0,2-1,2,7,5,7,5,2,3,1,4,3,5,3,5,2,6-1,10c0,0,0,4,1,6s-1,4-1,4,2,1,0,4,2,1,2,1,3-4,3,3c0,0-3,7-1,17s-7,9-7,9-2-1-2,2,4,5-4,15c0,0-3,13-1,22s29,17,29,17,25,10,31,12,16,8,16,21,1,24-3,36c0,0-1,10-1,14a172.34,172.34,0,0,1-3.25,29.5C622,546,532,545,477.44,545c-.86-5.53-1.94-10.54-1.94-10.54s-1-27-3-35-2-25-2-25,0-17,6-20a67.91,67.91,0,0,1,23-14s25-13,29-14,16-5,20-15c0,0,2-11-1-15s-6-10-5-14c0,0-1-5-1-6a4.33,4.33,0,0,1-4,2c-3,0-6-4-6-4s-2-9-1-12,0-9,0-9-1-5,2-6c0,0,0-5,2-6,0,0-1-5,0-7s0-9,0-9,0-6,3-7c0,0,1-6,6-9s2-4,6-4c0,0,3-5,6-5s1-4,1-4,2-2,5,0S565.5,294.5,567,296Z"/><path class="i" d="M561,296s2.5-.5,2.5.5,3,0,3-1,3,1,3,1a10.07,10.07,0,0,0,3,1c1,0,2,2,2,2s3,2,4,1,1,3,3,3,8,2,9,3,0,2-1,2,7,5,7,5,2,3,1,4,3,5,3,5,2,6-1,10c0,0,0,4,1,6s-1,4-1,4,2,1,0,4,2,1,2,1,3-4,3,3c0,0-3,7-1,17s-7,9-7,9-2-1-2,2,4,5-4,15c0,0-3,13-1,22s29,17,29,17,25,10,31,12,16,8,16,21,1,24-3,36c0,0-1,10-1,14a172.34,172.34,0,0,1-3.25,29.5c-.51,2.31-173.25,0-186.82,0-.86-5.51-1.93-10.5-1.93-10.5s-1-27-3-35-2-25-2-25,0-17,6-20a67.91,67.91,0,0,1,23-14s25-13,29-14,16-5,20-15c0,0,2-11-1-15s-6-10-5-14c0,0-1-5-1-6a4.33,4.33,0,0,1-4,2c-3,0-6-4-6-4s-2-9-1-12,0-9,0-9-1-5,2-6c0,0,0-5,2-6,0,0-1-5,0-7s0-9,0-9,0-6,3-7c0,0,1-6,6-9s2-4,6-4c0,0,3-5,6-5s1-4,1-4,2-2,5,0S559.5,294.5,561,296Z"/></g></svg>