<svg xmlns="http://www.w3.org/2000/svg" viewBox="0 0 918 395"><defs><style>.a{fill:none;stroke:#fff;stroke-miterlimit:10;stroke-width:2px;}</style></defs><title>newCam copy</title><rect class="a" x="484.92" y="127.98" width="333.08" height="177.67" rx="12" ry="12" transform="translate(1302.92 433.63) rotate(-180)"/><rect class="a" x="818.16" y="127.98" width="95.84" height="169.02" rx="12" ry="12" transform="translate(1732.16 424.98) rotate(-180)"/><path class="a" d="M483.05,114.7H658.22a12,12,0,0,0,12-12v-81H471.05v81A12,12,0,0,0,483.05,114.7Z"/><path class="a" d="M493,51.6H649.84a12,12,0,0,1,12,12v41.13a0,0,0,0,1,0,0H481a0,0,0,0,1,0,0V63.6a12,12,0,0,1,12-12Z" transform="translate(1142.85 156.33) rotate(-180)"/><path class="a" d="M871.45,145.46H892.7a12,12,0,0,1,12,12V209.3a0,0,0,0,1,0,0H859.45a0,0,0,0,1,0,0V157.46a12,12,0,0,1,12-12Z" transform="translate(704.7 1059.45) rotate(-90)"/><path class="a" d="M700.08,170.08h0a8,8,0,0,1,8,8v11.84a0,0,0,0,1,0,0h-16a0,0,0,0,1,0,0V178.08a8,8,0,0,1,8-8Z" transform="translate(880.08 -520.08) rotate(90)"/><path class="a" d="M700.08,195.08h0a8,8,0,0,1,8,8v11.84a0,0,0,0,1,0,0h-16a0,0,0,0,1,0,0V203.08A8,8,0,0,1,700.08,195.08Z" transform="translate(905.08 -495.08) rotate(90)"/><path class="a" d="M700.08,221.08h0a8,8,0,0,1,8,8v11.84a0,0,0,0,1,0,0h-16a0,0,0,0,1,0,0V229.08A8,8,0,0,1,700.08,221.08Z" transform="translate(931.08 -469.08) rotate(90)"/><path class="a" d="M700.08,246.08h0a8,8,0,0,1,8,8v11.84a0,0,0,0,1,0,0h-16a0,0,0,0,1,0,0V254.08A8,8,0,0,1,700.08,246.08Z" transform="translate(956.08 -444.08) rotate(90)"/><path class="a" d="M682.58,276.58h5a8,8,0,0,1,8,8v11.84a0,0,0,0,1,0,0h-21a0,0,0,0,1,0,0V284.58A8,8,0,0,1,682.58,276.58Z" transform="translate(971.58 -398.58) rotate(90)"/><path class="a" d="M871.45,213.46H892.7a12,12,0,0,1,12,12V277.3a0,0,0,0,1,0,0H859.45a0,0,0,0,1,0,0V225.46A12,12,0,0,1,871.45,213.46Z" transform="translate(636.7 1127.45) rotate(-90)"/><path class="a" d="M493,39.6H650a12,12,0,0,1,12,12v0a0,0,0,0,1,0,0H481a0,0,0,0,1,0,0v0A12,12,0,0,1,493,39.6Z"/><line class="a" x1="531.58" y1="51.6" x2="528.71" y2="104.73"/><polyline class="a" points="643.7 114.7 644.16 127 456.16 127 460.16 22 471.16 22"/><path class="a" d="M537.33,104.73,539.16,71s0-5-8-6"/><path class="a" d="M583.74,104.73,586.16,89s-25-41-36-27l-11,12.5"/><line class="a" x1="729.16" y1="127" x2="729.16" y2="305.65"/><line class="a" x1="804.16" y1="199" x2="743.16" y2="199"/><line class="a" x1="593.16" y1="180" x2="544.16" y2="180"/><line class="a" x1="593.16" y1="187.6" x2="544.16" y2="187.6"/><line class="a" x1="593.16" y1="195.2" x2="544.16" y2="195.2"/><line class="a" x1="593.16" y1="202.8" x2="544.16" y2="202.8"/><line class="a" x1="593.16" y1="210.4" x2="544.16" y2="210.4"/><line class="a" x1="593.16" y1="218" x2="544.16" y2="218"/><line class="a" x1="729.16" y1="272" x2="691.16" y2="272"/><line class="a" x1="729.16" y1="163" x2="691.16" y2="163"/><line class="a" x1="804.16" y1="205.43" x2="743.16" y2="205.43"/><line class="a" x1="804.16" y1="218.29" x2="743.16" y2="218.29"/><line class="a" x1="804.16" y1="211.86" x2="743.16" y2="211.86"/><line class="a" x1="804.16" y1="224.71" x2="743.16" y2="224.71"/><line class="a" x1="804.16" y1="231.14" x2="743.16" y2="231.14"/><line class="a" x1="804.16" y1="237.57" x2="743.16" y2="237.57"/><line class="a" x1="804.16" y1="244" x2="743.16" y2="244"/><circle class="a" cx="798.66" cy="169.5" r="8.5"/><circle class="a" cx="601.66" cy="157.5" r="8.5"/><circle class="a" cx="494.66" cy="343" r="20.5"/><circle class="a" cx="798.66" cy="271.5" r="8.5"/><circle class="a" cx="494.66" cy="343" r="12.5"/><circle class="a" cx="534.66" cy="351.5" r="8.5"/><circle class="a" cx="760.41" cy="272.25" r="8.5"/><rect class="a" x="744.41" y="256.25" width="32" height="32" transform="translate(1520.82 544.5) rotate(-180)"/><path class="a" d="M649.16,128s19,7,13,35l-.32,142.65"/><path class="a" d="M662,143.13,649.16,143s-9-1-8,16V271s-2.31,21,20.85,15.5"/><path class="a" d="M651.54,143H628.16s-11-2-11,8V305.65"/><rect class="a" x="518.16" y="251" width="12" height="44" transform="translate(1048.32 546) rotate(-180)"/><polyline class="a" points="517.16 170 517.16 138.58 535.58 138.58 535.58 170"/><path class="a" d="M517.16,170v2a8,8,0,0,0,8,8h2.42a8,8,0,0,0,8-8v-2h57.58v61h-107V170Z"/><rect class="a" x="503.16" y="190" width="28" height="23" transform="translate(1034.32 403) rotate(-180)"/><path class="a" d="M464.16,155h11a10,10,0,0,1,10,10V295a0,0,0,0,1,0,0h-21a0,0,0,0,1,0,0V155A0,0,0,0,1,464.16,155Z" transform="translate(949.32 450) rotate(-180)"/><path class="a" d="M464.16,163s-17-2-8-36"/><polyline class="a" points="453.56 142.84 442.16 143 442.16 256 464.16 256"/><polyline class="a" points="442.16 143 422.16 143 422.16 259 442.16 259 442.16 251"/><path class="a" d="M422.16,154.75s-23-1.75-23-11.75-31,0-31,0"/><path class="a" d="M422.16,245.38l-24,5.62c11-37-19-56-19-56s-9-14-11-43-44-20-44-20q-1,.41-2.05.79L226,134.23l-54.84.77s-13-1-16-8-18-5-18-5V108h-4V96h-18v27h-9V93h-8v30h-7V93h-9v25l-31-19s-2-12,5-21l-23-19.5a1.8,1.8,0,0,0-3,1.37V68h-14s-2,10,5,12l-2,22h-13v22l14,1V275h-14v25h13v18s-3,29,32,4l1-12-13-1v-3l38-16,2-10h6v33h7V279h8v34h7V279h7v27s2,7,6,9v21h25V308h-15s-4-1-3-11h12V282h11v6s7,1,9-6a13.58,13.58,0,0,1,8-9h41.51"/><path class="a" d="M194.16,231s-27,13,0,32,65,43,65,43c81,22,109-18,109-18s23-26,12-49-44-15-44-15-54,19-81,15-45,17-45,17c-25-11-11-18-11-18l-3-28s-8-13,10-15a41,41,0,0,0,9.53-2.81S288.16,155,381.16,195"/><path class="a" d="M324.78,283.38a9.05,9.05,0,0,0-2.39-10.24A14.85,14.85,0,0,0,311.9,269H264.2a45.4,45.4,0,0,0-10.47,1.16c-7.41,1.76-16,6-3.57,15.84,15.28,12.07,50.63,8,63.87,5.89A13.62,13.62,0,0,0,324.78,283.38Z"/><path class="a" d="M398.16,251c-8,11-16.78,13-16.78,13"/><line class="a" x1="147.84" y1="122.28" x2="147.84" y2="282"/><line class="a" x1="133.16" y1="108" x2="133.16" y2="297"/><line class="a" x1="115.16" y1="122" x2="115.16" y2="279"/><line class="a" x1="106.16" y1="122" x2="106.16" y2="279"/><line class="a" x1="98.16" y1="122" x2="98.16" y2="279"/><line class="a" x1="82.16" y1="118" x2="82.16" y2="279"/><polyline class="a" points="73.64 114.7 40.75 147.59 40.75 251 77.43 287.69"/><line class="a" x1="41.16" y1="93" x2="41.16" y2="306"/><rect class="a" x="544.16" y="306" width="252" height="12" transform="translate(1340.32 624) rotate(-180)"/><rect class="a" x="471.16" y="306" width="47" height="66" transform="translate(989.32 678) rotate(-180)"/><rect class="a" x="524.16" y="306" width="20" height="37" transform="translate(1068.32 649) rotate(-180)"/><path class="a" d="M539.66,358.36s-3.5,1.64-4.5,11.64-1,16-1,16-4,12-8,0c0,0,4.57-20,1.28-30"/><circle class="a" cx="858.33" cy="314.84" r="8.5" transform="translate(80.73 795.67) rotate(-51.87)"/><path class="a" d="M858,323.33s-3.76-.87-10.72,6.38-10.66,12-10.66,12-10.56,7-6.29-4.94c0,0,16-12.95,19.55-22.83"/><rect class="a" x="457.16" y="299" width="14" height="69" transform="translate(928.32 667) rotate(-180)"/><polyline class="a" points="790.16 318 790.16 372 818.16 372 818.16 347 864.16 348 864.16 322"/><line class="a" x1="858.33" y1="306" x2="816.73" y2="299"/><circle class="a" cx="301.66" cy="26.5" r="21.5"/><rect class="a" x="326.02" y="38.72" width="52.82" height="12" rx="6" ry="6" transform="translate(662.31 218.43) rotate(-157.96)"/><path class="a" d="M460.16,22h-4V15h-24V65h-11V16s-17,7-23,17l-44-3-33-12.58"/><path class="a" d="M407.16,93c-14,26-41,12-41,2s-8-13-8-13l-50-34v7h-9V70s12,1,12,8-2,41-2,41v14"/><polyline class="a" points="407.16 26 407.16 65 422.16 65"/><path class="a" d="M390.16,40s-24,28,8,38c0,0,14.35,3,19.68-13"/><path class="a" d="M321.16,46l52,21s3,13-14,7l-31-19"/><polyline class="a" points="422.16 108 422.16 122 390.16 122 390.16 108"/><path class="a" d="M733.16,318l20,25-16,14s-7,9-41,4c0,0-44-32-105-8,0,0-11,16-35,12l-19.91-.61"/><path class="a" d="M552.16,364c2-43,35.73-46,35.73-46"/><polyline class="a" points="458.84 81.91 432.16 81.91 432.16 65"/><path class="a" d="M530.16,166s-25-130.35-70-130.67L459.24,46s34.91-6,58.91,117"/></svg>
