<svg xmlns="http://www.w3.org/2000/svg" viewBox="0 0 945 419"><defs><style>.a{fill:none;stroke:#fff;stroke-miterlimit:10;stroke-width:2px;}</style></defs><title>Cam</title><rect class="a" x="114.16" y="140.98" width="333.08" height="177.67" rx="12" ry="12"/><rect class="a" x="18.16" y="140.98" width="95.84" height="169.02" rx="12" ry="12"/><path class="a" d="M449.1,127.7H273.94a12,12,0,0,1-12-12v-81H461.1v81A12,12,0,0,1,449.1,127.7Z"/><path class="a" d="M270.32,64.6H451.14a0,0,0,0,1,0,0v41.13a12,12,0,0,1-12,12H282.32a12,12,0,0,1-12-12V64.6a0,0,0,0,1,0,0Z"/><path class="a" d="M27.46,158.46H72.7a0,0,0,0,1,0,0V210.3a12,12,0,0,1-12,12H39.46a12,12,0,0,1-12-12V158.46a0,0,0,0,1,0,0Z" transform="translate(-140.3 240.46) rotate(-90)"/><path class="a" d="M224.08,183.08h16a0,0,0,0,1,0,0v11.84a8,8,0,0,1-8,8h0a8,8,0,0,1-8-8V183.08A0,0,0,0,1,224.08,183.08Z" transform="translate(425.08 -39.08) rotate(90)"/><path class="a" d="M224.08,208.08h16a0,0,0,0,1,0,0v11.84a8,8,0,0,1-8,8h0a8,8,0,0,1-8-8V208.08A0,0,0,0,1,224.08,208.08Z" transform="translate(450.08 -14.08) rotate(90)"/><path class="a" d="M224.08,234.08h16a0,0,0,0,1,0,0v11.84a8,8,0,0,1-8,8h0a8,8,0,0,1-8-8V234.08A0,0,0,0,1,224.08,234.08Z" transform="translate(476.08 11.92) rotate(90)"/><path class="a" d="M224.08,259.08h16a0,0,0,0,1,0,0v11.84a8,8,0,0,1-8,8h0a8,8,0,0,1-8-8V259.08A0,0,0,0,1,224.08,259.08Z" transform="translate(501.08 36.92) rotate(90)"/><path class="a" d="M236.58,289.58h21a0,0,0,0,1,0,0v11.84a8,8,0,0,1-8,8h-5a8,8,0,0,1-8-8V289.58a0,0,0,0,1,0,0Z" transform="translate(546.58 52.42) rotate(90)"/><path class="a" d="M27.46,226.46H72.7a0,0,0,0,1,0,0V278.3a12,12,0,0,1-12,12H39.46a12,12,0,0,1-12-12V226.46a0,0,0,0,1,0,0Z" transform="translate(-208.3 308.46) rotate(-90)"/><path class="a" d="M270.15,52.6h181a0,0,0,0,1,0,0v0a12,12,0,0,1-12,12h-157a12,12,0,0,1-12-12v0A0,0,0,0,1,270.15,52.6Z" transform="translate(721.3 117.2) rotate(180)"/><line class="a" x1="400.58" y1="64.6" x2="403.45" y2="117.73"/><polyline class="a" points="288.46 127.7 288 140 476 140 472 35 461 35"/><path class="a" d="M394.83,117.73,393,84s0-5,8-6"/><path class="a" d="M348.42,117.73,346,102s25-41,36-27l11,12.5"/><line class="a" x1="203" y1="140" x2="203" y2="318.65"/><line class="a" x1="128" y1="212" x2="189" y2="212"/><line class="a" x1="339" y1="193" x2="388" y2="193"/><line class="a" x1="339" y1="200.6" x2="388" y2="200.6"/><line class="a" x1="339" y1="208.2" x2="388" y2="208.2"/><line class="a" x1="339" y1="215.8" x2="388" y2="215.8"/><line class="a" x1="339" y1="223.4" x2="388" y2="223.4"/><line class="a" x1="339" y1="231" x2="388" y2="231"/><line class="a" x1="203" y1="285" x2="241" y2="285"/><line class="a" x1="203" y1="176" x2="241" y2="176"/><line class="a" x1="128" y1="218.43" x2="189" y2="218.43"/><line class="a" x1="128" y1="231.29" x2="189" y2="231.29"/><line class="a" x1="128" y1="224.86" x2="189" y2="224.86"/><line class="a" x1="128" y1="237.71" x2="189" y2="237.71"/><line class="a" x1="128" y1="244.14" x2="189" y2="244.14"/><line class="a" x1="128" y1="250.57" x2="189" y2="250.57"/><line class="a" x1="128" y1="257" x2="189" y2="257"/><circle class="a" cx="133.5" cy="182.5" r="8.5"/><circle class="a" cx="330.5" cy="170.5" r="8.5"/><circle class="a" cx="437.5" cy="356" r="20.5"/><circle class="a" cx="133.5" cy="284.5" r="8.5"/><circle class="a" cx="437.5" cy="356" r="12.5"/><circle class="a" cx="397.5" cy="364.5" r="8.5"/><circle class="a" cx="171.75" cy="285.25" r="8.5"/><rect class="a" x="155.75" y="269.25" width="32" height="32"/><path class="a" d="M283,141s-19,7-13,35l.32,142.65"/><path class="a" d="M270.15,156.13,283,156s9-1,8,16V284s2.31,21-20.85,15.5"/><path class="a" d="M280.62,156H304s11-2,11,8V318.65"/><rect class="a" x="402" y="264" width="12" height="44"/><polyline class="a" points="415 183 415 151.58 396.58 151.58 396.58 183"/><path class="a" d="M415,183v2a8,8,0,0,1-8,8h-2.42a8,8,0,0,1-8-8v-2H339v61H446V183Z"/><rect class="a" x="401" y="203" width="28" height="23"/><path class="a" d="M447,168h21a0,0,0,0,1,0,0V298a10,10,0,0,1-10,10H447a0,0,0,0,1,0,0V168a0,0,0,0,1,0,0Z"/><path class="a" d="M468,176s17-2,8-36"/><polyline class="a" points="478.6 155.84 490 156 490 269 468 269"/><polyline class="a" points="490 156 510 156 510 272 490 272 490 264"/><path class="a" d="M510,167.75S533,166,533,156s31,0,31,0"/><path class="a" d="M510,258.38,534,264c-11-37,19-56,19-56s9-14,11-43,44-20,44-20q1,.41,2.05.79l96.11,1.44L761,148s13-1,16-8,18-5,18-5V121h4V109h18v27h9V106h8v30h7V106h9v25l31-19s2-12-5-21l23-19.5a1.8,1.8,0,0,1,3,1.37V81h14s2,10-5,12l2,22h13v22l-14,1V288h14v25H913v18s3,29-32,4l-1-12,13-1v-3l-38-16-2-10h-6v33h-7V292h-8v34h-7V292h-7v27s-2,7-6,9v21H787V321h15s4-1,3-11H793V295H782v6s-7,1-9-6a13.58,13.58,0,0,0-8-9H723.49"/><path class="a" d="M738,244s27,13,0,32-65,43-65,43c-81,22-109-18-109-18s-23-26-12-49,44-15,44-15,54,19,81,15,45,17,45,17c25-11,11-18,11-18l3-28s8-13-10-15a41,41,0,0,1-9.53-2.81S644,168,551,208"/><path class="a" d="M607.38,296.38a9.05,9.05,0,0,1,2.39-10.24,14.85,14.85,0,0,1,10.5-4.14H668a45.4,45.4,0,0,1,10.47,1.16c7.41,1.76,16,6,3.57,15.84-15.28,12.07-50.63,8-63.87,5.89A13.62,13.62,0,0,1,607.38,296.38Z"/><path class="a" d="M534,264c8,11,16.78,13,16.78,13"/><line class="a" x1="784.31" y1="135.28" x2="784.31" y2="295"/><line class="a" x1="799" y1="121" x2="799" y2="310"/><line class="a" x1="817" y1="135" x2="817" y2="292"/><line class="a" x1="826" y1="135" x2="826" y2="292"/><line class="a" x1="834" y1="135" x2="834" y2="292"/><line class="a" x1="850" y1="131" x2="850" y2="292"/><polyline class="a" points="858.52 127.7 891.41 160.59 891.41 264 854.73 300.69"/><line class="a" x1="891" y1="106" x2="891" y2="319"/><rect class="a" x="136" y="319" width="252" height="12"/><rect class="a" x="414" y="319" width="47" height="66"/><rect class="a" x="388" y="319" width="20" height="37"/><path class="a" d="M392.5,371.36S396,373,397,383s1,16,1,16,4,12,8,0c0,0-4.57-20-1.28-30"/><circle class="a" cx="73.83" cy="327.84" r="8.5" transform="translate(-186.66 115.52) rotate(-38.13)"/><path class="a" d="M74.13,336.33s3.76-.87,10.72,6.38,10.66,12,10.66,12,10.56,7,6.29-4.94c0,0-16-12.95-19.55-22.83"/><rect class="a" x="461" y="312" width="14" height="69"/><polyline class="a" points="142 331 142 385 114 385 114 360 68 361 68 335"/><line class="a" x1="73.83" y1="319" x2="115.43" y2="312"/><circle class="a" cx="630.5" cy="39.5" r="21.5"/><rect class="a" x="553.32" y="51.72" width="52.82" height="12" rx="6" ry="6" transform="translate(20.72 221.79) rotate(-22.04)"/><path class="a" d="M472,35h4V28h24V78h11V29s17,7,23,17l44-3,33-12.58"/><path class="a" d="M525,106c14,26,41,12,41,2s8-13,8-13l50-34v7h9V83s-12,1-12,8,2,41,2,41v14"/><polyline class="a" points="525 39 525 78 510 78"/><path class="a" d="M542,53s24,28-8,38c0,0-14.35,3-19.68-13"/><path class="a" d="M611,59,559,80s-3,13,14,7l31-19"/><polyline class="a" points="510 121 510 135 542 135 542 121"/><path class="a" d="M199,331l-20,25,16,14s7,9,41,4c0,0,44-32,105-8,0,0,11,16,35,12l19.91-.61"/><path class="a" d="M380,377c-2-43-35.73-46-35.73-46"/><polyline class="a" points="473.31 94.91 500 94.91 500 78"/><path class="a" d="M402,179S427,48.65,472,48.33L472.91,59S438,53,414,176"/></svg>