<?xml version="1.0" encoding="UTF-8"?>
<svg width="930px" height="591px" viewBox="0 0 930 591" version="1.1" xmlns="http://www.w3.org/2000/svg" xmlns:xlink="http://www.w3.org/1999/xlink">
    <!-- Generator: Sketch 47.1 (45422) - http://www.bohemiancoding.com/sketch -->
    <title>Group</title>
    <desc>Created with Sketch.</desc>
    <defs></defs>
    <g id="Dec-of-Independence" stroke="none" stroke-width="1" fill="none" fill-rule="evenodd">
        <g id="Declaration-of-Ind-Copy" transform="translate(-253.000000, -431.000000)" fill="#FFFFFF">
            <g id="Group" transform="translate(253.000000, 431.000000)">
                <path d="M8.23828125,280.050781 L8.23828125,235.185547 C8.23828125,228.363898 9.91339471,223.015644 13.2636719,219.140625 C16.613949,215.265606 21.538379,213.328125 28.0371094,213.328125 C34.5762046,213.328125 39.5409987,215.265606 42.9316406,219.140625 C46.3222826,223.015644 48.0175781,228.363898 48.0175781,235.185547 L48.0175781,280.050781 C48.0175781,286.7917 46.3222826,292.109681 42.9316406,296.004883 C39.5409987,299.900085 34.5762046,301.847656 28.0371094,301.847656 C21.5787438,301.847656 16.6644049,299.900085 13.2939453,296.004883 C9.92348575,292.109681 8.23828125,286.7917 8.23828125,280.050781 Z M17.7441406,280.535156 C17.7441406,284.571635 18.6018794,287.669586 20.3173828,289.829102 C22.0328862,291.988618 24.6061026,293.068359 28.0371094,293.068359 C34.8991229,293.068359 38.3300781,288.890667 38.3300781,280.535156 L38.3300781,234.640625 C38.3300781,230.644511 37.4824304,227.556652 35.7871094,225.376953 C34.0917884,223.197255 31.5084809,222.107422 28.0371094,222.107422 C24.6061026,222.107422 22.0328862,223.197255 20.3173828,225.376953 C18.6018794,227.556652 17.7441406,230.644511 17.7441406,234.640625 L17.7441406,280.535156 Z M57.5601562,301 L57.5601562,214.175781 L92.0113281,214.175781 L92.0113281,223.015625 L67.2476562,223.015625 L67.2476562,254.621094 L87.1675781,254.621094 L87.1675781,263.400391 L67.2476562,263.400391 L67.2476562,301 L57.5601562,301 Z M116.364063,223.015625 L116.364063,214.175781 L158.020313,214.175781 L158.020313,223.015625 L142.035938,223.015625 L142.035938,301 L132.348438,301 L132.348438,223.015625 L116.364063,223.015625 Z M165.080469,301 L165.080469,214.175781 L174.767969,214.175781 L174.767969,253.289062 L196.080469,253.289062 L196.080469,214.175781 L205.767969,214.175781 L205.767969,301 L196.080469,301 L196.080469,261.947266 L174.767969,261.947266 L174.767969,301 L165.080469,301 Z M216.037109,301 L216.037109,214.175781 L251.759766,214.175781 L251.759766,223.015625 L225.724609,223.015625 L225.724609,252.623047 L246.916016,252.623047 L246.916016,261.341797 L225.724609,261.341797 L225.724609,292.220703 L251.759766,292.220703 L251.759766,301 L216.037109,301 Z M280.653516,301 L280.653516,214.175781 L290.341016,214.175781 L290.341016,301 L280.653516,301 Z M300.489063,301 L300.489063,214.175781 L312.780078,214.175781 L332.821094,276.962891 L332.821094,214.175781 L341.41875,214.175781 L341.41875,301 L331.367969,301 L309.147266,230.826172 L309.147266,301 L300.489063,301 Z M351.687891,301 L351.687891,214.175781 L372.031641,214.175781 C378.611101,214.175781 383.535531,216.062807 386.805078,219.836914 C390.074626,223.611021 391.709375,228.929002 391.709375,235.791016 L391.709375,279.566406 C391.709375,286.388055 390.074626,291.665671 386.805078,295.399414 C383.535531,299.133157 378.611101,301 372.031641,301 L351.687891,301 Z M361.375391,292.220703 L371.910547,292.220703 C378.77256,292.220703 382.203516,288.123739 382.203516,279.929688 L382.203516,235.306641 C382.203516,227.112589 378.732196,223.015625 371.789453,223.015625 L361.375391,223.015625 L361.375391,292.220703 Z M401.191406,301 L401.191406,214.175781 L436.914062,214.175781 L436.914062,223.015625 L410.878906,223.015625 L410.878906,252.623047 L432.070312,252.623047 L432.070312,261.341797 L410.878906,261.341797 L410.878906,292.220703 L436.914062,292.220703 L436.914062,301 L401.191406,301 Z M446.214453,301 L446.214453,214.175781 L465.165625,214.175781 C471.78545,214.175781 476.689698,216.022442 479.878516,219.71582 C483.067334,223.409198 484.661719,228.64645 484.661719,235.427734 L484.661719,245.841797 C484.661719,259.808013 477.920901,266.791016 464.439062,266.791016 L455.901953,266.791016 L455.901953,301 L446.214453,301 Z M455.901953,258.072266 L464.439062,258.072266 C468.112258,258.072266 470.806567,257.153981 472.52207,255.317383 C474.237574,253.480785 475.095312,250.524109 475.095312,246.447266 L475.095312,234.882812 C475.095312,230.846334 474.308211,227.859385 472.733984,225.921875 C471.159758,223.984365 468.636997,223.015625 465.165625,223.015625 L455.901953,223.015625 L455.901953,258.072266 Z M492.932813,301 L492.932813,214.175781 L528.655469,214.175781 L528.655469,223.015625 L502.620313,223.015625 L502.620313,252.623047 L523.811719,252.623047 L523.811719,261.341797 L502.620313,261.341797 L502.620313,292.220703 L528.655469,292.220703 L528.655469,301 L492.932813,301 Z M537.834766,301 L537.834766,214.175781 L550.125781,214.175781 L570.166797,276.962891 L570.166797,214.175781 L578.764453,214.175781 L578.764453,301 L568.713672,301 L546.492969,230.826172 L546.492969,301 L537.834766,301 Z M589.033594,301 L589.033594,214.175781 L609.377344,214.175781 C615.956804,214.175781 620.881234,216.062807 624.150781,219.836914 C627.420329,223.611021 629.055078,228.929002 629.055078,235.791016 L629.055078,279.566406 C629.055078,286.388055 627.420329,291.665671 624.150781,295.399414 C620.881234,299.133157 615.956804,301 609.377344,301 L589.033594,301 Z M598.721094,292.220703 L609.25625,292.220703 C616.118263,292.220703 619.549219,288.123739 619.549219,279.929688 L619.549219,235.306641 C619.549219,227.112589 616.077899,223.015625 609.135156,223.015625 L598.721094,223.015625 L598.721094,292.220703 Z M638.537109,301 L638.537109,214.175781 L674.259766,214.175781 L674.259766,223.015625 L648.224609,223.015625 L648.224609,252.623047 L669.416016,252.623047 L669.416016,261.341797 L648.224609,261.341797 L648.224609,292.220703 L674.259766,292.220703 L674.259766,301 L638.537109,301 Z M683.439062,301 L683.439062,214.175781 L695.730078,214.175781 L715.771094,276.962891 L715.771094,214.175781 L724.36875,214.175781 L724.36875,301 L714.317969,301 L692.097266,230.826172 L692.097266,301 L683.439062,301 Z M733.911328,280.050781 L733.911328,235.185547 C733.911328,228.404263 735.535986,223.0661 738.785352,219.170898 C742.034717,215.275697 746.888509,213.328125 753.346875,213.328125 C759.845605,213.328125 764.739762,215.275697 768.029492,219.170898 C771.319222,223.0661 772.964062,228.404263 772.964062,235.185547 L772.964062,242.996094 L763.760937,242.996094 L763.760937,234.640625 C763.760937,226.285114 760.370346,222.107422 753.589062,222.107422 C750.198421,222.107422 747.655477,223.197255 745.960156,225.376953 C744.264835,227.556652 743.417187,230.644511 743.417187,234.640625 L743.417187,280.535156 C743.417187,284.53127 744.264835,287.61913 745.960156,289.798828 C747.655477,291.978527 750.198421,293.068359 753.589062,293.068359 C760.370346,293.068359 763.760937,288.890667 763.760937,280.535156 L763.760937,269.273438 L772.964062,269.273438 L772.964062,280.050781 C772.964062,286.832065 771.319222,292.160137 768.029492,296.035156 C764.739762,299.910176 759.845605,301.847656 753.346875,301.847656 C746.888509,301.847656 742.034717,299.910176 738.785352,296.035156 C735.535986,292.160137 733.911328,286.832065 733.911328,280.050781 Z M782.143359,301 L782.143359,214.175781 L817.866016,214.175781 L817.866016,223.015625 L791.830859,223.015625 L791.830859,252.623047 L813.022266,252.623047 L813.022266,261.341797 L791.830859,261.341797 L791.830859,292.220703 L817.866016,292.220703 L817.866016,301 L782.143359,301 Z M846.033203,280.050781 L846.033203,235.185547 C846.033203,228.363898 847.708317,223.015644 851.058594,219.140625 C854.408871,215.265606 859.333301,213.328125 865.832031,213.328125 C872.371126,213.328125 877.335921,215.265606 880.726562,219.140625 C884.117204,223.015644 885.8125,228.363898 885.8125,235.185547 L885.8125,280.050781 C885.8125,286.7917 884.117204,292.109681 880.726562,296.004883 C877.335921,299.900085 872.371126,301.847656 865.832031,301.847656 C859.373666,301.847656 854.459327,299.900085 851.088867,296.004883 C847.718408,292.109681 846.033203,286.7917 846.033203,280.050781 Z M855.539062,280.535156 C855.539062,284.571635 856.396801,287.669586 858.112305,289.829102 C859.827808,291.988618 862.401025,293.068359 865.832031,293.068359 C872.694045,293.068359 876.125,288.890667 876.125,280.535156 L876.125,234.640625 C876.125,230.644511 875.277352,227.556652 873.582031,225.376953 C871.88671,223.197255 869.303403,222.107422 865.832031,222.107422 C862.401025,222.107422 859.827808,223.197255 858.112305,225.376953 C856.396801,227.556652 855.539062,230.644511 855.539062,234.640625 L855.539062,280.535156 Z M895.355078,301 L895.355078,214.175781 L929.80625,214.175781 L929.80625,223.015625 L905.042578,223.015625 L905.042578,254.621094 L924.9625,254.621094 L924.9625,263.400391 L905.042578,263.400391 L905.042578,301 L895.355078,301 Z M11.4443359,462.351562 L11.4443359,374.201172 C11.4443359,360.572849 14.8316719,350.076046 21.6064453,342.710449 C28.3812188,335.344852 38.2281255,331.662109 51.1474609,331.662109 C64.0667964,331.662109 73.9137031,335.344852 80.6884766,342.710449 C87.46325,350.076046 90.8505859,360.572849 90.8505859,374.201172 L90.8505859,390.744141 L65.6816406,390.744141 L65.6816406,372.546875 C65.6816406,361.439398 61.1126759,355.885742 51.9746094,355.885742 C42.7577664,355.885742 38.1494141,361.439398 38.1494141,372.546875 L38.1494141,464.005859 C38.1494141,475.03456 42.7577664,480.548828 51.9746094,480.548828 C61.1126759,480.548828 65.6816406,475.03456 65.6816406,464.005859 L65.6816406,439.782227 L90.8505859,439.782227 L90.8505859,462.351562 C90.8505859,475.979886 87.46325,486.476688 80.6884766,493.842285 C73.9137031,501.207882 64.0667964,504.890625 51.1474609,504.890625 C38.2281255,504.890625 28.3812188,501.207882 21.6064453,493.842285 C14.8316719,486.476688 11.4443359,475.979886 11.4443359,462.351562 Z M95.5771484,333.552734 L123.463867,333.552734 L143.788086,410.832031 L164.112305,333.552734 L189.517578,333.552734 L155.84082,446.87207 L155.84082,503 L129.253906,503 L129.253906,446.87207 L95.5771484,333.552734 Z M200.152344,503 L200.152344,333.552734 L240.328125,333.552734 C253.956448,333.552734 263.941212,336.743132 270.282715,343.124023 C276.624218,349.504915 279.794922,359.312434 279.794922,372.546875 L279.794922,378.573242 C279.794922,395.904058 274.044328,407.287082 262.542969,412.722656 C275.77741,417.843125 282.394531,429.935126 282.394531,448.999023 L282.394531,462.824219 C282.394531,475.901107 278.967808,485.866177 272.114258,492.719727 C265.260708,499.573276 255.216863,503 241.982422,503 L200.152344,503 Z M226.739258,478.776367 L241.982422,478.776367 C246.630232,478.776367 250.096343,477.515963 252.380859,474.995117 C254.665376,472.474271 255.807617,468.18102 255.807617,462.115234 L255.807617,447.344727 C255.807617,439.624636 254.488132,434.267919 251.849121,431.274414 C249.210111,428.28091 244.81839,426.78418 238.673828,426.78418 L226.739258,426.78418 L226.739258,478.776367 Z M226.739258,402.560547 L237.137695,402.560547 C242.415716,402.560547 246.393867,401.201674 249.072266,398.483887 C251.750664,395.7661 253.089844,391.177441 253.089844,384.717773 L253.089844,375.264648 C253.089844,369.198863 252.026378,364.767755 249.899414,361.971191 C247.77245,359.174628 244.345727,357.776367 239.619141,357.776367 L226.739258,357.776367 L226.739258,402.560547 Z M298.34668,503 L298.34668,333.552734 L370.899414,333.552734 L370.899414,357.776367 L324.933594,357.776367 L324.933594,405.041992 L361.446289,405.041992 L361.446289,429.147461 L324.933594,429.147461 L324.933594,478.776367 L370.899414,478.776367 L370.899414,503 L298.34668,503 Z M387.324219,503 L387.324219,333.552734 L427.5,333.552734 C441.128323,333.552734 451.113087,336.743132 457.45459,343.124023 C463.796093,349.504915 466.966797,359.312434 466.966797,372.546875 L466.966797,385.899414 C466.966797,403.309006 461.137428,414.770806 449.478516,420.285156 C455.859407,422.963555 460.408678,427.296194 463.126465,433.283203 C465.844252,439.270212 467.203125,446.950799 467.203125,456.325195 L467.203125,482.439453 C467.203125,491.813849 468.148428,498.667296 470.039062,503 L442.979492,503 C442.349281,501.030589 441.916017,499.553553 441.679688,498.568848 C441.443358,497.584142 441.187339,495.693536 440.911621,492.896973 C440.635904,490.100409 440.498047,486.535829 440.498047,482.203125 L440.498047,455.616211 C440.498047,447.817344 439.11948,442.263688 436.362305,438.955078 C433.605129,435.646468 429.193715,433.992188 423.12793,433.992188 L413.911133,433.992188 L413.911133,503 L387.324219,503 Z M413.911133,409.886719 L424.30957,409.886719 C429.587591,409.886719 433.565742,408.527846 436.244141,405.810059 C438.922539,403.092272 440.261719,398.464225 440.261719,391.925781 L440.261719,375.264648 C440.261719,369.198863 439.198253,364.767755 437.071289,361.971191 C434.944325,359.174628 431.517602,357.776367 426.791016,357.776367 L413.911133,357.776367 L413.911133,409.886719 Z M480.4375,462.351562 L480.4375,451.953125 L505.606445,451.953125 L505.606445,464.005859 C505.606445,475.03456 510.214798,480.548828 519.431641,480.548828 C528.648484,480.548828 533.256836,475.03456 533.256836,464.005859 C533.256836,459.279273 532.291839,454.828471 530.361816,450.65332 C528.431794,446.478169 525.950373,442.716651 522.91748,439.368652 C519.884588,436.020654 516.516946,432.672706 512.814453,429.324707 C509.111961,425.976709 505.38983,422.47121 501.647949,418.808105 C497.906069,415.145001 494.518733,411.26532 491.48584,407.168945 C488.452947,403.072571 485.971527,398.188505 484.041504,392.516602 C482.111481,386.844698 481.146484,380.739616 481.146484,374.201172 C481.146484,360.572849 484.474739,350.076046 491.131348,342.710449 C497.787956,335.344852 507.536394,331.662109 520.376953,331.662109 C533.217512,331.662109 542.96595,335.344852 549.622559,342.710449 C556.279167,350.076046 559.607422,360.572849 559.607422,374.201172 L559.607422,379.636719 L534.438477,379.636719 L534.438477,372.546875 C534.438477,361.439398 529.987675,355.885742 521.085938,355.885742 C516.674457,355.885742 513.365896,357.205228 511.160156,359.844238 C508.954416,362.483249 507.851563,366.717419 507.851563,372.546875 C507.851563,377.273461 508.816559,381.724263 510.746582,385.899414 C512.676605,390.074565 515.158025,393.836084 518.190918,397.184082 C521.223811,400.532081 524.591453,403.880029 528.293945,407.228027 C531.996438,410.576026 535.698875,414.081525 539.401367,417.744629 C543.10386,421.407733 546.471502,425.287414 549.504395,429.383789 C552.537287,433.480164 555.018708,438.364229 556.94873,444.036133 C558.878753,449.708036 559.84375,455.813118 559.84375,462.351562 C559.84375,475.979886 556.456414,486.476688 549.681641,493.842285 C542.906867,501.207882 533.05996,504.890625 520.140625,504.890625 C507.22129,504.890625 497.374383,501.207882 490.599609,493.842285 C483.824836,486.476688 480.4375,475.979886 480.4375,462.351562 Z M574.96875,503 L574.96875,333.552734 L614.199219,333.552734 C627.354883,333.552734 637.260872,337.137008 643.91748,344.305664 C650.574089,351.47432 653.902344,361.872653 653.902344,375.500977 L653.902344,397.479492 C653.902344,411.107816 650.574089,421.486455 643.91748,428.615723 C637.260872,435.74499 627.354883,439.30957 614.199219,439.30957 L601.555664,439.30957 L601.555664,503 L574.96875,503 Z M601.555664,415.204102 L614.199219,415.204102 C618.610699,415.204102 621.879872,413.983085 624.006836,411.541016 C626.1338,409.098946 627.197266,404.963245 627.197266,399.133789 L627.197266,373.728516 C627.197266,367.899059 626.1338,363.783052 624.006836,361.380371 C621.879872,358.97769 618.610699,357.776367 614.199219,357.776367 L601.555664,357.776367 L601.555664,415.204102 Z M657.210938,503 L684.270508,333.552734 L723.264648,333.552734 L750.324219,503 L723.500977,503 L718.892578,472.277344 L686.161133,472.277344 L681.552734,503 L657.210938,503 Z M689.587891,449.235352 L715.229492,449.235352 L702.467773,363.566406 L689.587891,449.235352 Z M760.368164,462.351562 L760.368164,374.201172 C760.368164,360.572849 763.7555,350.076046 770.530273,342.710449 C777.305047,335.344852 787.151954,331.662109 800.071289,331.662109 C812.990624,331.662109 822.837531,335.344852 829.612305,342.710449 C836.387078,350.076046 839.774414,360.572849 839.774414,374.201172 L839.774414,390.744141 L814.605469,390.744141 L814.605469,372.546875 C814.605469,361.439398 810.036504,355.885742 800.898438,355.885742 C791.681595,355.885742 787.073242,361.439398 787.073242,372.546875 L787.073242,464.005859 C787.073242,475.03456 791.681595,480.548828 800.898438,480.548828 C810.036504,480.548828 814.605469,475.03456 814.605469,464.005859 L814.605469,439.782227 L839.774414,439.782227 L839.774414,462.351562 C839.774414,475.979886 836.387078,486.476688 829.612305,493.842285 C822.837531,501.207882 812.990624,504.890625 800.071289,504.890625 C787.151954,504.890625 777.305047,501.207882 770.530273,493.842285 C763.7555,486.476688 760.368164,475.979886 760.368164,462.351562 Z M855.962891,503 L855.962891,333.552734 L928.515625,333.552734 L928.515625,357.776367 L882.549805,357.776367 L882.549805,405.041992 L919.0625,405.041992 L919.0625,429.147461 L882.549805,429.147461 L882.549805,478.776367 L928.515625,478.776367 L928.515625,503 L855.962891,503 Z" id="OF-THE-INDEPENDENCE-Copy"></path>
                <path d="M10.2348633,178 L32.4863281,38.6611328 L64.5517578,38.6611328 L86.8032227,178 L64.7460938,178 L60.956543,152.736328 L34.0410156,152.736328 L30.2514648,178 L10.2348633,178 Z M36.8588867,133.788574 L57.9443359,133.788574 L47.4501953,63.3417969 L36.8588867,133.788574 Z M127.710938,178 L127.710938,38.6611328 L162.302734,38.6611328 C173.120822,38.6611328 181.266656,41.6085317 186.740479,47.503418 C192.214301,53.3983042 194.951172,61.949 194.951172,73.1557617 L194.951172,143.602539 C194.951172,154.809301 192.214301,163.343802 186.740479,169.206299 C181.266656,175.068796 173.120822,178 162.302734,178 L127.710938,178 Z M149.57373,158.080566 L161.914062,158.080566 C165.541685,158.080566 168.310944,157.027924 170.221924,154.922607 C172.132903,152.817291 173.088379,149.367863 173.088379,144.574219 L173.088379,72.0869141 C173.088379,67.2932703 172.132903,63.8438419 170.221924,61.7385254 C168.310944,59.6332089 165.541685,58.5805664 161.914062,58.5805664 L149.57373,58.5805664 L149.57373,158.080566 Z M208.846191,178 L208.846191,38.6611328 L268.507324,38.6611328 L268.507324,58.5805664 L230.708984,58.5805664 L230.708984,97.4477539 L260.733887,97.4477539 L260.733887,117.27002 L230.708984,117.27002 L230.708984,158.080566 L268.507324,158.080566 L268.507324,178 L208.846191,178 Z M280.16748,144.574219 L280.16748,72.0869141 C280.16748,60.8801523 282.952934,52.2484841 288.523926,46.1916504 C294.094917,40.1348167 302.192167,37.1064453 312.815918,37.1064453 C323.439669,37.1064453 331.536919,40.1348167 337.10791,46.1916504 C342.678902,52.2484841 345.464355,60.8801523 345.464355,72.0869141 L345.464355,85.6904297 L324.767578,85.6904297 L324.767578,70.7265625 C324.767578,61.5927278 321.010454,57.0258789 313.496094,57.0258789 C305.916954,57.0258789 302.127441,61.5927278 302.127441,70.7265625 L302.127441,145.93457 C302.127441,155.003626 305.916954,159.538086 313.496094,159.538086 C321.010454,159.538086 324.767578,155.003626 324.767578,145.93457 L324.767578,126.015137 L345.464355,126.015137 L345.464355,144.574219 C345.464355,155.780981 342.678902,164.412649 337.10791,170.469482 C331.536919,176.526316 323.439669,179.554688 312.815918,179.554688 C302.192167,179.554688 294.094917,176.526316 288.523926,170.469482 C282.952934,164.412649 280.16748,155.780981 280.16748,144.574219 Z M358.776367,178 L358.776367,38.6611328 L380.63916,38.6611328 L380.63916,158.080566 L416.688477,158.080566 L416.688477,178 L358.776367,178 Z M420.478027,178 L442.729492,38.6611328 L474.794922,38.6611328 L497.046387,178 L474.989258,178 L471.199707,152.736328 L444.28418,152.736328 L440.494629,178 L420.478027,178 Z M447.102051,133.788574 L468.1875,133.788574 L457.693359,63.3417969 L447.102051,133.788574 Z M507.151855,178 L507.151855,38.6611328 L540.188965,38.6611328 C551.395727,38.6611328 559.606338,41.2846417 564.821045,46.5317383 C570.035752,51.7788348 572.643066,59.8436956 572.643066,70.7265625 L572.643066,81.706543 C572.643066,96.0226953 567.849495,105.447894 558.262207,109.982422 C563.509304,112.184907 567.250233,115.747697 569.485107,120.670898 C571.719982,125.5941 572.837402,131.909955 572.837402,139.618652 L572.837402,161.092773 C572.837402,168.801471 573.614738,174.437157 575.169434,178 L552.917969,178 C552.399737,176.380526 552.043458,175.165938 551.849121,174.356201 C551.654784,173.546464 551.444256,171.991792 551.217529,169.692139 C550.990803,167.392485 550.877441,164.461281 550.877441,160.898438 L550.877441,139.035645 C550.877441,132.622527 549.743826,128.055678 547.476562,125.334961 C545.209299,122.614244 541.581731,121.253906 536.59375,121.253906 L529.014648,121.253906 L529.014648,178 L507.151855,178 Z M529.014648,101.431641 L537.56543,101.431641 C541.905621,101.431641 545.17691,100.31422 547.379395,98.0793457 C549.58188,95.8444712 550.683105,92.0387639 550.683105,86.6621094 L550.683105,72.9614258 C550.683105,67.9734451 549.808602,64.3296827 548.05957,62.0300293 C546.310538,59.7303759 543.492695,58.5805664 539.605957,58.5805664 L529.014648,58.5805664 L529.014648,101.431641 Z M581.388184,178 L603.639648,38.6611328 L635.705078,38.6611328 L657.956543,178 L635.899414,178 L632.109863,152.736328 L605.194336,152.736328 L601.404785,178 L581.388184,178 Z M608.012207,133.788574 L629.097656,133.788574 L618.603516,63.3417969 L608.012207,133.788574 Z M661.648926,58.5805664 L661.648926,38.6611328 L729.375,38.6611328 L729.375,58.5805664 L706.443359,58.5805664 L706.443359,178 L684.580566,178 L684.580566,58.5805664 L661.648926,58.5805664 Z M738.897461,178 L738.897461,38.6611328 L760.760254,38.6611328 L760.760254,178 L738.897461,178 Z M774.849609,144.574219 L774.849609,72.0869141 C774.849609,60.9449313 777.73223,52.3294575 783.497559,46.2402344 C789.262887,40.1510112 797.489693,37.1064453 808.178223,37.1064453 C818.866753,37.1064453 827.077364,40.1510112 832.810303,46.2402344 C838.543242,52.3294575 841.409668,60.9449313 841.409668,72.0869141 L841.409668,144.574219 C841.409668,155.716202 838.543242,164.331675 832.810303,170.420898 C827.077364,176.510122 818.866753,179.554688 808.178223,179.554688 C797.489693,179.554688 789.262887,176.510122 783.497559,170.420898 C777.73223,164.331675 774.849609,155.716202 774.849609,144.574219 Z M796.80957,145.93457 C796.80957,155.133184 800.599083,159.732422 808.178223,159.732422 C815.692583,159.732422 819.449707,155.133184 819.449707,145.93457 L819.449707,70.7265625 C819.449707,61.5927278 815.692583,57.0258789 808.178223,57.0258789 C800.599083,57.0258789 796.80957,61.5927278 796.80957,70.7265625 L796.80957,145.93457 Z M855.304688,178 L855.304688,38.6611328 L882.706055,38.6611328 L905.249023,122.128418 L905.249023,38.6611328 L924.779785,38.6611328 L924.779785,178 L902.236816,178 L875.029785,77.1396484 L875.029785,178 L855.304688,178 Z" id="A-DECLARATION"></path>
                <rect id="Rectangle-9" x="0" y="0" width="928" height="10"></rect>
                <rect id="Rectangle-9-Copy" x="0" y="532" width="928" height="10"></rect>
                <rect id="Rectangle-9-Copy-2" x="0" y="559" width="692" height="31"></rect>
                <path d="M711.789062,590 L711.789062,585.495605 C712.155275,585.524902 712.726559,585.539551 713.50293,585.539551 C714.396489,585.539551 715.092283,585.319826 715.590332,584.880371 C716.088381,584.440916 716.337402,583.657232 716.337402,582.529297 L716.337402,558.491211 L721.303223,558.491211 L721.303223,582.177734 C721.303223,587.451198 718.9302,590.087891 714.184082,590.087891 C713.129389,590.087891 712.331057,590.058594 711.789062,590 Z M724.247559,582.441406 L724.247559,566.049805 C724.247559,563.530261 724.899408,561.582038 726.203125,560.205078 C727.506842,558.828118 729.367175,558.139648 731.78418,558.139648 C734.201184,558.139648 736.057855,558.828118 737.354248,560.205078 C738.650641,561.582038 739.298828,563.530261 739.298828,566.049805 L739.298828,582.441406 C739.298828,584.96095 738.650641,586.909173 737.354248,588.286133 C736.057855,589.663093 734.201184,590.351562 731.78418,590.351562 C729.367175,590.351562 727.506842,589.663093 726.203125,588.286133 C724.899408,586.909173 724.247559,584.96095 724.247559,582.441406 Z M729.213379,582.749023 C729.213379,584.829112 730.070304,585.869141 731.78418,585.869141 C733.483407,585.869141 734.333008,584.829112 734.333008,582.749023 L734.333008,565.742188 C734.333008,563.676747 733.483407,562.644043 731.78418,562.644043 C730.070304,562.644043 729.213379,563.676747 729.213379,565.742188 L729.213379,582.749023 Z M742.484863,590 L742.484863,558.491211 L747.428711,558.491211 L747.428711,572.004395 L753.053711,572.004395 L753.053711,558.491211 L758.107422,558.491211 L758.107422,590 L753.053711,590 L753.053711,576.508789 L747.428711,576.508789 L747.428711,590 L742.484863,590 Z M761.64502,590 L761.64502,558.491211 L767.841309,558.491211 L772.938965,577.365723 L772.938965,558.491211 L777.355469,558.491211 L777.355469,590 L772.257812,590 L766.105469,567.192383 L766.105469,590 L761.64502,590 Z M787.858398,590 L787.858398,558.491211 L795.15332,558.491211 C797.599622,558.491211 799.441644,559.157708 800.679443,560.490723 C801.917243,561.823737 802.536133,563.757312 802.536133,566.291504 L802.536133,570.378418 C802.536133,572.91261 801.917243,574.842523 800.679443,576.168213 C799.441644,577.493903 797.599622,578.156738 795.15332,578.156738 L792.802246,578.156738 L792.802246,590 L787.858398,590 Z M792.802246,573.674316 L795.15332,573.674316 C795.973637,573.674316 796.581541,573.447268 796.977051,572.993164 C797.372561,572.53906 797.570312,571.770025 797.570312,570.686035 L797.570312,565.961914 C797.570312,564.877924 797.372561,564.112551 796.977051,563.665771 C796.581541,563.218992 795.973637,562.995605 795.15332,562.995605 L792.802246,562.995605 L792.802246,573.674316 Z M801.4375,590 L801.4375,585.231934 L806.205566,585.231934 L806.205566,590 L801.4375,590 Z M816.752441,590 L816.752441,558.491211 L824.223145,558.491211 C826.757337,558.491211 828.614008,559.084467 829.793213,560.270996 C830.972418,561.457525 831.562012,563.281238 831.562012,565.742188 L831.562012,566.862793 C831.562012,570.085465 830.492686,572.202143 828.354004,573.212891 C830.814954,574.165044 832.04541,576.413556 832.04541,579.958496 L832.04541,582.529297 C832.04541,584.96095 831.408209,586.813958 830.133789,588.088379 C828.859369,589.362799 826.991712,590 824.530762,590 L816.752441,590 Z M821.696289,585.495605 L824.530762,585.495605 C825.395024,585.495605 826.039549,585.261233 826.464355,584.79248 C826.889162,584.323728 827.101562,583.525396 827.101562,582.397461 L827.101562,579.650879 C827.101562,578.215325 826.856204,577.219241 826.365479,576.662598 C825.874753,576.105954 825.058111,575.827637 823.915527,575.827637 L821.696289,575.827637 L821.696289,585.495605 Z M821.696289,571.323242 L823.629883,571.323242 C824.611333,571.323242 825.351072,571.070559 825.849121,570.565186 C826.34717,570.059812 826.596191,569.206549 826.596191,568.005371 L826.596191,566.247559 C826.596191,565.119623 826.398439,564.295657 826.00293,563.775635 C825.60742,563.255613 824.970219,562.995605 824.091309,562.995605 L821.696289,562.995605 L821.696289,571.323242 Z M833.715332,590 L838.74707,558.491211 L845.998047,558.491211 L851.029785,590 L846.041992,590 L845.185059,584.287109 L839.098633,584.287109 L838.241699,590 L833.715332,590 Z M839.73584,580.002441 L844.503906,580.002441 L842.130859,564.072266 L839.73584,580.002441 Z M853.314941,590 L853.314941,558.491211 L860.785645,558.491211 C863.319837,558.491211 865.176508,559.084467 866.355713,560.270996 C867.534918,561.457525 868.124512,563.281238 868.124512,565.742188 L868.124512,568.225098 C868.124512,571.462419 867.040538,573.593745 864.872559,574.619141 C866.059088,575.11719 866.905027,575.922846 867.4104,577.036133 C867.915774,578.14942 868.168457,579.577628 868.168457,581.320801 L868.168457,586.176758 C868.168457,587.919931 868.344237,589.194332 868.695801,590 L863.664062,590 C863.546874,589.633787 863.466309,589.359132 863.422363,589.176025 C863.378418,588.992919 863.330811,588.64136 863.279541,588.121338 C863.228271,587.601316 863.202637,586.938481 863.202637,586.132812 L863.202637,581.188965 C863.202637,579.738762 862.946292,578.706058 862.433594,578.09082 C861.920896,577.475583 861.100592,577.167969 859.972656,577.167969 L858.258789,577.167969 L858.258789,590 L853.314941,590 Z M858.258789,572.685547 L860.192383,572.685547 C861.173833,572.685547 861.913572,572.432864 862.411621,571.92749 C862.90967,571.422117 863.158691,570.56153 863.158691,569.345703 L863.158691,566.247559 C863.158691,565.119623 862.960939,564.295657 862.56543,563.775635 C862.16992,563.255613 861.532719,562.995605 860.653809,562.995605 L858.258789,562.995605 L858.258789,572.685547 Z M871.398438,590 L871.398438,558.491211 L876.342285,558.491211 L876.342285,585.495605 L884.494141,585.495605 L884.494141,590 L871.398438,590 Z M886.22998,582.441406 L886.22998,566.049805 C886.22998,563.530261 886.881829,561.582038 888.185547,560.205078 C889.489264,558.828118 891.349597,558.139648 893.766602,558.139648 C896.183606,558.139648 898.040277,558.828118 899.33667,560.205078 C900.633063,561.582038 901.28125,563.530261 901.28125,566.049805 L901.28125,582.441406 C901.28125,584.96095 900.633063,586.909173 899.33667,588.286133 C898.040277,589.663093 896.183606,590.351562 893.766602,590.351562 C891.349597,590.351562 889.489264,589.663093 888.185547,588.286133 C886.881829,586.909173 886.22998,584.96095 886.22998,582.441406 Z M891.195801,582.749023 C891.195801,584.829112 892.052726,585.869141 893.766602,585.869141 C895.465829,585.869141 896.31543,584.829112 896.31543,582.749023 L896.31543,565.742188 C896.31543,563.676747 895.465829,562.644043 893.766602,562.644043 C892.052726,562.644043 891.195801,563.676747 891.195801,565.742188 L891.195801,582.749023 Z M903.34668,558.491211 L908.158691,558.491211 L910.817383,583.342285 L913.19043,558.491211 L917.958496,558.491211 L920.441406,583.518066 L923.012207,558.491211 L927.318848,558.491211 L923.825195,590 L917.255371,590 L915.453613,573.212891 L913.651855,590 L906.840332,590 L903.34668,558.491211 Z" id="John-P.-Barlow"></path>
            </g>
        </g>
    </g>
</svg>