<svg xmlns="http://www.w3.org/2000/svg" viewBox="0 0 217.65 217.46"><defs><style>.a{fill:#fff;}</style></defs><title>Artboard 44 copy</title><path class="a" d="M195.93,217.46H21A20.65,20.65,0,0,1,.39,196.81V21.92A20.65,20.65,0,0,1,21,1.28H195.93a20.65,20.65,0,0,1,20.65,20.65V196.81A20.65,20.65,0,0,1,195.93,217.46ZM71.45,126l-.21,6.42H58.7v6.29H71.08c0-2.3,0-4.37,0-6.43l6.82.17v19.36H97.27v38.47h6.08L104,184h13.66v6.19h19.1l.45-5.81h6l.46,5.8H156.1v-5.88l-5.95-.43-.58-6.44H137.22l-.5-5.93h-6.34v12.66H117.53l.34-6.23,5.85-.59v-5.85l-6.18-.74c0-2.22,0-4.15,0-6.08H124v-6.46l6.2.33.79,6.35h25.41v12.43l6.24.75.34,5.76h6l.61-5.85,5.88-.74V165.07h-5.88l-.71,5.91H163.1V158.19h12.52c0-2.5,0-4.46,0-6.41h12.69V139.28h-5.85l-.73,6.19h-6.1q0-6.53,0-13.05h6.46V126h6.18V106H175.79c0,2.65,0,4.95,0,7.25l-6.29-.32-.57-7.21h-6.21V99.5l-6.16-.78-.49-5.81-5.8-.45V86.15H162.5v-6H143.35v18.7h-6.47v-19h-6.42V73.25h6.14V60.65l-5.76-.49V54.29l6.17-.73-.27-5.84-5.88-.42V41.38l5.86-.71V28.49H123.91V47.31l-6,.47V60.12l6.25.72c0,2.22,0,4.17,0,6.12H117.7V79.87l-6.77.2V67h-7.35V60.78h-6.3c0,2.28,0,4.22,0,6.16H90.66v-6.2L84.22,60V53.88h19.08l.77-6.22,6.9-.31.43-6,5.85-.6v-6l-5.87-.44L111,28.5h-7l-.74,5.91-5.83.47L97,40.74H84.2c0-2.28,0-4.23,0-6.18h6.2v-6h-6v6.18h-6.2V47.23l6.22.72c0,2.21,0,4.15,0,6.09H77.91c0,9,0,17.39,0,25.83H65.26v6.08l6.18.73v6.11H52.21L51.88,99H45.48c0-4.43,0-8.64,0-12.86h6.2v-6h-6v6.18H39V80.14H26.55V92.62h6.19V99l6.09.4c.22,2.4.4,4.45.57,6.5H32.74c0,2.82,0,5.09,0,7.36H26.56v6.3h6.17q0,3.3,0,6.6h-6.2v6h6v-6.18l6.61,0v12.62h6V126.13H39.05V119.5H45.2v-6.3H39l.22-7.49H52.12c-.17-2.91-.29-4.86-.39-6.81H71.29c0-2.39,0-4.33,0-6.27h6.63v6.2h19l.73-5.94,5.75-.42v-6L97.5,86l-.72-6.11H90.66q0-3.3,0-6.6h6.47V66.79l6.61,0V79.92h7.33V92.35l6.63.78v6.1h-6.19l-.73,6.09-6.94.65-.43,7.24H91.06l-.72,6.46H77.76l.32-6.22,6-.71V106H58.67l-.43,6.85-5.84.52v6.11H65V126ZM182.1,86.33V80.13H169.23l.29,6.06h12.74l-.34,6.19-6,.74v5.73h12.33V86.33ZM26.44,73H71V28.45H26.44ZM143.82,28.4V72.91h44.5V28.4ZM26.59,145.64v44.51H71.09V145.64Zm63.83,44.84V178H78.25v12.44ZM78.08,170.93H90.45V158.64H84.59l-.69,5.83-5.82.7ZM176,190.28h12.31V184.5H176Zm6.4-12.85h6v-5.88h-6Zm6-18.82h-5.84v5.75h5.84Z"/><path d="M175.62,132.42q0,6.53,0,13.05l.16-.15h-12.6v6.6h12.6l-.16-.15v6.41H163.1V171h5.76l.71-5.91h5.88v12.17l-5.88.74-.61,5.85h-6l-.34-5.76-6.24-.75V164.9H131l-.79-6.35-6.2-.33.15.16V145.47h-6.61v-6.21l-6.07-.65-.72-6h-7.18c0-4.24,0-8.47,0-12.6H97.39l-.45,5.86-5.88.43-.7,6.15H84.21l.15.15V126h-6.6l.15.15v-6.6l-.15.16H90.34l.72-6.46H103.4l.43-7.24,6.94-.65.73-6.09h6.19l-.15-.16v13.77l-6,.58v12.71h6.18l-.15-.15.34,6.15h12.46l.45-6.09h18.78v-6.59H136.9c0-2.48,0-4.43,0-6.38h6.2V106h-6v7.24l-6.26-.34-.58-7-6.06-.71V99.07l-.15.15,6.6-.36V79.72l-.15.16h6.42v19h6.47V80.16H162.5v6H150.27v6.32l5.8.45.49,5.81,6.16.78v6.18l.16-.15-6.24.3v26.34h5.86l.71-6h6.12l-.15-.15v6.6h6.6ZM137.24,158H156V139.34H137.24Z"/><path d="M26.44,73V28.45H71V73Zm6.42-6.49H64.65V34.94H32.87Z"/><path d="M143.82,28.4h44.5V72.91h-44.5Zm38.1,6.6h-31.6V66.6h31.6Z"/><path d="M26.59,145.64H71.09v44.51H26.59Zm38.1,6.59H33.08v31.61h31.6Z"/><path d="M117.69,184H104l-.67,6.22H97.27V151.78l-.16.15h6.2l.73,6.3h7.2c0,2,0,4,0,6.61h6.46l-.16-.15v6.08l6.18.74v5.85l-5.85.59-.34,6.23Z"/><path d="M84.2,34.56v6.18H97l.42-5.86,5.83-.47L104,28.5h7l.42,5.87,5.87.44v6l-5.85.6-.43,6-6.9.31-.77,6.22H84.22l.15.15V48l-6.22-.72V34.71h6.2Z"/><path d="M124.16,67V60.83l-6.25-.72V47.77l6-.47V28.49h12.81V40.67l-5.86.71V47.3l5.88.42.27,5.84-6.17.73v5.87l5.76.49V73.25h-6.14l.15.16v-6.6H124Z"/><path d="M117.53,184.18h12.84V171.52h6.34l.5,5.93h12.36l.58,6.44,5.95.43v5.88H143.67l-.46-5.8h-6l-.45,5.81h-19.1q0-3.09,0-6.19Z"/><path d="M65,119.5H52.39v-6.11l5.84-.52.43-6.85h25.4v6.71l-6,.71-.32,6.22.15-.16H71.3l.15.15-.31-6.17H64.85v6.17Z"/><path d="M97.27,151.78H77.91V132.42l-.16.15h6.6l-.15-.15.28,6.46H97.27l-.16,13.05Z"/><path d="M84.22,53.88V60l6.43.76q0,3.09,0,6.2l.16-.15-6.17.31v6.29h6.17l-.16-.15q0,3.3,0,6.6l.16-.15H77.76l.16.15V54h6.46Z"/><path d="M90.66,79.86h6.13L97.5,86l5.86.52v6l-5.75.42-.73,5.94h-19c0-2.08,0-4.14,0-6.2l-.16.15H90.81V79.72Z"/><path d="M39.41,105.86l-.59-6.51L32.74,99V92.62l-.16.15h6.6v-6.6l-.15.16h6.59l-.15-.15V99h6.41l-.17-.15.4,6.82H39.24Z"/><path d="M175.79,113.2V106h12.48v20h-6.18l.15.16V113.06h-6.6Z"/><path d="M162.72,105.68h6.21l.57,7.21,6.29.32-.16-.15q0,6.53,0,13.06l.15-.15h-6.6l.15.15-.32-6.23-6.13-.69V105.53Z"/><path d="M117.7,99.23v-6.1l-6.63-.78c0-4.07,0-8.25,0-12.43l-.15.17,6.78-.22-.15-.16.32,6.23,6.13.69V99.23l.15-.15h-6.6Z"/><path d="M90.41,190.47H78.25V178H90.41Z"/><path d="M71.29,92.64v6.27H51.73l.16.14c.09-1.93.19-3.86.32-6.26H71.44Z"/><path d="M182.1,86.33h6.18V98.84H176V93.11l6-.74.34-6.19Z"/><path d="M71.44,92.79V86.68l-6.18-.73V79.86H77.91l-.16-.15V92.77l.16-.15H71.29Z"/><path d="M78.08,170.93v-5.76l5.82-.7.69-5.83h5.86v12.29Z"/><path d="M32.74,92.62H26.55V80.14H39c0,2.07,0,4.13,0,6.18l.15-.16h-6.6v6.6Z"/><path d="M175.62,145.47h6.1l.73-6.19h5.85v12.49H175.62l.16.15v-6.6Z"/><path d="M130.46,73.25q0,3.31,0,6.62l.15-.16H117.55l.15.16c0-4.15,0-8.3,0-12.92h6.46l-.16-.15v6.6h6.6Z"/><path d="M103.59,67h7.35c0,4.44,0,8.77,0,13.11l.14-.16h-7.33V66.82Z"/><path d="M39.05,126.13h6.17v12.47h-6V126Z"/><path d="M176,190.28V184.5h12.31v5.78Z"/><path d="M71.08,132.23v6.44H58.7v-6.29H71.25Z"/><path d="M182.25,86.18H169.52l-.29-6.06H182.1c0,2.09,0,4.15,0,6.21Z"/><path d="M32.74,113.2v-7.36h6.66l-.16-.14q-.1,3.75-.21,7.5l.16-.15h-6.6Z"/><path d="M84.35,34.71V28.54h6v6H84.2Z"/><path d="M103.74,66.82l-6.61,0,.15.15V60.78h6.3c0,2.05,0,4.12,0,6.19Z"/><path d="M182.35,177.43v-5.88h6v5.88Z"/><path d="M97.13,66.79v6.47H90.66l.16.15v-6.6l-.16.15h6.63Z"/><path d="M188.35,158.61v5.75h-5.84v-5.75Z"/><path d="M124,158.22v6.46h-6.46l.16.15-.15-6.61,6.6.16Z"/><path d="M45.63,86.34V80.16h6v6h-6.2Z"/><path d="M32.73,119.5H26.56v-6.3h6.18l-.16-.15v6.6Z"/><path d="M39,113.2H45.2v6.3H39l.15.16v-6.6Z"/><path d="M39.2,126l-6.61,0,.15.15,0-6.6-.15.16h6.6L39,119.5q0,3.31,0,6.62Z"/><path d="M71.45,126H65c0-2.42,0-4.44,0-6.45l-.15.16h6.6l-.15-.15v6.6Z"/><path d="M182.09,126v6.46h-6.46l.16.15q0-3.3,0-6.6l-.15.15h6.6Z"/><path d="M77.91,132.42l-6.83-.18.16.14q.1-3.22.2-6.43l-.15.16h6.6l-.15-.15v6.6Z"/><path d="M32.59,125.95v6.18h-6v-6h6.2Z"/><path class="a" d="M117.55,99.07h6.6v6.11l6.06.71.58,7,6.26.34-.15-.15v6.38h12.68V126H130.79l-.45,6.09H117.88l-.34-6.15h6.2v-6h-6v6.18h-6.18V113.42l6-.58Z"/><path class="a" d="M137.24,158V139.34H156V158Zm6.46-6.46h5.84V145.8H143.7Z"/><path class="a" d="M97.12,151.93l.16-13.05-.16.15h6.6v-6.6l-.15.16h7.18l.72,6,6.07.65c0,2.1,0,4.15,0,6.21l.16-.15-6.6.35v12.7l.15-.16H104l-.73-6.3Z"/><path class="a" d="M162.87,105.53V119.2l6.13.69.32,6.23h-6.12l-.71,6h-5.86V105.82Z"/><path class="a" d="M97.27,138.87H84.49l-.28-6.46h6.15l.7-6.15,5.88-.43.45-5.86h6.18c0,4.13,0,8.37,0,12.6l.15-.16h-6.6V139Z"/><path class="a" d="M117.55,79.72h13.06V98.87l-6.6.36V86.63l-6.13-.69Z"/><path class="a" d="M124.15,158.38l-6.6-.16.15.16V145.32l-.16.15h6.61Z"/><path class="a" d="M175.78,145.32v6.6h-12.6v-6.6Z"/><path class="a" d="M137,113.22V106h6v7.09h-6.2Z"/><path class="a" d="M77.91,126.11H71.3v-6.6h6.6Z"/><path class="a" d="M175.78,126q0,3.3,0,6.6h-6.6V126Z"/><path class="a" d="M77.76,132.57V126h6.6v6.6Z"/><path class="a" d="M32.87,66.47V34.94H64.65V66.47Zm25.2-6.25V41.34H39.42V60.22Z"/><path class="a" d="M181.92,35V66.6h-31.6V35Zm-6.5,25.19V41.41H156.73V60.19Z"/><path class="a" d="M64.68,152.23v31.61H33.08V152.23ZM39.4,158.55v18.78H58.09V158.55Z"/><path class="a" d="M117.55,158.22l.15,6.61h-6.46c0-2.58,0-4.59,0-6.61l-.15.16h6.6Z"/><path class="a" d="M130.61,73.41H124v-6.6h6.6Z"/><path class="a" d="M71.45,119.66h-6.6v-6.17h6.29Z"/><path class="a" d="M77.76,92.77V79.72H90.81V92.77Z"/><path class="a" d="M90.81,66.81v6.6H84.64V67.12Z"/><path class="a" d="M32.58,92.77v-6.6h6.6v6.6Z"/><path class="a" d="M182.23,126.11h-6.6q0-6.53,0-13.06h6.6Z"/><path class="a" d="M39.19,119.66h-6.6v-6.6h6.6Z"/><path d="M117.69,126.13V120h6v6h-6.2Z"/><path d="M143.7,151.55V145.8h5.84v5.75Z"/><path d="M117.7,158.38h-6.6v-12.7l6.6-.35Z"/><path d="M97.12,139v-6.6h6.6V139Z"/><path d="M58.06,60.22H39.42V41.34H58.06Z"/><path d="M175.42,60.19H156.73V41.41h18.69Z"/><path d="M39.4,158.55H58.09v18.78H39.4Z"/></svg>