<?xml version="1.0" encoding="UTF-8"?>
<svg width="335px" height="136px" viewBox="0 0 335 136" version="1.1" xmlns="http://www.w3.org/2000/svg" xmlns:xlink="http://www.w3.org/1999/xlink">
    <!-- Generator: Sketch 47.1 (45422) - http://www.bohemiancoding.com/sketch -->
    <title>Full vertical Copy 19</title>
    <desc>Created with Sketch.</desc>
    <defs>
        <polygon id="path-1" points="0.101393306 94 318.534336 94 318.534336 0.0651345133 0.101393306 0.0651345133"></polygon>
        <polygon id="path-3" points="64.7082854 0.248758131 0.341881375 0.248758131 0.341881375 93.8591595 64.7082854 93.8591595 64.7082854 0.248758131"></polygon>
        <polygon id="path-5" points="0 92.8835144 0 0.184485105 64.7141027 0.184485105 64.7141027 92.8835144"></polygon>
    </defs>
    <g id="Cover" stroke="none" stroke-width="1" fill="none" fill-rule="evenodd">
        <g id="Full-vertical-Copy-19">
            <g id="Page-1-Copy" transform="translate(3.000000, 2.000000)">
                <g id="Group-3" transform="translate(4.000000, 1.000000)">
                    <mask id="mask-2" fill="white">
                        <use xlink:href="#path-1"></use>
                    </mask>
                    <g id="Clip-2"></g>
                    <path d="M228.388996,83.5704088 C226.734403,81.2054354 225.18219,78.6441434 224.22279,75.9397717 C222.900107,72.2138779 222.973589,68.1901788 223.242749,64.2613115 C223.407053,61.8572407 223.770337,59.4273823 224.392047,57.1031699 C225.549602,52.7808336 228.068645,49.0998602 230.434119,45.3847805 C232.615473,41.9575239 235.014798,38.6716832 237.251471,35.2777009 C239.171096,32.3670283 241.157598,29.4821434 242.815493,26.4209044 C244.54522,23.2257363 246.634102,20.2950991 247.144351,16.3612407 C247.752026,11.6695593 247.908072,7.03361239 247.705789,2.35440885 C247.6868,1.93099292 246.787672,1.21060354 246.283203,1.19812566 C242.43322,1.10163009 238.579934,1.16568319 234.727473,1.13490442 C233.753212,1.1274177 233.403139,1.53419646 233.510472,2.46421416 C233.623586,3.44081593 233.842382,4.42656814 233.799448,5.39817876 C233.650006,8.7014885 233.611201,12.029754 233.129024,15.2881434 C232.776474,17.6705858 232.182835,20.1819664 231.013722,22.2433115 C228.103322,27.3733823 224.82386,32.2921611 221.653383,37.2708336 C219.377079,40.8436655 216.962067,44.3274885 214.751815,47.9394177 C213.188043,50.4948867 211.581337,53.0869575 210.49066,55.8612053 C208.549568,60.8032761 208.783226,66.0672761 209.175407,71.2522496 C209.44787,74.8608513 210.318926,78.3787805 212.573763,81.3410283 C215.09776,84.6568159 217.653132,87.9518071 220.282812,91.1827451 C221.106805,92.1959487 221.962174,93.3647097 223.520166,93.3597186 C225.649505,93.3530637 227.778844,93.3405858 229.907357,93.3355947 C231.873218,93.3314354 233.838254,93.3347628 236.030341,93.3347628 C233.379195,89.9815416 230.714012,86.8961788 228.388996,83.5704088 L228.388996,83.5704088 Z M271.168148,88.4126566 C269.23201,85.9578425 267.347887,83.458108 265.34157,81.060692 C264.860219,80.4858779 263.999896,79.9227097 263.295621,79.9002496 C259.692506,79.7837894 256.081134,79.7763027 252.478018,79.8852761 C251.322941,79.9193823 250.768933,79.4077894 250.373449,78.5326743 C249.963103,77.624285 249.509824,76.6984265 249.322403,75.7318071 C248.155766,69.7232938 247.90477,63.6931522 249.395059,57.7037717 C250.435372,53.5228513 252.801671,49.9924442 255.130816,46.457046 C257.626741,42.6687628 260.126795,38.8804796 262.579787,35.0630814 C264.473817,32.1149752 266.349682,29.1518956 268.137204,26.1372407 C269.442549,23.9353115 270.991459,21.7583381 271.703166,19.3517717 C272.518077,16.5908336 272.665042,13.5961434 272.850812,10.6871345 C273.0275,7.91455044 272.901177,5.12116991 272.867325,2.33693982 C272.857417,1.47846195 272.398359,1.10911681 271.476939,1.12492212 C268.45838,1.1773292 265.439822,1.14488673 262.421263,1.14488673 C258.791727,1.14405487 258.678613,1.14987788 258.851999,4.72437345 C259.036943,8.49269204 258.581187,12.2011168 258.160108,15.9145327 C257.968559,17.5982142 257.861225,19.4507628 257.083467,20.8765681 C254.810466,25.0450106 252.271607,29.0712053 249.735225,33.0865858 C247.8478,36.0729575 245.778734,38.9420372 243.834339,41.8909752 C242.264788,44.271754 240.644872,46.6309044 239.257788,49.1181611 C237.837679,51.6636478 236.453072,54.2715239 235.449087,57.0000195 C233.651658,61.8821965 234.07026,67.019754 234.552437,72.0599841 C234.78114,74.4440903 235.26084,77.0827451 236.509216,79.0334531 C239.344481,83.4655947 242.6644,87.5916124 245.935606,91.7226212 C246.589517,92.5478248 247.890734,93.2757009 248.91536,93.3064796 C254.121878,93.462869 259.334176,93.374692 264.545648,93.3730283 C267.921711,93.3721965 271.297774,93.3730283 275.122162,93.3730283 C273.621965,91.4921965 272.388451,89.9582496 271.168148,88.4126566 L271.168148,88.4126566 Z M291.298202,41.0865681 C291.816707,40.4784796 292.418602,39.9227982 292.841333,39.2531522 C296.175288,33.9833292 299.496032,28.7043558 302.770541,23.3970991 C303.809203,21.7142496 305.099686,20.0813115 305.041891,17.9534177 C305.010516,16.7780018 305.53315,16.535931 306.542088,16.5608867 C309.402123,16.6315947 312.268763,16.7480549 315.122192,16.6199487 C316.00811,16.5800195 317.560323,17.0816301 317.785724,15.684108 C318.21671,13.0279841 318.400829,10.3219487 318.524676,7.62922301 C318.596507,6.0694885 318.263772,4.49394867 318.276983,2.92755929 C318.288542,1.61239115 317.706462,0.865382301 316.404419,0.914461947 C316.131131,0.924444248 315.856191,0.916957522 315.581251,0.911134513 C312.872309,0.859559292 310.163368,0.774709735 307.454426,0.763895575 C304.558063,0.751417699 301.660874,0.788851327 298.764511,0.844585841 C296.496464,0.888674336 294.230068,0.994320354 291.98101,1.07251504 C291.98101,2.0574354 291.909179,2.71210796 291.991744,3.34681593 C292.700973,8.77053274 292.176688,14.1734531 290.743368,19.3426212 C289.872313,22.4853823 287.908928,25.3794177 286.141222,28.1985858 C282.776718,33.5624088 279.165346,38.7698425 275.728186,44.0887451 C273.812689,47.0543204 271.869946,50.0248867 270.26324,53.1618248 C269.176691,55.2830637 268.290774,57.6463735 267.968773,59.9922142 C267.518796,63.2813823 267.537786,66.6578956 267.612094,69.9919841 C267.678145,72.9467451 268.137204,75.879046 269.543278,78.5684442 C272.224973,83.6960195 275.965971,88.0250106 279.810175,92.2575062 C280.409594,92.9171699 281.600174,93.2931699 282.53563,93.3314354 C285.744913,93.4612053 288.962452,93.3813469 292.177514,93.3813469 C296.707003,93.380515 301.236492,93.3821788 305.766807,93.3763558 C306.202748,93.3755239 306.637863,93.3272761 306.823633,93.3156301 C303.795992,89.4624619 300.704777,85.620108 297.731629,81.6870814 C296.807732,80.4659133 295.967225,79.6298956 294.301899,80.0674531 C293.528269,80.2712584 292.659691,80.1323381 291.834871,80.1140372 C289.806261,80.0691168 287.778477,80.0100549 285.750692,79.9435062 C284.899452,79.915223 284.171233,79.8844442 283.60484,78.9219841 C282.493522,77.0328336 282.224362,74.9947805 281.871811,72.8960018 C280.920668,67.2343735 280.877734,61.6642496 282.893134,56.2147451 C283.129269,55.5767097 283.670066,54.6050991 284.124997,54.5718248 C286.805041,54.3796655 289.501598,54.3971345 292.19155,54.3863204 C296.441145,54.3696832 295.901173,55.1391522 297.290734,51.7293646 C297.44513,51.350869 297.715942,51.0206212 297.935563,50.669577 C299.546397,48.1041257 301.140718,45.528692 302.777972,42.9807097 C303.213087,42.303577 303.486375,41.6139664 302.453493,41.5008336 C301.224933,41.3652407 299.962522,41.5698779 298.714146,41.5798602 C296.28675,41.5989929 293.860179,41.5856832 291.432782,41.5856832 C291.388197,41.4193115 291.342787,41.2529398 291.298202,41.0865681 L291.298202,41.0865681 Z M211.343552,15.8904088 C210.789544,17.9051699 210.609553,19.7652053 209.79299,21.276692 C208.03932,24.520108 205.971079,27.5929929 204.006869,30.7191168 C202.092198,33.7637186 200.189086,36.8166389 198.17864,39.7963558 C197.796366,40.3628513 196.953382,40.9043912 196.296169,40.9376655 C194.293154,41.0416478 192.276928,40.8752761 190.264831,40.8478248 C189.623305,40.8395062 188.980127,40.9368336 188.067789,41.0058779 C193.00267,32.7322142 199.517836,25.4451345 202.01211,15.8904088 L211.343552,15.8904088 Z M188.472355,7.55851504 C188.430248,9.78872743 188.238698,12.0389044 187.853947,14.2341788 C187.414704,16.7430637 187.196734,19.4890283 185.993769,21.6244088 C182.748983,27.3858602 179.042662,32.8844442 175.496516,38.472869 C173.405157,41.7695239 171.390583,45.1252407 169.118408,48.2921257 C167.042736,51.1836655 165.624277,54.3480549 164.527821,57.6821434 C163.503195,60.7974531 163.475949,64.046692 163.530441,67.2926035 C163.599795,71.4061434 163.838407,75.497223 165.868668,79.2048159 C168.559446,84.1194354 172.190633,88.3211522 175.972088,92.3914354 C176.340326,92.7874 177.049555,93.0319664 177.610994,93.0494354 C181.576567,93.1742142 185.544618,93.228285 189.511843,93.2823558 C189.772747,93.2856832 190.084015,93.1534177 190.274739,92.9770637 C190.354001,92.9038602 190.239236,92.4945858 190.103005,92.3298779 C187.875414,89.6379841 185.497556,87.059223 183.430966,84.2483735 C181.804445,82.0364619 180.314156,79.650692 179.204489,77.1443027 C177.814928,74.010692 177.805846,70.6025681 177.792636,67.1528513 C177.775297,62.9328336 177.852082,58.8350991 179.768404,54.9952407 C179.978944,54.5743204 180.568454,54.0793646 180.990359,54.0718779 C184.756952,54.0003381 188.534279,54.1941611 192.290139,53.9720549 C194.670474,53.8314708 197.144106,53.4488159 199.354358,52.5928336 C203.810365,50.8675593 207.107992,47.5001965 209.837575,43.6636655 C212.353316,40.1290991 214.597419,36.3982142 216.975277,32.7629929 C218.033754,31.1441965 219.336622,29.6476832 220.158965,27.9174177 C221.792917,24.4751876 224.541489,21.5927982 225.090543,17.593223 C225.506668,14.5610991 226.211769,11.5580903 225.375391,8.50683363 C224.72148,6.12355929 223.202293,4.38580708 221.20836,2.99493982 C218.385479,1.02593097 215.096109,0.961046018 211.919026,0.882851327 C204.892786,0.709824779 197.859941,0.817966372 190.830398,0.843753982 C189.983286,0.847081416 189.137825,1.05255044 188.103292,1.18897522 C188.245303,3.40837345 188.512812,5.48635575 188.472355,7.55851504 L188.472355,7.55851504 Z M55.1034183,27.3218071 C57.7256673,27.4890106 59.7072156,27.1080195 60.7326669,24.2913469 C61.3477725,22.6043381 62.6555944,21.153577 63.1542841,19.4482673 C63.8114976,17.2005858 63.9477291,14.8023381 64.3671568,12.4797894 C64.7766768,10.2138071 64.3192694,8.10837345 63.3185875,6.0994354 C61.4864809,2.42095752 58.1987619,0.695683186 54.4181328,0.598355752 C47.3151076,0.415346903 40.1963952,0.636621239 33.0917187,0.877028319 C30.7229428,0.957718584 28.7793741,2.4633823 27.4872395,4.36833805 C25.5634863,7.20164779 25.1044276,10.6064442 24.4637269,13.9172407 C23.9873297,16.3787097 23.9163242,19.1396478 22.7084054,21.1976655 C18.2796448,28.7401257 13.4132923,36.0197186 8.79215646,43.449046 C6.43906779,47.2340018 4.08267655,51.0364265 2.05489207,55.0010637 C0.572859038,57.8967628 0.194713562,61.1850991 0.127836305,64.4576301 C0.0378409845,68.8448513 0.0948104995,73.2129398 1.66518757,77.4030106 C2.4834019,79.5841434 3.86883446,81.348515 5.28316459,83.1827628 C7.30186697,85.7997894 9.53276015,88.0391522 12.3168356,89.7794 C17.2203421,92.8447982 22.6060254,94.0127274 28.2955461,94.0002496 C32.148832,93.9910991 36.0037691,93.9811168 39.8545781,93.8588336 C42.3612368,93.7798071 45.0321988,94.3338248 47.1813531,92.4163912 C47.5132625,92.1210814 47.8707668,91.671046 47.9128747,91.2609398 C48.2158865,88.3003558 46.6653249,85.9445327 45.0445835,83.7875239 C42.7542438,80.7395947 41.0179121,77.5086566 40.4300528,73.7220372 C40.0832818,71.4901611 39.8644858,69.2383204 39.5804639,66.9390637 C35.3531608,66.9390637 31.1531039,66.914108 26.9538727,66.9789929 C26.5509579,66.9848159 25.8557647,67.5113823 25.8128311,67.8607628 C25.664215,69.0694531 25.5436708,70.3471876 25.7773284,71.525931 C26.3693159,74.5372584 26.4981166,77.7132938 28.8024922,80.4742319 C25.5610093,80.4742319 22.697672,80.4767274 19.8351603,80.4734 C16.8991661,80.4700726 16.6514726,80.3286566 15.7440886,77.3938602 C14.6558883,73.8726035 14.2405888,70.3147451 14.335538,66.5647274 C14.4230563,63.1424619 14.5708468,59.8058779 15.5880416,56.5533115 C16.9561356,52.1802319 19.6535183,48.5117363 22.0586226,44.7084796 C24.0880584,41.4991699 26.4337163,38.4928336 28.4714085,35.2876832 C30.9136668,31.4478248 33.0900674,27.4366035 35.5488387,23.6075593 C37.0622462,21.2517363 38.0621025,18.8044088 38.2412675,16.0052053 C38.3081447,14.949577 38.7440854,14.3140372 39.98503,14.3439841 C42.8987317,14.4130283 45.8149104,14.3614531 48.7302634,14.3714354 C49.0704292,14.3722673 49.4114206,14.4571168 49.7499352,14.502869 C49.447749,17.0857894 49.2462916,20.2668159 47.365472,22.7532407 C46.404421,24.0234885 45.8050027,25.571577 44.8934904,27.2727274 C48.6154987,27.2727274 51.8710175,27.1155062 55.1034183,27.3218071 L55.1034183,27.3218071 Z M97.1758179,14.602692 C96.2907263,17.487577 96.5574097,20.2726389 94.8640115,22.7698779 C92.4044146,26.3984442 90.4088303,30.342285 88.0887675,34.0731699 C86.6562731,36.3782496 84.9447107,38.5061434 83.4370827,40.7671345 C79.9379986,46.0161611 76.1251693,51.0846743 74.1403184,57.2129752 C73.219724,60.0529398 73.0529437,62.9261788 73.0727592,65.9017363 C73.0950516,69.5369575 73.1115645,73.1372407 74.1956366,76.6318779 C74.5688282,77.8347451 75.1715492,78.9652407 75.765188,80.3536124 C75.0889847,80.402692 74.5985514,80.4684088 74.1081182,80.4692407 C71.4016534,80.4800549 68.6935374,80.4010283 65.9928521,80.5083381 C64.7931897,80.555754 64.3068847,80.0341788 63.8346157,79.0509221 C62.2658899,75.7842142 61.7176615,72.3211876 61.672251,68.7425327 C61.6185841,64.4418248 61.4765731,60.1377894 63.1840073,56.039223 C64.4414649,53.0245681 65.7269944,50.0689752 67.8356921,47.4927097 C69.1137907,45.9313115 69.9047588,43.9756124 71.0193797,42.2669752 C72.5748952,39.8853646 74.3170064,37.6243735 75.8196806,35.2111522 C78.1546051,31.4611345 80.1196405,27.4540726 82.6906995,23.8837363 C84.7052737,21.0870283 85.2741432,18.0108159 85.8999822,14.602692 L97.1758179,14.602692 Z M91.8000424,0.0651345133 C88.4421436,0.215700885 85.0561728,0.149984071 81.7370794,0.591700885 C79.4376576,0.897824779 77.1299794,1.5233823 75.3507142,3.43998407 C73.1503699,5.80994867 72.7664449,8.77801947 72.1529905,11.7003381 C71.5122899,14.7532584 71.314135,17.9700549 70.2094218,20.8366389 C69.0989291,23.7173646 67.172699,26.2944619 65.4958137,28.9347805 C61.7449078,34.8393115 57.8965758,40.6814531 54.1489725,46.5876478 C52.6174007,49.000869 51.1295882,51.456515 49.8267202,53.9995062 C47.8914079,57.7803027 47.3497847,61.8921788 47.5380318,66.1022142 C47.6577504,68.7791345 47.6511452,71.4876655 48.0912141,74.1155062 C48.7657661,78.140869 50.8199713,81.4699664 53.5462515,84.5411876 C55.7573292,87.0326035 58.2920598,88.9309044 61.1017303,90.5563558 C65.7781844,93.263223 70.8525994,94.0676301 76.1804875,93.8214 C78.8431931,93.698285 81.544704,94.0759487 84.1793377,93.7764796 C87.2135836,93.4312584 90.3411274,94.7863558 93.3068448,93.1392761 C94.1234078,92.6859133 95.7879084,91.0421611 95.4626042,90.3508867 C94.2959677,87.8719487 93.0401614,85.4362673 91.8091245,82.988108 C90.6177185,80.6206389 89.1753165,78.3471699 88.273712,75.8723912 C86.9188283,72.1531522 87.4109128,68.1801965 87.2532146,64.2945858 C87.0575367,59.499754 88.811207,55.2814 90.933115,51.2294177 C92.6554108,47.9394177 94.8194267,44.8823381 96.8240931,41.7454 C100.082089,36.6494354 103.41687,31.6033823 106.622024,26.4741434 C107.997549,24.2747097 109.303719,21.9945858 110.306878,19.6088159 C110.912076,18.1713646 110.82043,16.4485858 111.136652,14.873046 C111.852486,11.318515 111.90863,8.05513451 109.569577,4.81504602 C107.509593,1.96010796 104.683409,0.883683186 101.683015,0.451116814 C98.4514397,-0.0155557522 95.102623,0.345470796 91.8049963,0.345470796 C91.803345,0.251470796 91.8016937,0.158302655 91.8000424,0.0651345133 L91.8000424,0.0651345133 Z M129.677339,49.2570814 C131.516051,47.2947274 133.330819,45.3090814 135.200079,43.3766743 C137.948652,40.5325504 140.785569,37.774108 143.492034,34.889223 C145.845122,32.3786743 148.067759,29.742515 150.351493,27.1654177 C152.281026,24.9884442 154.336883,22.9104619 156.104589,20.6078779 C157.191963,19.1937186 157.972198,17.4950637 158.655832,15.8263558 C159.384877,14.0470106 159.860449,12.1603558 160.407026,10.3086389 C161.153409,7.77729381 161.930341,5.25177168 162.559483,2.69047965 C162.826992,1.60407257 163.20266,1.09663894 164.397369,1.11993097 C167.988925,1.1873115 171.582133,1.16318761 175.17534,1.13074513 C176.240423,1.12076283 176.752323,1.26716991 176.696179,2.6214354 C176.551691,6.07447965 176.914149,9.56495752 176.574809,12.9905504 C176.214002,16.6332584 175.769805,20.3117363 173.469558,23.4994177 C172.027155,25.4975416 171.216372,27.9465327 169.911853,30.0619487 C168.489266,32.3703558 166.786786,34.5007451 165.274204,36.7550814 C163.051567,40.0667097 161.006444,43.5039487 158.670694,46.7307274 C156.244123,50.0814531 154.393852,53.7133469 153.10502,57.5989575 C152.474227,59.5014177 152.295062,61.6176655 152.251303,63.6449044 C152.172041,67.2734708 152.039112,70.8928867 152.815219,74.5239487 C153.535181,77.8929752 155.110512,80.7504088 157.09784,83.393223 C159.335338,86.3671168 161.828787,89.1455239 164.19426,92.023754 C164.446082,92.3298779 164.586441,92.7300018 164.891104,93.2948336 C162.377015,93.2948336 160.018147,93.3006566 157.66093,93.2931699 C155.997255,93.2881788 154.322021,93.3780195 152.675685,93.2024973 C151.851691,93.1143204 150.845229,92.7316655 150.326724,92.1285681 C147.980241,89.397577 145.622198,86.6507805 143.574598,83.6943558 C141.923308,81.3094177 140.253853,78.7564442 139.429034,76.0221257 C138.581922,73.2129398 138.733015,70.0943027 138.484496,67.107931 C138.424224,66.3817186 138.589353,65.6338779 138.513393,64.9109929 C138.179007,61.744108 138.98236,58.736108 139.912036,55.7954885 C140.463567,54.0494177 141.507183,52.4614 142.208981,50.7369575 C138.941078,54.1517363 136.545055,58.1413292 134.557727,62.3763204 C134.042525,63.4743735 134.012802,64.7945327 133.678415,65.9890814 C133.090556,68.0895239 132.392886,70.1591876 131.827319,72.2646212 C131.146162,74.7967982 131.184967,74.8067805 128.513179,74.8076124 C126.326045,74.8084442 124.138911,74.8076124 121.952603,74.8076124 C119.668043,74.8076124 118.290867,73.7469929 117.606407,71.5641965 C116.651136,68.5146035 115.365606,65.5357186 114.753803,62.4212407 C114.269149,59.9514531 114.526751,57.3211168 114.569684,54.7639841 C114.591151,53.5003912 114.872696,52.2417894 114.75628,50.8991699 C114.151908,52.2434531 113.47075,53.5594531 112.956374,54.9386743 C111.144082,59.7975593 110.723003,64.7970283 111.195272,69.9711876 C111.475992,73.0557186 111.754234,76.0645504 113.205718,78.8446212 C115.591833,83.4148513 118.919183,87.2838248 122.237451,91.1611168 C122.459549,91.4214885 122.710545,91.6585681 122.937598,91.9156124 C123.166301,92.1726566 123.381795,92.440515 123.767371,92.898869 C123.510595,93.0544265 123.287671,93.3064796 123.070527,93.3023204 C121.241723,93.2682142 119.413744,93.1650637 117.58494,93.1259664 C115.720634,93.0860372 113.829906,92.8972053 111.9978,93.1409398 C110.282935,93.368869 109.4383,92.3515062 108.567244,91.3349752 C106.551019,88.9808159 104.595065,86.571754 102.669661,84.1418956 C98.7759182,79.228108 96.7935442,73.682108 97.2625107,67.3283735 C97.3591111,66.0231876 97.3459008,64.7021965 97.2707671,63.3953469 C97.0684841,59.8957186 98.2409002,56.6880726 99.7287127,53.706692 C102.855431,47.4411345 106.908523,41.7362496 110.902994,35.9989221 C113.219754,32.6723204 115.183964,29.0961611 117.292662,25.6239841 C118.112528,24.2747097 119.099173,22.9803381 119.644925,21.5220903 C120.385529,19.5397717 121.009716,17.4543027 121.264015,15.360515 C121.677663,11.9632053 121.774264,8.52513451 121.951777,5.10120531 C121.998014,4.21194867 121.893982,3.30522301 121.776741,2.41763009 C121.649591,1.45516991 122.031039,1.12824956 122.956588,1.13407257 C126.757032,1.15902832 130.558302,1.1374 134.359573,1.15154159 C135.053115,1.15403717 135.606297,1.01012566 135.617856,2.26456814 C135.629415,3.49655044 136.625969,4.68610796 136.964483,5.95552389 C137.60023,8.34212566 138.105525,10.7653292 138.595958,13.1885327 C138.778425,14.0894354 138.635589,15.0652053 138.865118,15.9469752 C139.658563,18.9890814 138.861816,21.8473469 138.016355,24.7072761 C137.390516,26.8235239 136.793575,28.9522496 136.06453,31.0327274 C135.08614,33.8194531 133.938494,36.546285 132.963407,39.3355062 C132.011438,42.0573469 131.208085,44.8315947 130.291619,47.5667451 C130.109151,48.1091168 129.708714,48.5766212 129.409004,49.0790637 C129.499,49.1381257 129.588169,49.1980195 129.677339,49.2570814 L129.677339,49.2570814 Z" id="Fill-1" fill="#333333" mask="url(#mask-2)"></path>
                </g>
                <path d="M129.674062,50.0371006 C131.524453,48.0796844 133.349929,46.0981949 135.229389,44.1690027 C137.99501,41.3308322 140.848666,38.5781639 143.569439,35.7001478 C145.938073,33.1948543 148.172994,30.5642132 150.471034,27.9916802 C152.411952,25.8200938 154.479108,23.7456311 156.258075,21.4486971 C157.351035,20.037498 158.136704,18.3415687 158.824372,16.6763537 C159.556888,14.9015633 160.035266,13.0180276 160.585068,11.1701869 C161.336685,8.64497058 162.116541,6.124735 162.750225,3.56797427 C163.018482,2.48384131 163.397198,1.97829998 164.599786,2.00071314 C168.211704,2.06795263 171.826943,2.04387923 175.440522,2.01150467 C176.511889,2.00237338 177.02764,2.14764387 176.970334,3.49907455 C176.824994,6.94572084 177.190421,10.4288923 176.849079,13.8464845 C176.485312,17.4823975 176.038494,21.1531754 173.724674,24.3333541 C172.273762,26.3272954 171.459025,28.7711602 170.145977,30.882148 C168.715827,33.1857231 167.001641,35.311653 165.480134,37.5612704 C163.245213,40.8659667 161.188023,44.2968407 158.838491,47.5160349 C156.398432,50.8605768 154.537244,54.484038 153.240807,58.3615151 C152.605462,60.2608231 152.42607,62.3718109 152.381223,64.3948064 C152.301493,68.0157772 152.16861,71.628447 152.948466,75.2519082 C153.672676,78.6130524 155.257302,81.4653348 157.257187,84.1017868 C159.507057,87.0702857 162.015218,89.8428768 164.394648,92.714252 C164.647956,93.0197351 164.789144,93.4190214 165.095605,93.983501 C162.56585,93.983501 160.194725,93.9893119 157.822769,93.9818408 C156.149277,93.97603 154.464989,94.0665128 152.808108,93.8905279 C151.979252,93.8025355 150.967683,93.4215118 150.446118,92.8196768 C148.08579,90.0944023 145.713003,87.3525255 143.654152,84.4022892 C141.993118,82.0223434 140.313813,79.474714 139.484127,76.746119 C138.631186,73.9428135 138.784001,70.8307044 138.534015,67.8505839 C138.473388,67.1258917 138.639491,66.3804465 138.562253,65.6590747 C138.225894,62.4979887 139.034817,59.4962852 139.969149,56.5618212 C140.523934,54.8194054 141.574538,53.2347118 142.280477,51.513879 C138.993291,54.9223399 136.582301,58.9027515 134.583247,63.1288777 C134.065835,64.2246323 134.035106,65.5420282 133.699577,66.7340764 C133.108249,68.8301221 132.406462,70.8954535 131.836728,72.9973101 C131.151551,75.5233565 131.190586,75.534148 128.503033,75.5349781 C126.302994,75.5349781 124.103786,75.5349781 121.903747,75.5349781 C119.606537,75.5349781 118.221235,74.4757487 117.532737,72.2975214 C116.571829,69.254312 115.278714,66.2824927 114.663301,63.1737041 C114.175788,60.7090863 114.434078,58.084256 114.477265,55.532476 C114.498859,54.2723582 114.782065,53.0155609 114.665792,51.6757518 C114.057024,53.0180512 113.372678,54.3312965 112.855266,55.7076307 C111.032281,60.5555147 110.608718,65.5445186 111.082943,70.7078471 C111.366149,73.7867515 111.646033,76.788455 113.106082,79.5627064 C115.504614,84.1233699 118.853258,87.9842446 122.189444,91.8534205 C122.414514,92.1140773 122.666161,92.3498305 122.895384,92.6063367 C123.124606,92.8628429 123.342202,93.1301406 123.730053,93.5875352 C123.470932,93.7435972 123.247523,93.9942926 123.028266,93.990142 C121.188672,93.9561072 119.349907,93.8531727 117.510313,93.8141571 C115.635836,93.7743115 113.733122,93.5867051 111.891036,93.8290993 C110.166052,94.0573815 109.315603,93.0413181 108.440238,92.026915 C106.411286,89.6785136 104.444622,87.2736643 102.507857,84.8488922 C98.5903088,79.9453904 96.5970684,74.4109995 97.0679714,68.070565 C97.1643114,66.7689413 97.1526841,65.4498852 97.0762766,64.1457712 C96.8736305,60.6542986 98.0529644,57.4525369 99.5495557,54.4782272 C102.694723,48.2249549 106.770899,42.5320117 110.78977,36.8066939 C113.11937,33.4870556 115.09517,29.9183821 117.21714,26.4534732 C118.041013,25.1070232 119.03348,23.815361 119.583283,22.3601657 C120.328256,20.3828267 120.955296,18.3008929 121.211926,16.2123183 C121.628015,12.8221199 121.724355,9.39124588 121.903747,5.9744838 C121.949425,5.08625848 121.84478,4.18226094 121.726846,3.29652597 C121.598116,2.33525034 121.982646,2.00984443 122.913655,2.01482513 C126.737355,2.03972865 130.560223,2.0181456 134.384753,2.03225759 C135.082388,2.03474795 135.638003,1.89113768 135.649631,3.1429543 C135.662088,4.37235776 136.664522,5.55942524 137.004204,6.82701409 C137.643701,9.20778999 138.152808,11.6267513 138.646135,14.0440523 C138.828849,14.9430692 138.686,15.9167966 138.916884,16.7975508 C139.71501,19.8332892 138.913562,22.6847415 138.063112,25.5395142 C137.43275,27.6513322 136.833117,29.7747718 136.09894,31.8508947 C135.115608,34.6326172 133.959529,37.3537411 132.979519,40.1362937 C132.022764,42.8532671 131.21384,45.6217077 130.291967,48.3503026 C130.108422,48.891539 129.705622,49.3588949 129.404975,49.8594556 C129.49467,49.9183939 129.584366,49.9781623 129.674062,50.0371006" id="Fill-4" fill="#2CC9F7"></path>
                <g id="Group-8" transform="translate(47.000000, 0.000000)">
                    <mask id="mask-4" fill="white">
                        <use xlink:href="#path-3"></use>
                    </mask>
                    <g id="Clip-7"></g>
                    <path d="M38.916769,14.7404118 C38.2880276,18.1376187 37.7165199,21.2039773 35.6926031,23.9917267 C33.1096207,27.5506264 31.1354723,31.5448528 28.7897195,35.2828583 C27.2800766,37.6883494 25.5298862,39.9420981 23.9679864,42.3160799 C22.8473669,44.0192439 22.0527307,45.9686784 20.7687047,47.5250751 C18.6502278,50.0930883 17.3587366,53.0392137 16.0954476,56.0450411 C14.3800951,60.1296497 14.5227646,64.4207274 14.5766805,68.70683 C14.6223015,72.2740216 15.1730723,75.7259553 16.7482437,78.9830284 C17.2235324,79.9623063 17.7120926,80.4822108 18.9173185,80.4349467 C21.6305284,80.3279807 24.3512035,80.4067541 27.0693901,80.3968038 C27.5629272,80.3943162 28.0556349,80.3304683 28.7358036,80.2815459 C28.1385823,78.8967923 27.5330662,77.7699179 27.1581439,76.5709037 C26.0682149,73.0882899 26.0524549,69.4995393 26.0292296,65.8751333 C26.0101517,62.908278 26.1785349,60.0459011 27.1025691,57.2142044 C29.0966249,51.1055338 32.9263069,46.0532562 36.4432771,40.8210435 C37.9570674,38.5672948 39.6765673,36.4462172 41.1157048,34.147692 C43.4465271,30.4295872 45.4513661,26.4983795 47.9223695,22.8814363 C49.6227914,20.3921966 49.3557007,17.6152266 50.244897,14.7404118 L38.916769,14.7404118 Z M44.8491679,0.528859787 C48.1620875,0.528859787 51.5264345,0.168989691 54.7729962,0.634167396 C57.7873051,1.06534816 60.626595,2.1383249 62.696133,4.98411792 C65.0460331,8.21382766 64.9896289,11.4667548 64.2704748,15.0098998 C63.9527863,16.5803928 64.0448579,18.2976531 63.4376828,19.7304999 C62.4290423,22.1086277 61.1168142,24.3806186 59.7349104,26.5738361 C56.5148918,31.6866449 53.1646459,36.7165343 49.891541,41.7961754 C47.8775779,44.9230651 45.7035262,47.9711814 43.9732432,51.2498136 C41.8414947,55.2879872 40.0796917,59.493658 40.276277,64.2731309 C40.4347066,68.146295 39.94034,72.1065245 41.301507,75.8138498 C42.2072928,78.2798721 43.6563841,80.5468879 44.8533152,82.9067733 C46.0900611,85.3462614 47.3516913,87.77497 48.5237382,90.2459674 C48.8513805,90.9358566 47.1783312,92.5726851 46.3571518,93.0254249 C43.3785102,94.6672286 40.2364623,93.3164719 37.1873154,93.6605874 C34.5421225,93.9590971 31.8272537,93.5826432 29.1521997,93.7053638 C23.7996032,93.9508052 18.7008258,93.1489748 14.0035138,90.4516075 C11.1808134,88.8305336 8.63432788,86.9383135 6.41299619,84.4557073 C3.67407266,81.3934947 1.61034105,78.0750612 0.932660698,74.0625926 C0.490550993,71.4431695 0.496357312,68.7424854 0.376913039,66.0757982 C0.188622414,61.8784193 0.731927961,57.7797145 2.67621529,54.0110288 C3.98429598,51.4761835 5.47983781,49.0292326 7.0185123,46.6229123 C10.7834953,40.7356365 14.6496742,34.9122087 18.4179751,29.0265913 C20.102637,26.3955595 22.0378001,23.825888 23.1534428,20.9543899 C24.2632792,18.0969882 24.462353,14.8913251 25.1060249,11.8473548 C25.7223242,8.93439704 26.1080296,5.97583367 28.3185782,3.61346062 C30.1060949,1.70299817 32.424475,1.07861526 34.7345605,0.774301143 C38.0698759,0.333999251 41.4707198,0.399505559 44.844191,0.248592293 C44.84585,0.342291189 44.8475089,0.435990085 44.8491679,0.528859787 L44.8491679,0.528859787 Z" id="Fill-6" fill="#2CC9F7" mask="url(#mask-4)"></path>
                </g>
                <g id="Group-11" transform="translate(0.000000, 1.000000)">
                    <mask id="mask-6" fill="white">
                        <use xlink:href="#path-5"></use>
                    </mask>
                    <g id="Clip-10"></g>
                    <path d="M45.0001321,26.7062566 C45.9158716,25.0191164 46.5180698,23.4837776 47.4835776,22.2239913 C49.3731197,19.758044 49.5755114,16.6032156 49.8790989,14.0407425 C49.5390145,13.9961921 49.1972712,13.9128664 48.8546984,13.9112164 C45.9258253,13.9013163 42.9961227,13.9532917 40.0689085,13.8839911 C38.8222089,13.8542908 38.3842466,14.4854215 38.3162297,15.531531 C38.1378928,18.307681 37.1317407,20.7348528 35.6121441,23.0712739 C33.1419702,26.8687831 30.9546469,30.847794 28.5018919,34.6560283 C26.4555793,37.8339569 24.0982139,40.8155338 22.0593665,43.9984125 C19.6422789,47.7703464 16.932387,51.4086292 15.5587778,55.7456933 C14.5360362,58.9714724 14.3883898,62.2805772 14.3004656,65.6746578 C14.2050761,69.3946163 14.6223015,72.9223481 15.7155484,76.4146045 C16.6271405,79.3252308 16.8759827,79.465482 19.8255927,79.4687821 C22.7013794,79.4720821 25.5779957,79.4696071 28.8345111,79.4696071 C26.5194488,76.7322324 26.3900508,73.581529 25.7944884,70.5950021 C25.5605767,69.4259666 25.6816799,68.1587552 25.8309853,66.9600194 C25.8741179,66.6135162 26.5725351,66.0912865 26.9773185,66.0855115 C31.1951944,66.0211609 35.4155587,66.0459111 39.6624662,66.0459111 C39.9469758,68.3262317 40.1676159,70.5595268 40.5159951,72.7730217 C41.1065806,76.5284556 42.8509647,79.7327844 45.1519259,82.7556117 C46.7801836,84.894856 48.337936,87.231277 48.033519,90.1674785 C47.9903863,90.5742071 47.6320535,91.0205362 47.2986049,91.3134138 C45.1394838,93.2150559 42.456135,92.665601 39.9378516,92.7439767 C36.0691843,92.8652528 32.1963697,92.8751529 28.325214,92.8834029 C22.6093078,92.8966031 17.1986481,91.7391176 12.2724014,88.6981402 C9.47541463,86.9722247 7.23334609,84.7513047 5.20611135,82.1558313 C3.78522219,80.3366899 2.39336462,78.5876741 1.57218524,76.4236796 C-0.00630400329,72.2689422 -0.0635377174,67.9360032 0.0260454873,63.5849139 C0.0940623649,60.3393347 0.473961511,57.0780803 1.96286755,54.2062294 C4.00005598,50.274244 6.36737512,46.503135 8.73137635,42.7493512 C13.373943,35.3812098 18.2636929,28.1615698 22.7121626,20.6812274 C23.9256832,18.640159 23.997018,15.9011343 24.4756246,13.4607623 C25.1192965,10.1772327 25.5804841,6.80130229 27.5123293,3.98967696 C28.8104563,2.10123494 30.7638679,0.607971484 33.1436291,0.52877077 C40.2820834,0.288693607 47.4338092,0.0700666369 54.5689456,0.251568272 C58.3671075,0.347269135 61.6700735,2.05915956 63.5098471,5.70651742 C64.5159992,7.69891038 64.9746984,9.7878292 64.5641087,12.0351494 C64.1419063,14.3385702 64.0050431,16.7170666 63.3447817,18.9462367 C62.8446088,20.637502 61.5307218,22.0763149 60.9135931,23.750255 C59.8825568,26.5420802 57.8918189,26.9215836 55.2574091,26.7549321 C52.0100179,26.5503302 48.738572,26.7062566 45.0001321,26.7062566" id="Fill-9" fill="#2CC9F7" mask="url(#mask-6)"></path>
                </g>
                <path d="M201.341977,16.0227678 C198.857773,25.5262857 192.36891,32.7743108 187.453953,41.0036325 C188.361785,40.9349583 189.003188,40.8381525 189.642124,40.8464265 C191.646098,40.8737307 193.653361,41.0392107 195.649112,40.9366131 C196.303672,40.9026897 197.144075,40.3640522 197.523983,39.8005928 C199.526312,36.8368455 201.422563,33.800287 203.32786,30.7720025 C205.284962,27.6626328 207.344853,24.6070442 209.091443,21.3801837 C209.903887,19.877625 210.083973,18.0275583 210.636567,16.0227678 L201.341977,16.0227678 Z M187.489312,1.40012532 C188.519669,1.2644317 189.362538,1.06006386 190.205408,1.05675426 C197.207393,1.03110486 204.211023,0.923542842 211.208896,1.09564207 C214.373974,1.17341768 217.649242,1.23795489 220.460726,3.196411 C222.446609,4.57982402 223.959663,6.30826289 224.610934,8.67876426 C225.444758,11.7136679 224.740859,14.7005824 224.327236,17.7172833 C223.780399,21.6945957 221.042923,24.5623646 219.415568,27.9853189 C218.596545,29.7071386 217.298937,31.1939766 216.244734,32.8049247 C213.876476,36.4206632 211.64061,40.1315528 209.13667,43.647176 C206.417285,47.4639728 203.133794,50.8124611 198.694955,52.528489 C196.493626,53.3790563 194.02998,53.7613151 191.659255,53.9003184 C187.919381,54.1212342 184.156482,53.92845 180.405096,53.9996064 C179.984072,54.0078804 179.397764,54.4985287 179.188897,54.9180205 C177.279489,58.7372995 177.203014,62.8130726 177.220282,67.0104734 C177.234262,70.4417018 177.242485,73.8315601 178.625613,76.9483764 C179.732445,79.441333 181.215895,81.8143166 182.83585,84.0152009 C184.894096,86.8109859 187.262354,89.3750989 189.480951,92.0525658 C189.616633,92.216391 189.730112,92.6234719 189.651992,92.6962831 C189.46286,92.8716919 189.152027,93.0032485 188.892176,92.9999389 C184.940968,92.9461579 180.988937,92.8932043 177.038551,92.7682669 C176.481024,92.7500641 175.773836,92.5076358 175.407085,92.112966 C171.640897,88.0653245 168.023547,83.8869539 165.344455,78.9978465 C163.323213,75.3101241 163.085565,71.2409703 163.01649,67.1494767 C162.961396,63.9209613 162.988532,60.688309 164.009843,57.590523 C165.101051,54.2743032 166.513783,51.1268731 168.580252,48.2508303 C170.844077,45.100918 172.85134,41.7631859 174.934255,38.4841991 C178.466085,32.9265525 182.15662,27.4566102 185.389128,21.7260369 C186.586414,19.6021008 186.803504,16.8700255 187.241796,14.3754142 C187.624171,12.1919052 187.814948,9.95378786 187.857708,7.73470071 C187.897179,5.67447439 187.63075,3.60762886 187.489312,1.40012532 L187.489312,1.40012532 Z" id="Fill-12" fill="#2CC9F7"></path>
                <path d="M291.878906,41.5399877 C294.307201,41.5399877 296.736321,41.5540309 299.16379,41.5350312 C300.413878,41.5242923 301.67636,41.3219046 302.907445,41.4557283 C303.940234,41.5689002 303.666752,42.253714 303.231327,42.9253107 C301.593737,45.4555698 299.997457,48.0130893 298.386306,50.561522 C298.165702,50.9092984 297.894698,51.2380751 297.741019,51.6131119 C296.348819,54.9991817 296.89,54.235891 292.638213,54.2524125 C289.945524,54.2623253 287.247878,54.2449778 284.565105,54.4366266 C284.109851,54.4688434 283.567843,55.4345218 283.332367,56.0672931 C281.316362,61.4788919 281.359326,67.0102713 282.311145,72.6333446 C282.663946,74.7175247 282.932471,76.7405755 284.045405,78.6165854 C284.611374,79.573177 285.340936,79.6029156 286.191955,79.6310021 C288.221179,79.6979139 290.250404,79.755739 292.279628,79.8003469 C293.105034,79.8185204 293.974229,79.9564745 294.750061,79.7549129 C296.415744,79.3203989 297.257673,80.1497754 298.1814,81.3632754 C301.15666,85.2689447 304.250897,89.083746 307.280688,92.9109385 C307.094786,92.9216774 306.658536,92.9695896 306.222286,92.9704157 C301.689579,92.9770242 297.156047,92.9753721 292.622515,92.9761982 C289.406821,92.9761982 286.186171,93.054675 282.975435,92.9266338 C282.039315,92.8886345 280.847063,92.5144238 280.248045,91.8601746 C276.401111,87.6571194 272.656629,83.3582397 269.973029,78.2655047 C268.565957,75.5948134 268.107399,72.683735 268.040474,69.7487005 C267.966939,66.4386293 267.94711,63.0856023 268.398232,59.8184868 C268.720462,57.4897894 269.607009,55.1420922 270.693503,53.0364342 C272.302176,49.921316 274.245473,46.9705862 276.163156,44.0256389 C279.602758,38.7437333 283.216695,33.5733476 286.583588,28.2460081 C288.351724,25.4472755 290.316502,22.5733704 291.189003,19.4524697 C292.622515,14.3192571 293.147172,8.95309224 292.437439,3.56792769 C292.353989,2.93763461 292.425871,2.28668973 292.425871,1.30862027 C294.678179,1.23179556 296.946184,1.12688439 299.215842,1.08227649 C302.114262,1.02692966 305.012683,0.99058248 307.911103,1.00214749 C310.622795,1.01288643 313.33366,1.09714579 316.044526,1.14836227 C316.318835,1.15414477 316.59397,1.16240549 316.867453,1.15166656 C318.169594,1.1029283 318.752913,1.84474112 318.742172,3.15076124 C318.728126,4.70708123 319.061098,6.27166194 318.990042,7.82054728 C318.865281,10.4945429 318.681031,13.1817557 318.250564,15.8185781 C318.024177,17.2072055 316.470862,16.709084 315.583489,16.7487354 C312.728859,16.8759505 309.861009,16.7594744 306.998943,16.6892582 C305.987636,16.6644761 305.464631,16.9048631 305.496854,18.0721031 C305.555517,20.1851957 304.262464,21.8067754 303.223891,23.4787455 C299.947883,28.749086 296.623954,33.990514 293.288457,39.2245073 C292.8646,39.8886694 292.263104,40.4404856 291.743404,41.0443444 C291.788847,41.2095588 291.833463,41.3747732 291.878906,41.5399877" id="Fill-14" fill="#2CC9F7"></path>
                <path d="M275,93.9738169 C271.174343,93.9738169 267.797159,93.9729876 264.41915,93.9738169 C259.2076,93.9754757 253.992747,94.0633909 248.785327,93.9074659 C247.760361,93.8767785 246.457061,93.151064 245.803759,92.3291404 C242.531467,88.2103992 239.210446,84.095805 236.37424,79.6776547 C235.126276,77.7327397 234.646417,75.1019207 234.416812,72.7240651 C233.933649,67.6996321 233.515734,62.5773314 235.312934,57.7088234 C236.317252,54.9892599 237.70397,52.3891283 239.123725,49.8512007 C240.511269,47.370501 242.131722,45.0191858 243.701795,42.6454771 C245.64766,39.704467 247.717413,36.844737 249.603813,33.8672338 C252.141862,29.8629481 254.681564,25.8487099 256.955319,21.6934756 C257.734161,20.2719044 257.84153,18.4248572 258.032317,16.7461757 C258.454362,13.042958 258.910269,9.34637532 258.725264,5.58924734 C258.550169,2.02536678 258.664971,2.01956107 262.29406,2.01956107 C265.31362,2.01956107 268.334833,2.0519072 271.353567,2.00048514 C272.275293,1.98472677 272.734504,2.35214569 272.745241,3.20807418 C272.778278,5.98403607 272.905469,8.76995061 272.727896,11.5343011 C272.541239,14.4346712 272.395877,17.4196388 271.579043,20.1732073 C270.867927,22.572627 269.318502,24.7423062 268.012724,26.9385258 C266.224609,29.9442282 264.348947,32.8976791 262.454288,35.8378598 C260.000483,39.6439217 257.4996,43.4201256 255.00202,47.1979883 C252.672928,50.7228876 250.305844,54.2428106 249.265186,58.4104857 C247.773576,64.3829092 248.025481,70.394314 249.191679,76.384984 C249.379163,77.3495624 249.831766,78.2726713 250.243074,79.1783631 C250.638689,80.0500499 251.193707,80.560953 252.347516,80.5261187 C255.952653,80.4182983 259.566049,80.4257627 263.17036,80.5418771 C263.873217,80.5642706 264.734651,81.1257663 265.216162,81.6988734 C267.223145,84.0883405 269.107893,86.5806516 271.045499,89.0290052 C272.265382,90.5700083 273.500131,92.0993999 275,93.9738169" id="Fill-16" fill="#2CC9F7"></path>
                <path d="M236.205261,93.975089 C234.006527,93.975089 232.035533,93.9717697 230.063711,93.9759188 C227.927916,93.9808979 225.792949,93.9925156 223.657154,93.9999841 C222.094438,94.0049631 221.236476,92.8390424 220.409984,91.829131 C217.772331,88.6052149 215.209211,85.3182313 212.677561,82.0105017 C210.415887,79.0554527 209.542191,75.5460728 209.268902,71.9462407 C208.875531,66.7746976 208.641165,61.5226603 210.588142,56.5925998 C211.682127,53.8250939 213.293704,51.2393224 214.862217,48.6900637 C217.079171,45.0869122 219.501505,41.6107257 221.784711,38.0474064 C224.964801,33.0816629 228.254207,28.1748377 231.17343,23.0564042 C232.346089,21.0008984 232.942356,18.4947912 233.295147,16.1181385 C233.778786,12.8676677 233.817709,9.54666069 233.967604,6.25303834 C234.011495,5.28295909 233.791208,4.30043229 233.677752,3.32454419 C233.569264,2.39761646 233.921227,1.99182625 234.898443,2.00012462 C238.761755,2.02999874 242.627553,1.96693114 246.489209,2.06236238 C246.995208,2.07480993 247.897062,2.79427846 247.916109,3.21583556 C248.119006,7.8836677 247.962486,12.5083483 247.35214,17.1877982 C246.841173,21.1129263 244.745957,24.0372713 243.010986,27.2238447 C241.348063,30.2776442 239.355538,33.1555183 237.430093,36.0591174 C235.187466,39.4448516 232.780039,42.7227071 230.59207,46.1416348 C228.219425,49.8476861 225.692743,53.519714 224.531679,57.8315461 C223.908083,60.1501102 223.543698,62.5740636 223.378896,64.972292 C223.109748,68.8907815 223.035215,72.905532 224.361081,76.6223712 C225.324217,79.3193409 226.881137,81.8752383 228.540746,84.2344644 C230.873641,87.552152 233.546076,90.6300168 236.205261,93.975089" id="Fill-18" fill="#2CC9F7"></path>
            </g>
            <path d="M271.943194,121.14 C271.943194,123.948 269.783194,126 266.831194,126 L261.215194,126 C258.263194,126 256.103194,123.948 256.103194,121.14 L256.103194,109.98 C256.103194,107.172 258.263194,105.12 261.215194,105.12 L266.831194,105.12 C269.783194,105.12 271.943194,107.172 271.943194,109.98 L271.943194,121.14 Z M268.343194,121.32 L268.343194,109.8 C268.343194,109.08 267.731194,108.468 267.083194,108.468 L260.963194,108.468 C260.315194,108.468 259.703194,109.08 259.703194,109.8 L259.703194,121.32 C259.703194,122.04 260.315194,122.652 260.963194,122.652 L267.083194,122.652 C267.731194,122.652 268.343194,122.04 268.343194,121.32 Z M266.039194,116.604 C266.039194,117.072 265.643194,117.432 265.139194,117.432 L263.015194,117.432 C262.511194,117.432 262.115194,117.072 262.115194,116.604 L262.115194,114.552 C262.115194,114.084 262.511194,113.724 263.015194,113.724 L265.139194,113.724 C265.643194,113.724 266.039194,114.084 266.039194,114.552 L266.039194,116.604 Z M293.543194,121.14 C293.543194,123.948 291.383194,126 288.431194,126 L282.815194,126 C279.863194,126 277.703194,123.948 277.703194,121.14 L277.703194,109.98 C277.703194,107.172 279.863194,105.12 282.815194,105.12 L288.431194,105.12 C291.383194,105.12 293.543194,107.172 293.543194,109.98 L293.543194,121.14 Z M289.943194,121.32 L289.943194,109.8 C289.943194,109.08 289.331194,108.468 288.683194,108.468 L282.563194,108.468 C281.915194,108.468 281.303194,109.08 281.303194,109.8 L281.303194,121.32 C281.303194,122.04 281.915194,122.652 282.563194,122.652 L288.683194,122.652 C289.331194,122.652 289.943194,122.04 289.943194,121.32 Z M287.639194,116.604 C287.639194,117.072 287.243194,117.432 286.739194,117.432 L284.615194,117.432 C284.111194,117.432 283.715194,117.072 283.715194,116.604 L283.715194,114.552 C283.715194,114.084 284.111194,113.724 284.615194,113.724 L286.739194,113.724 C287.243194,113.724 287.639194,114.084 287.639194,114.552 L287.639194,116.604 Z M315.071194,120.708 L312.623194,120.708 L312.623194,126 L308.951194,126 L308.951194,120.708 L299.303194,120.708 L299.303194,115.344 L309.527194,105.12 L312.623194,105.12 L312.623194,117.324 L315.071194,117.324 L315.071194,120.708 Z M308.951194,117.324 L308.951194,110.592 L302.903194,116.604 L302.903194,117.324 L308.951194,117.324 Z" id="004" fill="#F33F3F"></path>
        </g>
    </g>
</svg>