<?xml version="1.0" encoding="UTF-8"?>
<svg width="623px" height="195px" viewBox="0 0 623 195" version="1.1" xmlns="http://www.w3.org/2000/svg" xmlns:xlink="http://www.w3.org/1999/xlink">
    <!-- Generator: Sketch 47.1 (45422) - http://www.bohemiancoding.com/sketch -->
    <title>Full vertical Copy 18</title>
    <desc>Created with Sketch.</desc>
    <defs>
        <polygon id="path-1" points="0.193251192 178 607.112465 178 607.112465 0.123339823 0.193251192 0.123339823"></polygon>
        <polygon id="path-3" points="122.447986 0.471052632 0.646944755 0.471052632 0.646944755 177.733302 122.447986 177.733302 122.447986 0.471052632"></polygon>
        <polygon id="path-5" points="0 176.778302 0 0.351116813 122.458994 0.351116813 122.458994 176.778302"></polygon>
    </defs>
    <g id="Cover" stroke="none" stroke-width="1" fill="none" fill-rule="evenodd">
        <g id="Full-vertical-Copy-18">
            <g id="Page-1" transform="translate(5.000000, 5.000000)">
                <g id="Group-3" transform="translate(7.000000, 2.000000)">
                    <mask id="mask-2" fill="white">
                        <use xlink:href="#path-1"></use>
                    </mask>
                    <g id="Clip-2"></g>
                    <path d="M435.299402,158.250349 C432.145821,153.771995 429.187371,148.921888 427.358798,143.800844 C424.837821,136.745428 424.977875,129.126083 425.490883,121.686313 C425.804038,117.133924 426.496441,112.532703 427.681395,108.131535 C429.887643,99.946685 434.688829,92.976331 439.197317,85.9413929 C443.354883,79.4514814 447.927891,73.2293575 452.190891,66.8024549 C455.849612,61.2907558 459.635798,55.8278885 462.795674,50.0310743 C466.092457,43.9806496 470.073774,38.4311451 471.046286,30.9819239 C472.204488,22.0976761 472.501906,13.3189681 472.116364,4.45834867 C472.08017,3.65656106 470.366472,2.29241947 469.404976,2.26879115 C462.067077,2.08606549 454.722883,2.20735752 447.380263,2.14907434 C445.523364,2.13489735 444.856139,2.90518053 445.060712,4.66627788 C445.276302,6.51558761 445.693317,8.38222478 445.611488,10.2220832 C445.326658,16.4772867 445.252697,22.7797469 444.333689,28.9498885 C443.661743,33.4613221 442.530294,38.216915 440.302015,42.1203133 C434.754922,51.8347027 428.50441,61.1489858 422.461619,70.576685 C418.123084,77.3422602 413.520178,83.9392867 409.307534,90.7788973 C406.327053,95.617977 403.264743,100.526366 401.18596,105.779729 C397.486325,115.138119 397.931666,125.106119 398.679147,134.924473 C399.198449,141.757782 400.858643,148.419393 405.156263,154.028756 C409.966891,160.307588 414.837317,166.547039 419.849371,172.665198 C421.419867,174.583818 423.050162,176.797004 426.019627,176.787552 C430.078053,176.77495 434.13648,176.751322 438.193333,176.741871 C441.940178,176.733995 445.685449,176.740296 449.863472,176.740296 C444.810503,170.390579 439.730782,164.548083 435.299402,158.250349 L435.299402,158.250349 Z M516.834588,167.419712 C513.144395,162.771234 509.55334,158.037694 505.729387,153.497906 C504.811953,152.409428 503.172216,151.343004 501.829898,151.300473 C494.962519,151.079942 488.079402,151.065765 481.212022,151.272119 C479.010495,151.336703 477.954581,150.367942 477.200805,148.710809 C476.418705,146.990667 475.554774,145.237446 475.197557,143.407039 C472.973999,132.029216 472.495612,120.610437 475.336038,109.268844 C477.318829,101.351782 481.828891,94.6665434 486.268139,87.9718531 C491.025263,80.7982956 495.790255,73.6247381 500.46555,66.3960478 C504.075488,60.8134637 507.650805,55.2025257 511.057743,49.4939239 C513.545674,45.3243133 516.497829,41.2019593 517.854309,36.6448442 C519.407495,31.416685 519.687604,25.7458885 520.041674,20.2373398 C520.378433,14.9871274 520.137666,9.69753451 520.073147,4.42526903 C520.054263,2.79964071 519.179317,2.10024248 517.423131,2.13017168 C511.669891,2.22941062 505.91665,2.16797699 500.16341,2.16797699 C493.245674,2.16640177 493.030084,2.17742832 493.36055,8.94615398 C493.713046,16.0819062 492.844395,23.1042425 492.041836,30.1360301 C491.676751,33.3242779 491.472178,36.8322956 489.989805,39.5322248 C485.657565,47.4256584 480.818612,55.0497292 475.984379,62.6533221 C472.38703,68.3083664 468.44348,73.7413044 464.73755,79.3254637 C461.746053,83.8337469 458.658565,88.3010743 456.014844,93.0109858 C453.308178,97.8311628 450.669178,102.769481 448.755627,107.936207 C445.329805,117.181181 446.127643,126.909747 447.04665,136.454012 C447.48255,140.968596 448.396836,145.965198 450.776185,149.659092 C456.180077,158.051871 462.507697,165.864968 468.742472,173.687517 C469.988798,175.250136 472.46886,176.628455 474.421751,176.686738 C484.345147,176.98288 494.279557,176.815906 504.212395,176.812756 C510.647022,176.811181 517.08165,176.812756 524.370767,176.812756 C521.511457,173.251181 519.160433,170.346473 516.834588,167.419712 L516.834588,167.419712 Z M555.201588,77.8022248 C556.189836,76.6507381 557.337022,75.5984903 558.142728,74.3304372 C564.4971,64.3514106 570.826294,54.3550566 577.067364,44.3051451 C579.047007,41.1184726 581.506612,38.0263133 581.396457,33.9968973 C581.336658,31.7711097 582.332774,31.3127204 584.255767,31.359977 C589.706867,31.4938708 595.170557,31.7144018 600.609069,31.4718177 C602.297588,31.3962071 605.256038,32.3460655 605.685643,29.6996938 C606.507084,24.6700124 606.858007,19.5458177 607.094053,14.4468265 C607.23096,11.4932867 606.596782,8.5098177 606.62196,5.54367611 C606.643991,3.05325133 605.534573,1.63870265 603.052937,1.73164071 C602.532061,1.75054336 602.008038,1.73636637 601.484015,1.72533982 C596.320891,1.62767611 591.157767,1.46700354 585.994643,1.44652566 C580.474302,1.42289735 574.952387,1.4937823 569.432046,1.59932212 C565.109247,1.68280885 560.789596,1.88286195 556.502991,2.03093274 C556.502991,3.89599469 556.366084,5.13569381 556.523449,6.33758761 C557.875209,16.6080301 556.875945,26.839092 554.1441,36.6275168 C552.483906,42.5787027 548.741782,48.0588973 545.372612,53.3973221 C538.960015,63.5543487 532.076898,73.4152336 525.525821,83.4871982 C521.874968,89.1028619 518.172185,94.727977 515.109875,100.668136 C513.03896,104.68495 511.350441,109.160154 510.73672,113.602278 C509.879084,119.830703 509.915278,126.224526 510.056906,132.538012 C510.182798,138.133198 511.057743,143.685853 513.737658,148.778543 C518.848852,158.488207 525.97903,166.685658 533.305914,174.700384 C534.448379,175.949535 536.717573,176.661535 538.500511,176.733995 C544.617263,176.979729 550.749751,176.828508 556.877519,176.828508 C565.510526,176.826933 574.143534,176.830083 582.778116,176.819057 C583.608999,176.817481 584.438309,176.726119 584.792379,176.704065 C579.021829,169.407641 573.130108,162.131694 567.463418,154.684048 C565.702511,152.371623 564.100542,150.788526 560.926503,151.617092 C559.451999,152.003021 557.796526,151.739959 556.224457,151.705304 C552.358015,151.620242 548.493147,151.508402 544.628278,151.382384 C543.005852,151.328827 541.617898,151.270543 540.538379,149.448012 C538.420255,145.870685 537.907247,142.011393 537.235302,138.03711 C535.422464,127.316154 535.340635,116.768473 539.181898,106.449198 C539.63196,105.241004 540.662697,103.401145 541.529774,103.338136 C546.637821,102.97426 551.77734,103.00734 556.904271,102.986862 C565.003813,102.955358 563.97465,104.412437 566.623092,97.9556053 C566.917364,97.2388796 567.433519,96.6135168 567.852108,95.9487735 C570.922286,91.0907912 573.960991,86.2139062 577.081526,81.3890035 C577.910836,80.1067735 578.431712,78.800915 576.463084,78.586685 C574.121503,78.3299239 571.715402,78.7174283 569.336053,78.736331 C564.709542,78.7725611 560.084604,78.7473575 555.458092,78.7473575 C555.373116,78.4323133 555.286565,78.117269 555.201588,77.8022248 L555.201588,77.8022248 Z M402.811534,30.0903487 C401.755619,33.9055345 401.412565,37.4277292 399.856232,40.2899062 C396.513813,46.4316938 392.571836,52.2505611 388.828139,58.1702425 C385.17886,63.9355522 381.551612,69.7166142 377.71979,75.3590566 C376.991193,76.4317823 375.384503,77.4572513 374.131883,77.5202602 C370.314224,77.7171628 366.471387,77.4021186 362.636418,77.3501363 C361.413697,77.3343841 360.187829,77.518685 358.448953,77.6494283 C367.854619,61.9822779 380.27224,48.1833398 385.026216,30.0903487 L402.811534,30.0903487 Z M359.220038,14.3129327 C359.139782,18.5361009 358.774697,22.7970743 358.041379,26.9540832 C357.204201,31.7049504 356.788759,36.9047558 354.49596,40.9483487 C348.311542,51.858331 341.247457,62.2705434 334.488658,72.8528796 C330.502619,79.0954814 326.662929,85.4499239 322.332263,91.4467912 C318.376123,96.9222602 315.672604,102.914402 313.582805,109.227888 C311.629914,115.127092 311.577984,121.279906 311.681844,127.426419 C311.81403,135.215888 312.268813,142.962827 316.138402,149.983588 C321.266906,159.289995 328.18779,167.246437 335.395077,174.953995 C336.096922,175.7038 337.448681,176.166915 338.518759,176.199995 C346.076968,176.436278 353.639898,176.538667 361.201255,176.641057 C361.698526,176.647358 362.29179,176.396897 362.655302,176.06295 C362.806371,175.924331 362.587635,175.149322 362.327984,174.837428 C358.082294,169.740012 353.550201,164.856827 349.611371,159.534154 C346.511294,155.345641 343.670867,150.827906 341.555891,146.081765 C338.907449,140.147906 338.890139,133.694225 338.86496,127.161782 C338.831914,119.170685 338.978263,111.411145 342.630689,104.139924 C343.031968,103.342862 344.15555,102.405605 344.959681,102.391428 C352.138643,102.255959 359.338061,102.622986 366.496565,102.202402 C371.033379,101.936189 375.748015,101.211588 379.960658,99.590685 C388.453612,96.3236761 394.738743,89.9471805 399.941209,82.6822602 C404.7361,75.9891451 409.013263,68.9242779 413.545356,62.0405611 C415.562767,58.9751805 418.045976,56.1413575 419.613325,52.8648973 C422.727565,46.3466319 427.966224,40.8884903 429.012697,33.3148265 C429.805813,27.5731451 431.149705,21.8865965 429.555604,16.108685 C428.309278,11.5956761 425.413774,8.30503894 421.613426,5.67126903 C416.233139,1.94272035 409.963743,1.8198531 403.908364,1.6717823 C390.516658,1.34413628 377.112364,1.54891504 363.714364,1.5977469 C362.099805,1.60404779 360.488395,1.99312743 358.516619,2.25146372 C358.787286,6.45415398 359.297147,10.3890566 359.220038,14.3129327 L359.220038,14.3129327 Z M105.024697,51.7370389 C110.022588,52.0536584 113.799333,51.3322071 115.753798,45.998508 C116.926162,42.8039593 119.418813,40.0567735 120.369294,36.8275699 C121.621914,32.5713221 121.881565,28.0299593 122.680976,23.6319416 C123.461503,19.3410389 122.589705,15.354154 120.682449,11.5499947 C117.190534,4.58436637 110.924286,1.31735752 103.718573,1.13305664 C90.1805186,0.786507965 76.6125651,1.20551681 63.0713636,1.66075575 C58.5565806,1.81355221 54.852224,4.66470265 52.3894721,8.27195929 C48.7228829,13.6371628 47.8479372,20.0845434 46.6267899,26.3539239 C45.7187977,31.0150035 45.5834643,36.2431628 43.281224,40.1402602 C34.8402008,54.4227912 25.5651465,68.2075522 16.7574643,82.2758531 C12.2725806,89.4431097 7.78140233,96.643446 3.91653411,104.15095 C1.09184419,109.634296 0.371115504,115.861145 0.243650388,122.058065 C0.0721232558,130.365782 0.180704651,138.637269 3.17377442,146.571658 C4.73325504,150.701888 7.37382868,154.042933 10.0694798,157.516296 C13.917038,162.471942 18.1690225,166.712437 23.4753481,170.0078 C32.8212163,175.81249 43.0860922,178.024101 53.930069,178.000473 C61.2742628,177.983145 68.6216039,177.964242 75.9610767,177.732685 C80.7386581,177.583039 85.8293946,178.632136 89.9255884,175.001251 C90.558193,174.442048 91.2395806,173.589853 91.3198364,172.813269 C91.8973636,167.207057 88.9420612,162.74603 85.8529992,158.661481 C81.4877124,152.889871 78.1783403,146.771712 77.0579062,139.601304 C76.396976,135.374986 75.9799605,131.110862 75.4386271,126.75695 C67.3815729,126.75695 59.3764488,126.709694 51.3728984,126.832561 C50.6049605,126.843588 49.2799527,127.840703 49.1981233,128.502296 C48.9148674,130.791092 48.6851155,133.210632 49.1304566,135.44272 C50.2587589,141.145021 50.5042473,147.159216 54.896286,152.387375 C48.718162,152.387375 43.2607667,152.392101 37.804945,152.3858 C32.209069,152.379499 31.736976,152.111712 30.0075419,146.554331 C27.9334798,139.886419 27.1419372,133.149198 27.3229062,126.048101 C27.4897124,119.567641 27.7713946,113.249428 29.7101233,107.090313 C32.3176504,98.8093752 37.4587434,91.8626496 42.0427667,84.6607381 C45.9107822,78.5835345 50.3815031,72.890685 54.265255,66.8213575 C58.9200922,59.5501363 63.0682163,51.9544195 67.7545264,44.7036761 C70.6390147,40.2426496 72.5446969,35.6083487 72.8861775,30.3077292 C73.0136426,28.3087735 73.8445264,27.1053044 76.2097124,27.1620124 C81.7631,27.2927558 87.3212085,27.195092 92.8777434,27.2139947 C93.5260845,27.2155699 94.1759992,27.3762425 94.821193,27.4628796 C94.2452395,32.3539416 93.8612705,38.3775876 90.2765109,43.0859239 C88.4447899,45.4912867 87.3023248,48.4227735 85.5650225,51.6441009 C92.659007,51.6441009 98.8638829,51.3463841 105.024697,51.7370389 L105.024697,51.7370389 Z M185.212844,27.6519062 C183.525898,33.1147735 184.034185,38.3886142 180.806643,43.1174283 C176.118759,49.9885434 172.315263,57.4566673 167.893325,64.5215345 C165.163053,68.8864726 161.900891,72.9158885 159.027418,77.1973398 C152.358317,87.1369858 145.091232,96.7348088 141.308193,108.339464 C139.553581,113.717269 139.235705,119.158083 139.273472,124.79265 C139.31596,131.676366 139.347433,138.493924 141.413627,145.111428 C142.124914,147.389198 143.273674,149.529924 144.405123,152.158968 C143.116309,152.251906 142.181565,152.376349 141.246821,152.377924 C136.088418,152.398402 130.926867,152.248756 125.77948,152.451959 C123.492976,152.541747 122.5661,151.554083 121.665976,149.692172 C118.676053,143.506278 117.631154,136.948632 117.544604,130.17203 C117.442317,122.028136 117.17165,113.877942 120.425945,106.116827 C122.822604,100.408225 125.272767,94.8114637 129.291852,89.9330035 C131.727852,86.9763133 133.235402,83.2729681 135.359821,80.0374637 C138.324565,75.5276053 141.644953,71.246154 144.508984,66.6764372 C148.959247,59.5753398 152.704519,51.9874991 157.604844,45.2266496 C161.444534,39.9307558 162.528774,34.1055876 163.721596,27.6519062 L185.212844,27.6519062 Z M174.966852,0.123339823 C168.566844,0.408454867 162.113333,0.284012389 155.787286,1.12045487 C151.404689,1.70013628 147.006356,2.88470265 143.615154,6.51401239 C139.421395,11.0018177 138.68965,16.6222071 137.520433,22.1559593 C136.299286,27.9370212 135.921612,34.0284018 133.816077,39.4566142 C131.699526,44.9116053 128.028216,49.7916407 124.832147,54.7913929 C117.683084,65.9723133 110.348333,77.035092 103.205565,88.2191628 C100.286457,92.7888796 97.4507512,97.4389327 94.9675419,102.254384 C91.2789217,109.413765 90.2466116,117.200083 90.6054023,125.172278 C90.8335806,130.24134 90.8209915,135.37026 91.6597434,140.346384 C92.9454101,147.96888 96.8606349,154.272915 102.056805,160.088632 C106.271022,164.806419 111.102108,168.401074 116.457216,171.479057 C125.370333,176.604827 135.041945,178.128065 145.196666,177.6618 C150.271666,177.428667 155.420627,178.143818 160.442123,177.576738 C166.225263,176.923021 172.186224,179.489057 177.838751,176.370119 C179.395084,175.511623 182.56755,172.398986 181.947534,171.089977 C179.723976,166.395818 177.330464,161.78357 174.984162,157.147694 C172.713395,152.664614 169.96424,148.359535 168.245821,143.673251 C165.663472,136.630437 166.601364,129.107181 166.300798,121.749322 C165.927844,112.669747 169.270263,104.6818 173.314526,97.0088973 C176.597147,90.7788973 180.721666,84.9899593 184.542472,79.0498 C190.752069,69.3999947 197.108015,59.8447027 203.216898,50.1318885 C205.838588,45.9670035 208.328092,41.6493221 210.240069,37.1315876 C211.39355,34.4096053 211.218875,31.1473221 211.821581,28.1638531 C213.185929,21.4329327 213.292937,15.2533398 208.834805,9.1178531 C204.908565,3.71169381 199.521984,1.67335752 193.803364,0.854242478 C187.644123,-0.0294566372 181.261426,0.654189381 174.976294,0.654189381 C174.973147,0.476189381 174.969999,0.299764602 174.966852,0.123339823 L174.966852,0.123339823 Z M247.159317,93.2740478 C250.663821,89.5581009 254.122689,85.7980478 257.685418,82.1388088 C262.924077,76.7531274 268.331116,71.5296938 273.489519,66.0668265 C277.974402,61.3128088 282.21065,56.3209327 286.563348,51.4408973 C290.240953,47.3185434 294.159325,43.3836407 297.528495,39.0234283 C299.600984,36.3455522 301.088077,33.1289504 302.391053,29.9690566 C303.780581,26.5996584 304.686999,23.0270566 305.728751,19.5206142 C307.151325,14.7272159 308.632123,9.94484425 309.83124,5.09473805 C310.3411,3.03749912 311.057108,2.07661416 313.33417,2.12072035 C320.179519,2.24831327 327.028015,2.20263186 333.876511,2.14119823 C335.906511,2.12229558 336.88217,2.39953451 336.775162,4.96399469 C336.499774,11.5027381 337.190604,18.1123664 336.543836,24.5991274 C335.856154,31.4970212 335.009534,38.4626496 330.625364,44.4988973 C327.876209,48.2825788 326.330891,52.9200301 323.844534,56.9258177 C321.133147,61.2970566 317.888294,65.3311982 315.005379,69.6000478 C310.769131,75.8710035 306.871216,82.3798177 302.419379,88.4901009 C297.794441,94.835092 294.267906,101.712508 291.811449,109.070366 C290.609185,112.672897 290.267705,116.68026 290.184302,120.519074 C290.033232,127.390189 289.779875,134.243977 291.2591,141.119818 C292.631317,147.499464 295.633829,152.910349 299.421588,157.914827 C303.686162,163.546242 308.438565,168.807481 312.947053,174.257747 C313.427015,174.837428 313.694534,175.59511 314.275209,176.664685 C309.483464,176.664685 304.987565,176.675712 300.494813,176.661535 C297.323922,176.652083 294.130999,176.822207 290.993154,176.489835 C289.422658,176.322862 287.504387,175.59826 286.516139,174.456225 C282.043844,169.284773 277.549519,164.083393 273.646883,158.485057 C270.499596,153.968897 267.317689,149.134543 265.745619,143.956791 C264.131061,138.637269 264.419038,132.731765 263.945371,127.07672 C263.830495,125.701552 264.145224,124.285428 264.000449,122.916561 C263.363123,116.919694 264.894278,111.223694 266.666201,105.655287 C267.717395,102.348897 269.70648,99.3418 271.044077,96.0763664 C264.815596,102.54265 260.248883,110.097411 256.461123,118.116862 C255.47917,120.196154 255.422519,122.69603 254.785193,124.958048 C253.664759,128.935481 252.33503,132.854632 251.257084,136.841517 C249.958829,141.63649 250.03279,141.655393 244.94048,141.656968 C240.771898,141.658543 236.603317,141.656968 232.436309,141.656968 C228.082038,141.656968 225.457201,139.648561 224.15265,135.515181 C222.331945,129.740419 219.881782,124.099552 218.715712,118.201924 C217.791984,113.525092 218.28296,108.544242 218.36479,103.702012 C218.405705,101.309251 218.942317,98.9259416 218.720433,96.3835345 C217.568526,98.929092 216.270271,101.421092 215.289891,104.032809 C211.835743,113.233676 211.033185,122.700756 211.933309,132.498632 C212.468348,138.339552 212.998666,144.037127 215.765131,149.301517 C220.31296,157.955782 226.654743,165.282136 232.979216,172.624242 C233.402526,173.117287 233.880914,173.566225 234.313666,174.052968 C234.749565,174.539712 235.160286,175.046933 235.895178,175.91488 C235.405774,176.209446 234.980891,176.686738 234.567022,176.678862 C231.081402,176.614278 227.597356,176.41895 224.111736,176.344915 C220.558449,176.269304 216.954805,175.911729 213.462891,176.373269 C210.194433,176.80488 208.584596,174.878384 206.924402,172.953464 C203.081565,168.495588 199.353604,163.933747 195.683867,159.332526 C188.262565,150.027694 184.484247,139.525694 185.378077,127.494154 C185.562193,125.022632 185.537015,122.521181 185.393813,120.046508 C185.008271,113.419552 187.242844,107.345499 190.07855,101.699906 C196.037937,89.8353398 203.762953,79.0324726 211.37624,68.1681717 C215.791883,61.8688619 219.535581,55.0969858 223.554666,48.5220124 C225.117294,45.9670035 226.997798,43.5159593 228.037976,40.7545965 C229.449534,37.0008442 230.639209,33.0517646 231.123891,29.0869327 C231.912286,22.6537292 232.096402,16.1433398 232.434736,9.6597292 C232.52286,7.9758177 232.324581,6.25882655 232.101123,4.57806549 C231.858782,2.75553451 232.585805,2.13647257 234.34986,2.14749912 C241.59334,2.19475575 248.838395,2.1538 256.083449,2.18057876 C257.405309,2.18530442 258.45965,1.91279115 258.481681,4.28822478 C258.503712,6.62112743 260.4031,8.87369381 261.048294,11.2774814 C262.259999,15.7967912 263.223069,20.3854106 264.157813,24.9740301 C264.505588,26.6799947 264.233348,28.5277292 264.670821,30.1974637 C266.183092,35.9580478 264.664526,41.370508 263.053116,46.7861186 C261.860294,50.7934814 260.72255,54.8244726 259.333022,58.7641009 C257.468255,64.041092 255.280891,69.2046673 253.422418,74.4863841 C251.608007,79.640508 250.076852,84.8938708 248.330108,90.0731982 C247.982333,91.1002425 247.219116,91.9855168 246.647883,92.9369504 C246.81941,93.0487912 246.989364,93.1622071 247.159317,93.2740478 L247.159317,93.2740478 Z" id="Fill-1" fill="#333333" mask="url(#mask-2)"></path>
                </g>
                <path d="M247.080718,93.8527773 C250.596462,90.1507075 254.064866,86.4031077 257.635839,82.7544181 C262.890519,77.386574 268.312465,72.1804404 273.481934,66.7372361 C277.982339,61.9989636 282.228688,57.0236206 286.594964,52.1581778 C290.282708,48.051047 294.210305,44.1276067 297.590343,39.7834053 C299.666967,37.1143983 301.159738,33.9068799 302.466307,30.7574516 C303.858087,27.4007828 304.767005,23.8384435 305.811629,20.3436143 C307.239702,15.5676618 308.721427,10.8011292 309.925428,5.96551655 C310.435116,3.91509117 311.154676,2.95895866 313.439594,3.00134877 C320.302237,3.1285191 327.171193,3.08298898 334.036992,3.02175882 C336.072589,3.00448878 337.052516,3.2792395 336.943635,5.83520621 C336.667488,12.3538633 337.3618,18.9416006 336.71325,25.4053076 C336.022093,32.2819256 335.173139,39.2244839 330.776881,45.2391696 C328.020147,49.0103195 326.472147,53.6324117 323.977357,57.6249322 C321.260072,61.9816936 318.003117,66.0024742 315.112254,70.2571853 C310.865905,76.5073717 306.957244,82.9961988 302.493133,89.0846747 C297.857022,95.4102214 294.320764,102.263289 291.857534,109.596779 C290.650378,113.188948 290.309534,117.181469 290.224323,121.007569 C290.072837,127.855927 289.820359,134.688584 291.302084,141.541652 C292.678085,147.898599 295.688874,153.293133 299.488655,158.279466 C303.763408,163.893801 308.528914,169.137615 313.049832,174.568259 C313.531116,175.146021 313.799373,175.901193 314.381649,176.968795 C309.575116,176.968795 305.069977,176.979785 300.563261,176.965655 C297.383627,176.954665 294.18348,177.125796 291.035406,176.792955 C289.46058,176.626535 287.538597,175.905903 286.547625,174.76765 C282.063,169.613326 277.554706,164.427603 273.642888,158.847808 C270.486924,154.346606 267.296245,149.528263 265.719841,144.36766 C264.099253,139.065756 264.389602,133.17981 263.914629,127.543496 C263.799437,126.172882 264.115033,124.763018 263.968281,123.398685 C263.329198,117.420109 264.866153,111.742974 266.641382,106.19301 C267.695474,102.897571 269.691621,99.9004331 271.032906,96.6458146 C264.787253,103.092252 260.206372,110.620421 256.408169,118.613312 C255.425086,120.685718 255.366701,123.177314 254.729196,125.43184 C253.605673,129.396101 252.272278,133.302271 251.189783,137.277521 C249.887948,142.055044 249.962113,142.075454 244.855763,142.077024 C240.675689,142.077024 236.497193,142.077024 232.317118,142.077024 C227.95242,142.077024 225.320346,140.073699 224.012199,135.954008 C222.186474,130.198373 219.729556,124.577758 218.560272,118.698092 C217.633996,114.03675 218.124749,109.072397 218.206804,104.246205 C218.247831,101.862938 218.785923,99.4859521 218.565006,96.9519654 C217.408345,99.4906621 216.108088,101.974409 215.125005,104.577475 C211.661335,113.746299 210.856564,123.182024 211.757591,132.94745 C212.295683,138.770595 212.827463,144.44773 215.601556,149.694684 C220.158767,158.320286 226.521191,165.622376 232.859944,172.940165 C233.287577,173.433146 233.765706,173.879027 234.201229,174.364159 C234.636752,174.84929 235.050183,175.354831 235.787101,176.219903 C235.29477,176.515064 234.870293,176.989206 234.453706,176.981355 C230.958476,176.916985 227.464824,176.722305 223.969594,176.648515 C220.408089,176.573154 216.792932,176.218333 213.292968,176.676775 C210.015499,177.108526 208.399646,175.186841 206.736453,173.268296 C202.881443,168.826754 199.144782,164.278452 195.464928,159.69247 C188.021587,150.418456 184.23443,139.951238 185.129146,127.959547 C185.312192,125.49778 185.2901,123.003044 185.144926,120.536567 C184.759898,113.93313 187.000632,107.877624 189.844156,102.252299 C195.819974,90.4254583 203.564709,79.65837 211.200564,68.8300516 C215.626803,62.5516051 219.380822,55.8021574 223.412566,49.2489602 C224.977924,46.7024135 226.863613,44.2594871 227.908237,41.5072699 C229.323687,37.76752 230.515063,33.8299497 231.00266,29.8798193 C231.793228,23.4679225 231.976274,16.9790955 232.317118,10.5169585 C232.403908,8.83705409 232.205082,7.1273196 231.981008,5.4521252 C231.736421,3.63406043 232.467027,3.01861882 234.235945,3.02803884 C241.500974,3.07513896 248.764425,3.03431886 256.031032,3.06100893 C257.356536,3.06571894 258.412206,2.79410823 258.434298,5.16167444 C258.457968,7.48685055 260.362592,9.73195644 261.007987,12.1293527 C262.223033,16.6321246 263.190336,21.2071166 264.127657,25.7789686 C264.474813,27.479283 264.2034,29.3208979 264.642079,30.9866722 C266.15852,36.7281773 264.635767,42.1211415 263.019914,47.5203856 C261.822225,51.5144761 260.682922,55.5305467 259.287986,59.457127 C257.419656,64.7182108 255.223105,69.8646843 253.361086,75.1273381 C251.543251,80.2659616 250.006296,85.5019253 248.254736,90.6625289 C247.906002,91.6861716 247.140681,92.5700839 246.569452,93.5167964 C246.739874,93.6282667 246.910296,93.741307 247.080718,93.8527773" id="Fill-4" fill="#2CC9F7"></path>
                <g id="Group-8" transform="translate(90.000000, 0.000000)">
                    <mask id="mask-4" fill="white">
                        <use xlink:href="#path-3"></use>
                    </mask>
                    <g id="Clip-7"></g>
                    <path d="M73.6425013,27.9126947 C72.4527291,34.3457035 71.3712608,40.1522123 67.5413873,45.4311421 C62.6535899,52.1703351 58.9178937,59.7338702 54.4790076,66.8122211 C51.6222987,71.3673 48.3104,75.6350368 45.3548051,80.1304491 C43.2342481,83.3555895 41.7305519,87.0470719 39.3007797,89.9942912 C35.2919696,94.8571246 32.8480709,100.435958 30.4575392,106.127844 C27.2115646,113.862528 27.4815392,121.988186 27.5835646,130.104423 C27.6698937,136.859318 28.7121215,143.395958 31.6928304,149.563607 C32.5922228,151.417984 33.5167291,152.402484 35.7973873,152.312984 C40.9316152,152.110432 46.0799696,152.259598 51.2236152,152.240756 C52.1575392,152.236046 53.0898937,152.115142 54.3769823,152.022502 C53.2468557,149.400309 52.1010329,147.26644 51.3915646,144.995967 C49.3290835,138.40123 49.2992608,131.605511 49.2553114,124.742274 C49.2192101,119.124186 49.537843,113.70394 51.2864,108.341791 C55.0597671,96.7743088 62.3067038,87.2072298 68.9618937,77.2994228 C71.8264506,73.031686 75.0802734,69.0151772 77.8035646,64.6626509 C82.2141975,57.6219842 86.0079696,50.1777825 90.6838684,43.3286772 C93.9015899,38.6150105 93.3961722,33.356493 95.0788051,27.9126947 L73.6425013,27.9126947 Z M84.8684253,1.00145789 C91.1374886,1.00145789 97.5038684,0.320001754 103.647362,1.20087018 C109.351362,2.0173614 114.724172,4.04916842 118.640375,9.43801053 C123.087109,15.5538439 122.980375,21.7136421 121.619514,28.4230018 C121.018349,31.396914 121.192577,34.6487474 120.043615,37.3620105 C118.134957,41.8652737 115.651818,46.1675544 113.03683,50.3206684 C106.943565,60.0023702 100.603868,69.5270544 94.4101468,79.1459491 C90.5991089,85.0670807 86.4851342,90.8390456 83.2109063,97.0475193 C79.1769823,104.694274 75.8431089,112.658204 76.2151089,121.708695 C76.5149063,129.042984 75.5794127,136.542142 78.1551595,143.562396 C79.8691848,148.232098 82.6113114,152.524958 84.8762734,156.993677 C87.2165772,161.613133 89.6039696,166.212177 91.821843,170.8913 C92.441843,172.197686 89.275919,175.297212 87.7219949,176.154528 C82.0854886,179.263475 76.1397671,176.70566 70.369843,177.357282 C65.3643241,177.922546 60.226957,177.209686 55.1649316,177.442072 C45.0361722,177.906844 35.3877165,176.388484 26.498957,171.280704 C21.1575392,168.211011 16.3388051,164.62787 12.135362,159.926765 C6.95247595,154.128107 3.04726076,147.844265 1.76488101,140.246186 C0.928273418,135.286002 0.939260759,130.17194 0.713235443,125.122256 C0.356931646,117.174028 1.38503291,109.412651 5.06422278,102.276204 C7.53951392,97.4761772 10.3695392,92.8425895 13.2811848,88.2859404 C20.4056911,77.1376947 27.7216911,66.1103526 34.8524759,54.9652474 C38.0403747,49.9830807 41.7022987,45.117107 43.813438,39.6795895 C45.9135899,34.2687649 46.2902987,28.1984667 47.5083241,22.4343526 C48.6745519,16.9183263 49.4044253,11.3159404 53.5874633,6.84251053 C56.9699949,3.22482632 61.3570835,2.04248421 65.7284759,1.46622982 C72.039919,0.632466667 78.475362,0.756510526 84.8590076,0.470738596 C84.8621468,0.648168421 84.8652861,0.825598246 84.8684253,1.00145789 L84.8684253,1.00145789 Z" id="Fill-6" fill="#2CC9F7" mask="url(#mask-4)"></path>
                </g>
                <g id="Group-11" transform="translate(0.000000, 1.000000)">
                    <mask id="mask-6" fill="white">
                        <use xlink:href="#path-5"></use>
                    </mask>
                    <g id="Clip-10"></g>
                    <path d="M85.1540962,50.8280368 C86.886957,47.6170281 88.0265013,44.6949316 89.8535392,42.2972737 C93.4291342,37.6040193 93.8121215,31.5996684 94.3866025,26.7227035 C93.7430582,26.637914 93.0963747,26.4793263 92.4481215,26.476186 C86.9057924,26.4573439 81.3618937,26.5562649 75.8227038,26.4243702 C73.4635646,26.3678439 72.6348051,27.5690281 72.5060962,29.5600105 C72.1686278,34.8436509 70.2646785,39.463107 67.3891342,43.9098439 C62.7148051,51.1373614 58.5757165,58.7103175 53.9343494,65.9582474 C50.0620962,72.0065632 45.6012354,77.6811772 41.7431089,83.738914 C37.1692354,90.9177561 32.0412861,97.8422298 29.4419949,106.096642 C27.5066532,112.236028 27.2272608,118.534002 27.060881,124.993704 C26.8803747,132.073625 27.6698937,138.787695 29.7386532,145.434247 C31.4636658,150.973826 31.9345519,151.240756 37.5161215,151.247037 C42.9579949,151.253318 48.401438,151.248607 54.5637671,151.248607 C50.182957,146.038765 49.9380962,140.042265 48.8111089,134.35823 C48.3684759,132.133291 48.5976405,129.721502 48.8801722,127.440037 C48.9617924,126.780563 50.2834127,125.786642 51.0493873,125.775651 C59.0309063,125.653177 67.0171342,125.700282 75.0535899,125.700282 C75.5919696,130.040247 76.0094886,134.290712 76.6687291,138.503493 C77.7862987,145.650932 81.0872101,151.749493 85.4413367,157.502616 C88.5225013,161.574081 91.4702481,166.020818 90.8941975,171.609072 C90.8125772,172.383168 90.1345013,173.232633 89.5035139,173.790046 C85.4177924,177.4093 80.3400709,176.363563 75.5747038,176.51273 C68.2539949,176.743546 60.925438,176.762388 53.6000203,176.778089 C42.7837671,176.803212 32.5451342,174.600256 23.2231595,168.812589 C17.9304,165.527782 13.6877165,161.30087 9.85156456,156.361098 C7.16280506,152.898861 4.52898228,149.570089 2.97505823,145.451519 C-0.0119291139,137.544116 -0.120232911,129.297554 0.0492860759,121.016449 C0.177994937,114.839379 0.896881013,108.632475 3.71434937,103.166695 C7.56933671,95.6832386 12.0490329,88.5059667 16.5224506,81.3616684 C25.3076152,67.3384316 34.5605266,53.5978263 42.9784,39.3610456 C45.2747544,35.4764316 45.4097418,30.2634491 46.3154127,25.6188702 C47.533438,19.3695719 48.4061468,12.944414 52.0617924,7.59325614 C54.5182481,3.99912456 58.2147038,1.15710702 62.7179443,1.00637018 C76.2260962,0.549449123 89.759362,0.133352632 103.261235,0.478791228 C110.448527,0.660931579 116.698754,3.91904561 120.180172,10.8607912 C122.084122,14.6527649 122.952122,18.6284491 122.175159,22.905607 C121.376223,27.2895368 121.117235,31.8163526 119.867818,36.0589667 C118.921337,39.2778263 116.435058,42.0162123 115.267261,45.2020982 C113.316223,50.5155719 109.549134,51.2378526 104.56402,50.9206772 C98.418957,50.5312737 92.2283747,50.8280368 85.1540962,50.8280368" id="Fill-9" fill="#2CC9F7" mask="url(#mask-6)"></path>
                </g>
                <path d="M384.591859,30.575917 C379.82379,48.6532609 367.36936,62.4402652 357.935812,78.0938663 C359.678265,77.963236 360.909345,77.7790945 362.13569,77.7948331 C365.982027,77.8467704 369.834677,78.1615422 373.665231,77.9663837 C374.921565,77.9018555 376.534595,76.8772733 377.263774,75.8054753 C381.106954,70.1679126 384.746533,64.3918503 388.403473,58.6315266 C392.159846,52.7169647 396.113508,46.9047036 399.465834,40.7666537 C401.025203,37.9085259 401.370852,34.3893773 402.431475,30.575917 L384.591859,30.575917 Z M358.00368,2.76110794 C359.9813,2.50299507 361.599066,2.11425191 363.216831,2.10795648 C376.656125,2.05916685 390.098576,1.85456519 403.529978,2.18192785 C409.604886,2.32987059 415.891287,2.45263159 421.287523,6.1779557 C425.099137,8.80944786 428.003224,12.0972392 429.253244,16.6063451 C430.853648,22.3792597 429.502617,28.0608904 428.708728,33.7991802 C427.659153,41.3647201 422.404965,46.8197152 419.281493,53.3307696 C417.709498,56.6059701 415.218928,59.4341946 413.195537,62.498498 C408.650009,69.3762616 404.35859,76.4350189 399.552641,83.1223456 C394.333176,90.3825569 388.030992,96.751964 379.511285,100.016147 C375.286154,101.634074 370.557543,102.361197 366.00728,102.625606 C358.829135,103.045826 351.606797,102.679117 344.406555,102.814469 C343.598461,102.830207 342.473128,103.763506 342.072237,104.561452 C338.407406,111.826385 338.260623,119.579214 338.293768,127.563401 C338.320599,134.090194 338.336382,140.538294 340.991096,146.46702 C343.115499,151.209057 345.962767,155.722885 349.072034,159.90935 C353.022539,165.227419 357.568067,170.104808 361.826342,175.197815 C362.086763,175.509439 362.304569,176.283778 362.15463,176.422278 C361.791619,176.755936 361.195019,177.006179 360.696273,176.999884 C353.112503,176.897583 345.527154,176.796856 337.944961,176.559203 C336.874869,176.524578 335.517524,176.063438 334.813598,175.312707 C327.584947,167.613389 320.641969,159.665401 315.499841,150.365469 C311.62036,143.35078 311.164229,135.610541 311.031651,127.827809 C310.925904,121.686611 310.977989,115.537544 312.938247,109.645016 C315.032662,103.33699 317.744196,97.3500304 321.710484,91.8792967 C326.055566,85.8876157 329.908216,79.5386688 333.906071,73.3014658 C340.684904,62.7298552 347.768351,52.3250738 353.972681,41.4245267 C356.270697,37.3844308 356.687371,32.1875486 357.528609,27.4423639 C358.262522,23.2889501 358.62869,19.0316617 358.710762,14.810572 C358.78652,10.8916632 358.275149,6.9601636 358.00368,2.76110794 L358.00368,2.76110794 Z" id="Fill-12" fill="#2CC9F7"></path>
                <path d="M555.416743,79.114107 C560.035264,79.114107 564.655356,79.1408197 569.272306,79.104679 C571.649925,79.0842517 574.051116,78.6992751 576.392591,78.953831 C578.356916,79.1691036 577.836763,80.4717387 577.008603,81.7492324 C573.89397,86.5622252 570.857909,91.427072 567.793562,96.2746342 C567.373982,96.9361654 566.858543,97.5615559 566.566252,98.274941 C563.918342,104.715835 564.947648,103.263923 556.860915,103.29535 C551.739527,103.314206 546.60871,103.281208 541.506179,103.645757 C540.640305,103.707039 539.609427,105.543927 539.161561,106.747568 C535.327199,117.041371 535.408915,127.563016 537.219237,138.259079 C537.89025,142.223552 538.400974,146.071747 540.517731,149.640244 C541.594181,151.459848 542.98178,151.516416 544.600384,151.569841 C548.45989,151.697119 552.319396,151.807112 556.178901,151.891964 C557.74879,151.926533 559.401966,152.188946 560.877567,151.805541 C564.04563,150.97902 565.646948,152.556638 567.40384,154.864926 C573.062667,162.294188 578.947785,169.550604 584.710329,176.830589 C584.35675,176.851017 583.527019,176.942154 582.697288,176.943725 C574.076259,176.956296 565.453658,176.953153 556.831057,176.954725 C550.714935,176.954725 544.589384,177.104001 538.48269,176.860445 C536.702226,176.788163 534.434609,176.07635 533.295301,174.831854 C525.978583,166.836912 518.856727,158.659695 513.752625,148.972427 C511.076428,143.892308 510.204268,138.354931 510.07698,132.771985 C509.93712,126.475654 509.899405,120.097613 510.757422,113.882991 C511.370291,109.453404 513.056468,104.987675 515.122938,100.982348 C518.18257,95.0568511 521.878644,89.4440498 525.526003,83.8422479 C532.067991,73.7951449 538.941557,63.960172 545.345256,53.8266457 C548.70818,48.5029697 552.445112,43.0363023 554.104574,37.0998064 C556.831057,27.3355435 557.828934,17.1281646 556.47905,6.88464506 C556.320333,5.68571801 556.45705,4.44750764 556.45705,2.58704943 C560.74085,2.44091546 565.054507,2.24135618 569.371308,2.1565042 C574.883989,2.05122489 580.396671,1.98208624 585.909353,2.0040849 C591.066884,2.02451223 596.222844,2.18478819 601.378805,2.28221083 C601.900529,2.29321016 602.423826,2.30892349 602.943979,2.28849616 C605.4206,2.19578752 606.53005,3.60684451 606.509622,6.09112192 C606.482907,9.0515132 607.116205,12.0276178 606.98106,14.9738671 C606.743769,20.0602719 606.393333,25.171818 605.574603,30.1875128 C605.144023,32.8289235 602.189678,31.8814097 600.50193,31.9568337 C595.072536,32.198819 589.617998,31.977261 584.174461,31.8436977 C582.250994,31.7965577 581.25626,32.2538156 581.317547,34.4741091 C581.42912,38.4935788 578.969785,41.5781054 576.99446,44.7584833 C570.763621,54.7835875 564.441638,64.7536951 558.097654,74.7096607 C557.291495,75.9730124 556.147472,77.0226628 555.159024,78.1713072 C555.245454,78.4855738 555.330313,78.7998404 555.416743,79.114107" id="Fill-14" fill="#2CC9F7"></path>
                <path d="M524,177.950195 C516.72192,177.950195 510.297035,177.948618 503.870578,177.950195 C493.955923,177.953351 484.034982,178.12058 474.128183,177.823984 C472.178248,177.765611 469.698799,176.385176 468.455931,174.821734 C462.230596,166.987172 455.912557,159.160499 450.516847,150.756408 C448.142672,147.056842 447.229769,142.052567 446.792959,137.529472 C445.873771,127.972126 445.078713,118.228619 448.497777,108.967871 C450.40843,103.794788 453.046577,98.8488853 455.747574,94.0213058 C458.387292,89.3025834 461.470106,84.829973 464.457073,80.3147663 C468.158963,74.7204536 472.096543,69.2807496 475.685302,63.6170207 C480.513787,56.0001731 485.345414,48.3643937 489.671094,40.4604155 C491.152793,37.75634 491.357057,34.2429349 491.720019,31.0497908 C492.522933,24.0056266 493.390269,16.9740835 493.038306,9.82737266 C492.705199,3.04825203 492.923604,3.03720855 499.827724,3.03720855 C505.572254,3.03720855 511.319925,3.09873653 517.062884,3.00092282 C518.816411,2.97094766 519.690032,3.66984234 519.710458,5.29796719 C519.773308,10.5783295 520.015283,15.8776234 519.677462,21.1358988 C519.322357,26.6529071 519.045815,32.3308348 517.491838,37.5686008 C516.138982,42.1327143 513.191297,46.2598215 510.707134,50.4374132 C507.305354,56.1547818 503.737021,61.7727592 500.132549,67.3654942 C495.464333,74.6052859 490.706555,81.7882824 485.955063,88.9744343 C481.524107,95.6794058 477.020874,102.374911 475.041085,110.302554 C472.203388,121.663143 472.682623,133.09788 474.901243,144.493176 C475.257919,146.327972 476.11897,148.083886 476.901458,149.806669 C477.654092,151.464769 478.709979,152.436595 480.905031,152.370334 C487.763584,152.165241 494.63785,152.17944 501.494832,152.40031 C502.831975,152.442906 504.4708,153.510968 505.386845,154.601118 C509.205008,159.1463 512.790626,163.887109 516.476803,168.544303 C518.797556,171.475559 521.14659,174.384728 524,177.950195" id="Fill-16" fill="#2CC9F7"></path>
                <path d="M449.620239,176.952886 C445.448281,176.952886 441.708447,176.946608 437.967042,176.954455 C433.914508,176.963872 429.863545,176.985845 425.811011,176.99997 C422.845857,177.009387 421.217929,174.804276 419.649713,172.894226 C414.644935,166.79682 409.78158,160.580133 404.977936,154.32421 C400.686556,148.735313 399.028772,142.098007 398.510224,135.289629 C397.763828,125.508667 397.319134,115.575466 401.013398,106.251221 C403.089163,101.017026 406.147027,96.1265445 409.123181,91.3051204 C413.329708,84.4904644 417.925933,77.9159378 422.258169,71.1766165 C428.292186,61.7848841 434.533623,52.5045844 440.072663,42.8240688 C442.297707,38.9364817 443.429085,34.1966703 444.098484,29.7016967 C445.016157,23.5540671 445.090011,17.2730322 445.374427,11.0437899 C445.457709,9.20907481 445.039728,7.3508176 444.824452,5.50511618 C444.618604,3.75201373 445.286431,2.98454095 447.140635,3.00023569 C454.471023,3.05673675 461.806126,2.93745673 469.133372,3.11794624 C470.093472,3.14148835 471.804682,4.5022223 471.840823,5.29951509 C472.225806,14.1278063 471.928819,22.8744849 470.770727,31.7247487 C469.801199,39.1483607 465.825661,44.6791871 462.533665,50.7059672 C459.378377,56.4816315 455.597687,61.9245673 451.944278,67.4161568 C447.689039,73.8196107 443.121099,80.019033 438.969569,86.4852658 C434.467626,93.4945367 429.673411,100.439459 427.470366,108.594446 C426.287132,112.979556 425.595735,117.56399 425.283034,122.09977 C424.772343,129.510826 424.63092,137.103941 427.146666,144.133615 C428.974156,149.234406 431.92831,154.068385 435.077313,158.5304 C439.503831,164.805157 444.574606,170.626336 449.620239,176.952886" id="Fill-18" fill="#2CC9F7"></path>
            </g>
        </g>
    </g>
</svg>