<svg xmlns="http://www.w3.org/2000/svg" viewBox="0 0 390.9 113.02"><defs><style>.a{fill:#231f20;}.b{fill:#cbff00;}</style></defs><title>Artboard 1 copy 13</title><path class="a" d="M161.7,59.14c2.23-2.36,4.43-4.75,6.69-7.07,3.33-3.42,6.77-6.73,10-10.2,2.85-3,5.54-6.19,8.31-9.28,2.34-2.62,4.83-5.12,7-7.88a24.82,24.82,0,0,0,3.09-5.75,68.24,68.24,0,0,0,2.12-6.63c.91-3,1.84-6.08,2.61-9.16.32-1.31.78-1.92,2.23-1.89,4.35.08,8.7.05,13.05,0,1.29,0,1.91.16,1.84,1.79-.17,4.15.26,8.35-.15,12.46-.44,4.38-1,8.8-3.76,12.63-1.75,2.4-2.73,5.35-4.31,7.89-1.72,2.77-3.79,5.34-5.62,8-2.69,4-5.17,8.11-8,12a47.74,47.74,0,0,0-6.74,13.06,24.91,24.91,0,0,0-1,7.27c-.1,4.36-.26,8.71.68,13.08a26.91,26.91,0,0,0,5.19,10.66c2.71,3.58,5.73,6.92,8.59,10.37a10.59,10.59,0,0,1,.84,1.53h-8.76a59.18,59.18,0,0,1-6-.11,4.67,4.67,0,0,1-2.84-1.29,125.23,125.23,0,0,1-8.18-10.14,34.22,34.22,0,0,1-5-9.22c-1-3.38-.84-7.13-1.14-10.72-.07-.87.13-1.77,0-2.64-.4-3.81.57-7.42,1.69-11,.67-2.1,1.93-4,2.78-6.08a51.44,51.44,0,0,0-9.27,14c-.62,1.32-.66,2.91-1.07,4.34-.71,2.52-1.56,5-2.24,7.54-.82,3-.78,3.06-4,3.06h-7.95a5,5,0,0,1-5.26-3.9c-1.16-3.67-2.71-7.25-3.46-11-.59-3-.28-6.13-.22-9.2a42.22,42.22,0,0,0,.23-4.65c-.73,1.62-1.56,3.2-2.18,4.86A40.06,40.06,0,0,0,139.31,84c.34,3.71.68,7.32,2.44,10.67,2.89,5.49,6.92,10.15,10.94,14.81.27.31.57.6.85.91s.54.63,1,1.18c-.31.19-.58.49-.84.48-2.22,0-4.43-.16-6.64-.21a44.87,44.87,0,0,0-6.77,0c-2.08.27-3.1-.95-4.16-2.17-2.44-2.83-4.81-5.73-7.14-8.65a28.11,28.11,0,0,1-6.55-20.21,35.86,35.86,0,0,0,0-4.73c-.24-4.21,1.18-8.06,3-11.65C129.21,57,134.12,50.09,139,43.2c2.81-4,5.18-8.3,7.74-12.47a30.67,30.67,0,0,0,2.85-4.93,32.52,32.52,0,0,0,2-7.41c.5-4.08.62-8.22.83-12.33a17.65,17.65,0,0,0-.21-3.23c-.15-1.16.31-1.55,1.43-1.54,4.6,0,9.21,0,13.81,0,.84,0,1.51-.17,1.52,1.34s1.22,2.91,1.63,4.44c.77,2.87,1.38,5.78,2,8.69.22,1.08,0,2.26.33,3.32,1,3.66,0,7.09-1,10.53-.76,2.54-1.48,5.1-2.36,7.6-1.18,3.35-2.58,6.63-3.76,10s-2.13,6.61-3.24,9.9a10.07,10.07,0,0,1-1.07,1.82ZM115.82,0c-4.07.18-8.17.1-12.19.63-2.78.37-5.58,1.12-7.74,3.42C93.23,6.91,92.77,10.47,92,14c-.78,3.67-1,7.54-2.35,11S86,31.53,84,34.71c-4.54,7.1-9.2,14.12-13.74,21.22-1.85,2.9-3.66,5.85-5.23,8.91a28.37,28.37,0,0,0-2.77,14.55A79.27,79.27,0,0,0,62.88,89c.82,4.84,3.3,8.84,6.61,12.53a36.09,36.09,0,0,0,9.15,7.23C84.3,112,90.45,113,96.9,112.71c3.22-.15,6.5.31,9.69-.05,3.68-.41,7.46,1.21,11.05-.77,1-.55,3-2.52,2.61-3.35-1.41-3-2.93-5.91-4.43-8.85a82.22,82.22,0,0,1-4.28-8.55c-1.64-4.47-1-9.25-1.24-13.92-.24-5.76,1.89-10.84,4.46-15.71,2.09-4,4.71-7.63,7.14-11.4,3.95-6.13,8-12.19,11.87-18.36a58.59,58.59,0,0,0,4.46-8.25c.73-1.73.62-3.8,1-5.69.87-4.27.93-8.2-1.9-12.09-2.5-3.43-5.92-4.73-9.55-5.25-3.91-.56-8-.13-12-.13Zm6.51,17.48c-1.07,3.47-.75,6.82-2.8,9.82-3,4.36-5.4,9.1-8.21,13.59-1.74,2.77-3.81,5.33-5.63,8-4.24,6.31-8.86,12.4-11.26,19.77a32.37,32.37,0,0,0-1.29,10.45c0,4.37,0,8.7,1.36,12.9.45,1.45,1.18,2.81,1.9,4.47-.82.06-1.41.14-2,.14-3.28,0-6.56-.08-9.83,0A2.46,2.46,0,0,1,82,95a28.75,28.75,0,0,1-2.62-12.39c-.07-5.17-.24-10.34,1.83-15.27A39.71,39.71,0,0,1,86.8,57c1.55-1.88,2.51-4.23,3.86-6.28,1.88-2.86,4-5.58,5.81-8.48,2.83-4.51,5.21-9.33,8.32-13.62,2.44-3.36,3.13-7.06,3.89-11.16Zm-51,15.29c3.18.2,5.58-.26,6.82-3.64.74-2,2.33-3.77,2.93-5.82a80.74,80.74,0,0,0,1.47-8.38,11.94,11.94,0,0,0-1.27-7.67A11.79,11.79,0,0,0,70.55.64C61.94.42,53.32.69,44.71,1a8.8,8.8,0,0,0-6.79,4.2C35.6,8.58,35,12.67,34.27,16.65c-.58,3-.66,6.28-2.13,8.75-5.36,9.07-11.26,17.82-16.85,26.75C12.43,56.7,9.58,61.27,7.12,66c-1.79,3.48-2.25,7.43-2.33,11.37-.11,5.27,0,10.53,1.86,15.56A27.14,27.14,0,0,0,11,99.92a32.42,32.42,0,0,0,8.52,7.93,35.64,35.64,0,0,0,19.35,5.07c4.67,0,9.34,0,14-.17,3-.1,6.27.57,8.87-1.73a2.52,2.52,0,0,0,.89-1.39c.37-3.56-1.51-6.39-3.47-9a26.81,26.81,0,0,1-5.59-12.1c-.42-2.68-.68-5.39-1-8.15-5.12,0-10.21,0-15.29,0A1.82,1.82,0,0,0,35.9,81.5a14.14,14.14,0,0,0,0,4.41c.72,3.62.87,7.44,3.66,10.76H28.66c-3.56,0-3.86-.17-5-3.7a39.7,39.7,0,0,1-1.71-13,43.11,43.11,0,0,1,1.52-12c1.66-5.26,4.92-9.67,7.84-14.24,2.46-3.86,5.3-7.47,7.77-11.32,3-4.62,5.59-9.44,8.57-14A18.77,18.77,0,0,0,51,19.16c.08-1.27.61-2,2.11-2,3.53.08,7.06,0,10.59,0a9.72,9.72,0,0,1,1.23.16c-.37,3.11-.61,6.93-2.89,9.92a42.41,42.41,0,0,0-3,5.43C63.52,32.71,67.46,32.52,71.38,32.77ZM232.91,9a52.21,52.21,0,0,1-.75,8c-.53,3-.8,6.32-2.25,8.88-3.93,6.93-8.42,13.54-12.71,20.25-2.53,4-5,8-7.73,11.8a40.9,40.9,0,0,0-5.56,11.29c-1.24,3.74-1.27,7.65-1.21,11.55.08,4.95.37,9.86,2.83,14.32,3.26,5.91,7.66,11,12.24,15.85a3.08,3.08,0,0,0,2,.79c4.8.15,9.61.22,14.41.28a1.46,1.46,0,0,0,.92-.37c.1-.09,0-.58-.21-.78-2.7-3.24-5.58-6.34-8.08-9.71a46.21,46.21,0,0,1-5.12-8.54C220,88.89,220,84.8,220,80.65c0-5.07.07-10,2.39-14.61a2.17,2.17,0,0,1,1.48-1.11c4.56-.09,9.14.15,13.69-.12a28.83,28.83,0,0,0,8.56-1.66c5.4-2.07,9.39-6.12,12.7-10.73,3-4.25,5.77-8.73,8.64-13.1a52,52,0,0,0,3.86-5.83c2-4.14,5.31-7.6,6-12.41.5-3.65,1.36-7.26.34-10.92a11.86,11.86,0,0,0-5-6.63c-3.42-2.37-7.4-2.44-11.25-2.54-8.51-.21-17-.08-25.54,0a28.15,28.15,0,0,0-3.3.42C232.63,4,233,6.52,232.91,9Zm27.7,10c-.67,2.42-.89,4.66-1.88,6.47-2.12,3.9-4.63,7.59-7,11.35s-4.62,7.33-7.06,10.91a3.41,3.41,0,0,1-2.28,1.37c-2.43.12-4.87-.08-7.31-.11-.78,0-1.56.11-2.66.19,6-9.95,13.87-18.71,16.89-30.19Zm96.84,30.29a20.51,20.51,0,0,0,1.87-2.2q6.06-9.5,12-19.06c1.26-2,2.82-4,2.75-6.54,0-1.41.59-1.7,1.82-1.67,3.46.09,6.93.23,10.39.07,1.07,0,3,.56,3.23-1.13a84.46,84.46,0,0,0,.89-9.68c.09-1.88-.32-3.77-.3-5.65,0-1.58-.69-2.48-2.27-2.42-.33,0-.66,0-1,0C383.58,1,380.3.85,377,.84c-3.51,0-7,0-10.52.1-2.75.05-5.49.18-8.22.27a24,24,0,0,0,0,2.73,48,48,0,0,1-1.51,19.23c-1.06,3.78-3.43,7.26-5.57,10.65-4.07,6.45-8.45,12.71-12.61,19.1A127,127,0,0,0,332,63.83,26.17,26.17,0,0,0,329.19,72a75.73,75.73,0,0,0-.43,12,22.83,22.83,0,0,0,2.34,10.31c3.25,6.16,7.78,11.37,12.44,16.46a5.11,5.11,0,0,0,3.3,1.29c3.89.16,7.78.06,11.68.06H375c.53,0,1.06-.06,1.28-.07-3.67-4.63-7.41-9.25-11-14-1.12-1.47-2.14-2.47-4.15-1.95a11.17,11.17,0,0,1-3,.06q-3.68-.08-7.37-.21a2.58,2.58,0,0,1-2.6-1.23c-1.35-2.27-1.67-4.72-2.1-7.24-1.15-6.81-1.2-13.5,1.24-20.05.29-.77.94-1.94,1.49-2,3.25-.23,6.51-.21,9.77-.22,5.15,0,4.49.9,6.18-3.19a8.74,8.74,0,0,1,.78-1.27c2-3.08,3.88-6.18,5.86-9.24.53-.81.86-1.64-.39-1.78a39.39,39.39,0,0,0-4.53.1c-2.94,0-5.88,0-8.82,0Zm-24.38,56.89c-2.35-3-4.63-6-7.06-8.84a3.92,3.92,0,0,0-2.48-1.4q-6.55-.21-13.1,0a2.41,2.41,0,0,1-2.55-1.63A15.61,15.61,0,0,1,306.61,91c-1.41-7.22-1.72-14.47.09-21.67,1.26-5,4.13-9.27,6.95-13.52,3-4.56,6.05-9.11,9-13.7,2.29-3.54,4.57-7.11,6.73-10.73,1.58-2.65,3.46-5.26,4.32-8.16a47.36,47.36,0,0,0,1.39-10.42c.21-3.33.06-6.69,0-10,0-1-.57-1.48-1.68-1.46-3.66.06-7.31,0-11,0-4.4,0-4.53,0-4.32,4.3a82.4,82.4,0,0,1-.84,13.45c-.23,2-.36,4.25-1.3,6-2.75,5-5.83,9.85-8.9,14.68-2.28,3.59-4.79,7-7.15,10.58-1.9,2.86-3.86,5.7-5.54,8.69a67.57,67.57,0,0,0-4.61,9.47c-2.18,5.87-1.67,12-1.09,18.1.28,2.87.86,6,2.37,8.38a189.28,189.28,0,0,0,11.42,15.25,5.46,5.46,0,0,0,3.61,1.9c6.31.19,12.62.08,18.93.08h12.81C336,109.91,334.55,108.06,333.07,106.21Zm-51.81-5.82a39.34,39.34,0,0,1-5-9.17c-1.6-4.48-1.51-9.32-1.19-14a45.12,45.12,0,0,1,1.39-8.6c1.4-5.2,4.45-9.62,7.32-14.09,2.64-4.12,5.55-8.07,8.26-12.15,2.32-3.5,4.73-7,6.74-10.65,2.1-3.84,4.62-7.36,5.24-12.09a96.68,96.68,0,0,0,.68-16.84c0-.51-1.11-1.38-1.72-1.39-4.66-.12-9.33,0-14-.08-1.18,0-1.6.48-1.47,1.6a22.3,22.3,0,0,1,.35,3.53A116.49,116.49,0,0,1,287,18.3a24.27,24.27,0,0,1-2.56,8.36c-3.52,6.17-7.5,12.08-11.34,18.06-2.76,4.29-5.68,8.48-8.36,12.82a62.2,62.2,0,0,0-5.16,9.52c-2.35,5.94-2.07,12.27-1.59,18.5.33,4.34,1.39,8.57,4.12,12.13,3.06,4,6.15,7.95,9.34,11.83,1,1.22,2,2.62,3.92,2.62l7.74,0h7.42C287.3,108.09,284.07,104.38,281.25,100.38Z"/><path class="b" d="M156.94,58.36c2.23-2.36,4.43-4.75,6.69-7.07,3.33-3.42,6.77-6.73,10-10.2,2.85-3,5.54-6.19,8.31-9.28,2.34-2.62,4.83-5.12,7-7.88A24.82,24.82,0,0,0,192,18.17a68.24,68.24,0,0,0,2.12-6.63c.91-3,1.84-6.08,2.61-9.16.32-1.31.78-1.92,2.23-1.89,4.35.08,8.7.05,13.05,0,1.29,0,1.91.16,1.84,1.79-.17,4.15.26,8.35-.15,12.46-.44,4.38-1,8.8-3.76,12.63-1.75,2.4-2.73,5.35-4.31,7.89-1.72,2.77-3.79,5.34-5.62,8-2.69,4-5.17,8.11-8,12a47.74,47.74,0,0,0-6.74,13.06,24.91,24.91,0,0,0-1,7.27c-.1,4.36-.26,8.71.68,13.08a26.91,26.91,0,0,0,5.19,10.66c2.71,3.58,5.73,6.92,8.59,10.37a10.59,10.59,0,0,1,.84,1.53h-8.76a59.18,59.18,0,0,1-6-.11,4.67,4.67,0,0,1-2.84-1.29,125.23,125.23,0,0,1-8.18-10.14,34.22,34.22,0,0,1-5-9.22c-1-3.38-.84-7.13-1.14-10.72-.07-.87.13-1.77,0-2.64-.4-3.81.57-7.42,1.69-11,.67-2.1,1.93-4,2.78-6.08a51.44,51.44,0,0,0-9.27,14c-.62,1.32-.66,2.91-1.07,4.34-.71,2.52-1.56,5-2.24,7.54-.82,3-.78,3.06-4,3.06h-7.95a5,5,0,0,1-5.26-3.9c-1.16-3.67-2.71-7.25-3.46-11-.59-3-.28-6.13-.22-9.2a42.22,42.22,0,0,0,.23-4.65c-.73,1.62-1.56,3.2-2.18,4.86a40.06,40.06,0,0,0-2.13,18.07c.34,3.71.68,7.32,2.44,10.67,2.89,5.49,6.92,10.15,10.94,14.81.27.31.57.6.85.91s.54.63,1,1.18c-.31.19-.58.49-.84.48-2.22,0-4.43-.16-6.64-.21a44.87,44.87,0,0,0-6.77,0c-2.08.27-3.1-.95-4.16-2.17-2.44-2.83-4.81-5.73-7.14-8.65a28.11,28.11,0,0,1-6.55-20.21,35.86,35.86,0,0,0,0-4.73c-.24-4.21,1.18-8.06,3-11.65,3.79-7.53,8.7-14.39,13.53-21.29,2.81-4,5.18-8.3,7.74-12.47A30.67,30.67,0,0,0,144.79,25a32.52,32.52,0,0,0,2-7.41c.5-4.08.62-8.22.83-12.33a17.65,17.65,0,0,0-.21-3.23C147.22.89,147.68.5,148.8.51c4.6,0,9.21,0,13.81,0,.84,0,1.51-.17,1.52,1.34s1.22,2.91,1.63,4.44c.77,2.87,1.38,5.78,2,8.69.22,1.08,0,2.26.33,3.32,1,3.66,0,7.09-1,10.53-.76,2.54-1.48,5.1-2.36,7.6-1.18,3.35-2.58,6.63-3.76,10s-2.13,6.61-3.24,9.9a10.07,10.07,0,0,1-1.07,1.82Z"/><path class="b" d="M111.07-.44c4,0,8.05-.43,12,.13,3.63.52,7.06,1.81,9.55,5.25,2.83,3.9,2.76,7.82,1.9,12.09-.38,1.89-.27,4-1,5.69A58.59,58.59,0,0,1,129,31c-3.88,6.17-7.92,12.23-11.87,18.36-2.43,3.77-5,7.45-7.14,11.4-2.57,4.87-4.69,9.94-4.46,15.71.19,4.67-.4,9.45,1.24,13.92a82.22,82.22,0,0,0,4.28,8.55c1.49,2.94,3,5.87,4.43,8.85.39.83-1.62,2.81-2.61,3.35-3.59,2-7.38.35-11.05.77-3.19.36-6.46-.09-9.69.05-6.45.3-12.6-.67-18.26-3.92a36.09,36.09,0,0,1-9.15-7.23c-3.3-3.69-5.79-7.69-6.61-12.53a79.27,79.27,0,0,1-.67-9.63,28.37,28.37,0,0,1,2.77-14.55c1.58-3.06,3.38-6,5.23-8.91C70,48,74.66,41,79.2,33.93c2-3.17,4.36-6.27,5.71-9.74s1.58-7.31,2.35-11C88,9.7,88.48,6.13,91.14,3.28,93.3,1,96.09.22,98.88-.14c4-.53,8.12-.45,12.19-.63ZM103.92,16.7c-.76,4.1-1.45,7.8-3.89,11.16-3.11,4.29-5.49,9.11-8.32,13.62-1.82,2.9-3.93,5.62-5.81,8.48C84.54,52,83.59,54.36,82,56.24A39.71,39.71,0,0,0,76.4,66.51c-2.07,4.93-1.9,10.1-1.83,15.27a28.75,28.75,0,0,0,2.62,12.39,2.46,2.46,0,0,0,2.61,1.75c3.27-.13,6.55,0,9.83,0,.59,0,1.19-.08,2-.14-.72-1.67-1.45-3-1.9-4.47-1.31-4.2-1.33-8.53-1.36-12.9a32.37,32.37,0,0,1,1.29-10.45c2.4-7.37,7-13.46,11.26-19.77,1.83-2.72,3.9-5.28,5.63-8,2.81-4.48,5.23-9.23,8.21-13.59,2.05-3,1.73-6.35,2.8-9.82Z"/><path class="b" d="M54.25,31.93a42.41,42.41,0,0,1,3-5.43c2.28-3,2.52-6.81,2.89-9.92a9.72,9.72,0,0,0-1.23-.16c-3.53,0-7.06.05-10.59,0-1.5,0-2,.73-2.11,2a18.77,18.77,0,0,1-3.26,9.14c-3,4.6-5.61,9.43-8.57,14-2.47,3.85-5.31,7.47-7.77,11.32-2.91,4.57-6.18,9-7.84,14.24a43.11,43.11,0,0,0-1.52,12,39.7,39.7,0,0,0,1.71,13c1.1,3.53,1.4,3.7,5,3.7H34.76C32,92.57,31.82,88.75,31.1,85.13a14.14,14.14,0,0,1,0-4.41,1.82,1.82,0,0,1,1.38-1.06c5.09-.08,10.17,0,15.29,0,.34,2.76.61,5.47,1,8.15a26.81,26.81,0,0,0,5.59,12.1c2,2.59,3.84,5.42,3.47,9a2.52,2.52,0,0,1-.89,1.39c-2.6,2.31-5.84,1.64-8.87,1.73-4.66.15-9.33.16-14,.17a35.64,35.64,0,0,1-19.35-5.07,32.42,32.42,0,0,1-8.52-7.93,27.14,27.14,0,0,1-4.38-6.95C0,87.16-.08,81.91,0,76.63c.08-3.93.54-7.89,2.33-11.37,2.46-4.77,5.31-9.34,8.16-13.89C16.12,42.44,22,33.69,27.38,24.63c1.46-2.47,1.55-5.79,2.13-8.75.78-4,1.33-8.07,3.66-11.48A8.8,8.8,0,0,1,40,.2c8.61-.29,17.23-.56,25.83-.34A11.79,11.79,0,0,1,76.57,6.48a11.94,11.94,0,0,1,1.27,7.67,80.74,80.74,0,0,1-1.47,8.38c-.6,2-2.19,3.79-2.93,5.82-1.24,3.38-3.64,3.84-6.82,3.64C62.7,31.74,58.76,31.93,54.25,31.93Z"/><path class="b" d="M227.7.57A28.15,28.15,0,0,1,231,.16c8.51,0,17-.16,25.54,0,3.85.09,7.83.17,11.25,2.54a11.86,11.86,0,0,1,5,6.63c1,3.67.16,7.28-.34,10.92-.66,4.81-4,8.27-6,12.41a52,52,0,0,1-3.86,5.83c-2.88,4.37-5.6,8.85-8.64,13.1-3.31,4.61-7.3,8.66-12.7,10.73A28.83,28.83,0,0,1,232.77,64c-4.55.27-9.12,0-13.69.12a2.17,2.17,0,0,0-1.48,1.11c-2.32,4.62-2.41,9.54-2.39,14.61,0,4.15,0,8.24,1.71,12a46.21,46.21,0,0,0,5.12,8.54c2.5,3.38,5.38,6.48,8.08,9.71.16.2.3.69.21.78a1.46,1.46,0,0,1-.92.37c-4.81-.06-9.61-.13-14.41-.28a3.08,3.08,0,0,1-2-.79c-4.58-4.89-9-9.94-12.24-15.85C198.31,89.9,198,85,197.94,80c-.07-3.9,0-7.81,1.21-11.55a40.9,40.9,0,0,1,5.56-11.29c2.75-3.81,5.19-7.84,7.73-11.8,4.29-6.72,8.78-13.33,12.71-20.25,1.46-2.57,1.72-5.87,2.25-8.88a52.21,52.21,0,0,0,.75-8C228.2,5.74,227.88,3.24,227.7.57Zm16.85,17.67c-3,11.49-10.91,20.25-16.89,30.19,1.1-.08,1.88-.2,2.66-.19,2.44,0,4.88.23,7.31.11A3.41,3.41,0,0,0,239.91,47c2.43-3.58,4.74-7.25,7.06-10.91s4.88-7.45,7-11.35c1-1.82,1.21-4.05,1.88-6.47Z"/><path class="b" d="M352.85,49.14c2.94,0,5.88,0,8.82,0a39.39,39.39,0,0,1,4.53-.1c1.25.14.92,1,.39,1.78-2,3.06-3.91,6.16-5.86,9.24a8.74,8.74,0,0,0-.78,1.27c-1.68,4.1-1,3.17-6.18,3.19-3.26,0-6.52,0-9.77.22-.55,0-1.21,1.21-1.49,2-2.44,6.55-2.39,13.25-1.24,20.05.43,2.52.75,5,2.1,7.24a2.58,2.58,0,0,0,2.6,1.23q3.68.12,7.37.21a11.17,11.17,0,0,0,3-.06c2-.53,3,.48,4.15,1.95,3.6,4.73,7.35,9.35,11,14-.22,0-.75.07-1.28.07H353.75c-3.89,0-7.79.1-11.68-.06a5.11,5.11,0,0,1-3.3-1.29c-4.66-5.09-9.19-10.29-12.44-16.46A22.83,22.83,0,0,1,324,83.28a75.73,75.73,0,0,1,.43-12,26.17,26.17,0,0,1,2.78-8.21,127,127,0,0,1,6.62-10.91c4.16-6.39,8.54-12.65,12.61-19.1,2.14-3.39,4.52-6.87,5.57-10.65a48,48,0,0,0,1.51-19.23,24,24,0,0,1,0-2.73c2.73-.09,5.47-.22,8.22-.27,3.51-.07,7-.11,10.52-.1,3.28,0,6.56.12,9.84.18.33,0,.66,0,1,0,1.58-.06,2.28.84,2.27,2.42,0,1.88.39,3.78.3,5.65a84.46,84.46,0,0,1-.89,9.68c-.27,1.68-2.15,1.08-3.23,1.13-3.46.15-6.93,0-10.39-.07-1.22,0-1.86.26-1.82,1.67.07,2.56-1.49,4.52-2.75,6.54q-5.95,9.57-12,19.06a20.51,20.51,0,0,1-1.87,2.2Z"/><path class="b" d="M333.1,111.39H320.29c-6.31,0-12.62.11-18.93-.08a5.46,5.46,0,0,1-3.61-1.9,189.28,189.28,0,0,1-11.42-15.25c-1.51-2.35-2.09-5.52-2.37-8.38-.58-6.06-1.09-12.23,1.09-18.1a67.57,67.57,0,0,1,4.61-9.47c1.68-3,3.64-5.83,5.54-8.69,2.36-3.55,4.86-7,7.15-10.58,3.07-4.83,6.15-9.67,8.9-14.68.94-1.71,1.07-3.94,1.3-6a82.4,82.4,0,0,0,.84-13.45c-.21-4.3-.07-4.3,4.32-4.3,3.66,0,7.31,0,11,0,1.12,0,1.67.42,1.68,1.46,0,3.35.19,6.7,0,10A47.36,47.36,0,0,1,329,22.41c-.86,2.89-2.74,5.51-4.32,8.16-2.16,3.62-4.44,7.19-6.73,10.73-3,4.59-6,9.14-9,13.7-2.82,4.25-5.69,8.49-6.95,13.52-1.81,7.2-1.5,14.45-.09,21.67a15.61,15.61,0,0,0,1.27,3.37,2.41,2.41,0,0,0,2.55,1.63q6.55-.2,13.1,0a3.92,3.92,0,0,1,2.48,1.4c2.43,2.88,4.71,5.89,7.06,8.84C329.79,107.29,331.28,109.13,333.1,111.39Z"/><path class="b" d="M285.75,111.35h-7.42l-7.74,0c-1.89,0-2.92-1.4-3.92-2.62-3.18-3.88-6.28-7.85-9.34-11.83-2.73-3.56-3.79-7.79-4.12-12.13-.47-6.23-.76-12.56,1.59-18.5A62.2,62.2,0,0,1,260,56.77c2.68-4.34,5.6-8.53,8.36-12.82,3.84-6,7.81-11.9,11.34-18.06a24.27,24.27,0,0,0,2.56-8.36A116.49,116.49,0,0,0,283,5.63a22.3,22.3,0,0,0-.35-3.53C282.57,1,283,.5,284.17.51c4.67,0,9.33,0,14,.08.61,0,1.7.88,1.72,1.39a96.68,96.68,0,0,1-.68,16.84c-.62,4.73-3.15,8.25-5.24,12.09-2,3.68-4.41,7.15-6.74,10.65-2.71,4.08-5.62,8-8.26,12.15-2.86,4.47-5.92,8.89-7.32,14.09a45.12,45.12,0,0,0-1.39,8.6c-.33,4.72-.42,9.56,1.19,14a39.34,39.34,0,0,0,5,9.17C279.31,103.6,282.54,107.31,285.75,111.35Z"/></svg>