<svg xmlns="http://www.w3.org/2000/svg" viewBox="0 0 250 250"><defs><style>.a{fill:#fff;}.b{fill:#231f20;}</style></defs><title>Artboard 22 copy 14</title><polygon class="a" points="68.73 7.71 183.87 7.71 183.87 30.53 178.16 30.53 178.68 83.15 139.27 114.55 138.23 125 179.72 163.89 179.2 220.36 190.09 220.36 190.09 241.62 60.43 241.62 60.43 221.91 71.32 221.4 70.81 163.89 110.74 124.67 103.2 110.06 71.32 80.32 71.32 25.87 60.43 25.35 60.43 7.71 68.73 7.71"/><path class="b" d="M54.75,236.57v11.3h140.5V214.49H184.48V152.72H173.72V142.36H163v21.53h10.77v53h-11.3V206.69H152.18V195.92H141.42v10.77h10.23v10.23h-11.3V206.69H130.11V195.92H119.35v10.77h10.23v10.23H118.81V206.69H108.58V195.92H97.82v10.77H108v10.23H97.82V206.69H87v10.23H65.79v.76H77.15V152.05H65.52v64.6H55v.27h-.27v10.77m11,8.88v-8.88H183.95v8.88Z"/><path class="b" d="M66.05,89.61H76V99.3H86.78V77.76h-10V34.43h96.36V77.76H162.41v9.69h-10.5V109h10.77V99.3h10.5V89.61h10.77V34.43h11V2.13H54.75v32.3h11.3ZM173.45,12.9V23.66H76.28V12.9Z"/><rect class="b" x="119.62" y="142.36" width="10.77" height="10.77"/><rect class="b" x="119.35" y="77.76" width="10.77" height="10.77"/><rect class="b" x="119.89" y="55.69" width="10.77" height="10.77"/><rect class="b" x="130.65" y="67" width="10.77" height="10.77"/><rect class="b" x="141.42" y="55.69" width="10.77" height="10.77"/><rect class="b" x="108.58" y="67" width="10.77" height="10.77"/><rect class="b" x="97.82" y="55.69" width="10.77" height="10.77"/><rect class="b" x="119.89" y="173.85" width="10.77" height="10.77"/><rect class="b" x="108.58" y="184.62" width="10.77" height="10.77"/><rect class="b" x="130.65" y="184.62" width="10.77" height="10.77"/><polygon class="b" points="152.41 99.03 140.88 99.03 140.88 109.52 130.65 109.52 130.65 99.3 119.89 99.3 119.89 110.06 130.38 110.06 130.38 120.29 130.38 131.06 140.88 131.06 140.88 142.09 152.41 142.09 152.41 99.03"/><polygon class="b" points="163.51 142.36 163.51 131.59 151.92 131.59 151.92 142.36 151.92 153.13 163.51 153.13 163.51 142.36"/><polygon class="b" points="87.05 142.36 76.55 142.36 76.55 153.13 76.55 163.89 87.32 163.89 87.32 154.2 98.94 154.2 98.94 143.44 98.94 132.67 87.05 132.67 87.05 142.36"/><polygon class="b" points="98.51 99.3 98.51 88.53 86.11 88.53 86.11 99.3 86.11 110.06 98.51 110.06 98.51 99.3"/><polygon class="b" points="119.35 121.37 119.35 110.6 108.85 110.6 108.85 99.56 98.08 99.56 98.08 142.63 108.85 142.63 108.85 132.13 119.35 132.13 119.35 121.37"/></svg>