<svg xmlns="http://www.w3.org/2000/svg" viewBox="0 0 1425 745"><defs><style>.a{fill:#fff;}</style></defs><title>Artboard 1</title><path class="a" d="M214.08,353.62c-1.3.18-2,.07-2.21.34a54.81,54.81,0,0,0-5.15,7.45c-8.05,16.06-18.88,30.2-30.32,43.88-14.66,17.54-31.84,32.39-50.6,45.38a49.33,49.33,0,0,1-11.75,5.59c-5.13,1.8-10,.51-13.94-3.22s-4.36-8.77-2.41-13.6c5.57-13.79,10.64-27.77,18.63-40.52,6.68-10.65,12-22.19,18.77-32.76,14.05-21.83,28.51-43.47,48.6-60.43,9.11-7.69,19.28-13.81,31.4-15.4,4.66-.61,6.25-4.17,7.73-7.25,6-12.58,11.71-25.34,17.26-38.14,6.68-15.41,13.09-30.94,19.63-46.41,6.08-14.38,11.94-28.85,18.33-43.09,6.27-14,11-28.4,15.49-43,2.06-6.73,4-13.53,2.05-20.73-.79-2.85-.9-4.84-5.36-4.9-9.1-.13-16.23,4-23.91,7.71-11.22,5.37-19.47,14.55-29.41,21.49-12.64,8.82-22.19,20.51-31.62,32.28-6.07,7.57-11.19,15.94-16.4,24.16-1.75,2.76-2.53,6.15-3.69,9.28s-2,6.49.68,9.42c3,3.28,6.63,2,10,1,12.08-3.75,19.35-13,26.26-22.83a69.48,69.48,0,0,1,9.66-10.92c3.82-3.52,8.38-3.56,11.63-.91s4.23,7.52,1.64,11.93c-9,15.38-20.87,28.18-36.2,37.45-13.39,8.11-29.57,1.84-38.17-5.22-4.78-3.92-7-9.51-5.54-15.61,2.75-11.41,5.1-23,12.65-32.64,9.94-12.7,18.38-26.57,30.19-37.79,5.12-4.86,9.47-10.7,15.11-14.8,11.57-8.41,22.56-17.89,36.06-23.31,6.41-2.57,12.87-5.45,19.58-6.76,20.42-4,36,13.6,34.94,32.61-.36,6.45-2,12.92-3.78,19.18-2.66,9.36-5.65,18.65-9.06,27.76s-7.65,18-11.39,27.1c-6.12,14.82-12,29.75-18.24,44.53-4,9.45-8.43,18.7-12.59,28.08q-6.87,15.48-13.58,31c-3,6.92-6.16,13.79-8.69,20.89-.94,2.63-.13,5.85-.36,8.78-.79,10.21-1.5,20.43-2.6,30.61-.86,7.91-2.2,15.77-3.44,23.64-.42,2.65-1.3,5.23-1.84,7.86-.83,4.07-1.55,8.17-2.32,12.26l1.22.74c3.06-3.63,6-7.36,9.2-10.87,7.18-7.88,14.35-15.8,21.78-23.44s15.07-15,22.79-22.35c10.49-10,20.82-20.13,31.82-29.5,10.66-9.07,21-18.64,33.6-25.23,8.55-4.47,17.3-3.65,22.39,2.78a10,10,0,0,1-1.22,14.21c-7.69,6.5-12.18,15-16.18,24-4.72,10.64-10,21-15.15,31.46-4.32,8.67-9,17.26-8.47,27.3.12,2.22,2.09,4.84,4,6.25.85.64,4.34-.68,5.33-2.05A118.82,118.82,0,0,0,351.32,351c5-13.09,11.1-26,21-36,12.65-12.86,24.35-27,40.46-36,7.24-4.07,14.79-7.75,23.14-7.92A61.6,61.6,0,0,1,454,273.62c6.12,1.77,8.76,7.16,7.34,12.24-1.32,4.74-7.3,7.84-13.16,7-3.62-.5-7.46-1.52-10.9-.81a33.34,33.34,0,0,0-11.72,5.13,264.86,264.86,0,0,0-23.36,17.43,130.38,130.38,0,0,0-18.27,18.66c-4.22,5.44-6.78,12.19-9.91,18.44a41.7,41.7,0,0,0-4.86,19.5c.08,5.18,4.74,8.76,9.64,9.94,7.42,1.78,11.17-3.4,15.5-7,5.18-4.25,10.25-9.06,14-14.56,8.78-13,19.86-23.79,30.36-35.22C450.05,312,461,299,472,286.05c8.31-9.8,16.52-19.69,24.37-29.86,7.68-10,14.7-20.41,22.27-30.46,4.63-6.15,9.76-11.92,14.63-17.89,7-8.63,14-17.34,21.12-25.9a29,29,0,0,1,6.28-5.65c3.07-2,6.49-2.43,9.76-.09s5,6.13,3.48,9.81a49.22,49.22,0,0,1-6.57,11.64c-9.81,12.53-19.9,24.85-30,37.17-8.69,10.64-17.63,21.09-26.21,31.82-3.9,4.88-7.24,10.22-10.74,15.42a14,14,0,0,0-1.21,3.25c3.64,2.09,5.94.36,8.86-1.44,3.84-2.37,8.49-3.41,12.74-5.15,7.49-3.05,14.85-6.47,22.46-9.18a36.46,36.46,0,0,1,12.34-2.11,8.83,8.83,0,0,1,8.63,7.92c.34,3.88-2.89,7.71-7.08,9.54-11.85,5.17-23.65,10.46-35.34,16-16.64,7.85-32.14,17.65-47,28.4-5.18,3.74-10,8-14.83,12.21-2.83,2.46-6.06,4.85-7.86,8-1.37,2.38-1.26,5.95-.93,8.89.4,3.55,3.42,5.11,7,4.83,5.58-.44,11.17-.8,16.76-.94,17.88-.43,35.58-1.8,52.67-7.76,8.43-2.94,17.38-4.58,25.5-8.17,9.19-4.06,17.73-9.61,26.53-14.55,9.14-5.14,18.08-10.66,27.42-15.4,12.41-6.3,25.15-12,37.7-18a247.85,247.85,0,0,1,46-16.26c9.68-2.47,19.4-4.88,29.22-6.64a157.55,157.55,0,0,1,21.86-2,61.28,61.28,0,0,0,22-4.5c7.56-3.2,15.4-5.72,23-8.76,5.77-2.3,9.76-6.89,13.58-11.54C811.3,235.51,821.71,222,833,209.18c9-10.27,19.1-19.63,28.61-29.49,5.8-6,11.16-12.45,17.16-18.24,9.52-9.19,20-17.44,29-27.11,10.9-11.72,20.66-24.5,30.92-36.82,1.31-1.57,2.69-3.09,3.95-4.7,3.11-4,6.8-7.39,8.4-12.65,1-3.15,4.36-5.57,6.69-8.3,9.21-10.79,17.91-22.09,27.83-32.18a147.11,147.11,0,0,1,25.58-20.93c14.1-9,27.66-1,28.28,15.83a46.22,46.22,0,0,1-4.38,21c-5.1,11.22-9.89,22.62-15.68,33.47a270.92,270.92,0,0,1-17,27,271.44,271.44,0,0,1-19,24.68,321.87,321.87,0,0,1-25.34,25.82c-12,10.84-24.78,20.85-37.08,31.38-8.66,7.42-17.15,15.06-25.59,22.74-18.19,16.56-39.45,28.08-61.61,38.24-9.33,4.28-18.7,8.56-27.58,13.67-4.56,2.62-8.43,6.77-11.88,10.84-1.16,1.37-1.06,5.64.17,6.88a46.09,46.09,0,0,1,11.33,19.84,120.08,120.08,0,0,1,3.92,22.31c1,10.74,4.08,20.67,11,28.93,6,7.14,14.09,9.67,23.37,8.41,13.69-1.86,25.47-8.29,36.94-15.4a14,14,0,0,0,4.8-4.86c4.9-9,12-16,19.39-22.79,10.5-9.61,21.13-19.14,32.43-27.76,6.23-4.75,13.92-7.61,21-11.26,8.78-4.53,17.63-8.93,26.39-13.5,7.33-3.83,14.38-8.26,21.92-11.59,5.35-2.37,11.29-3.67,17.22-1.11,7.84,3.39,9.78,11.2,5.44,18.56-6.8,11.52-16.44,20.5-25.18,30.34-7.28,8.19-13.65,17.19-20.3,25.93-3.24,4.26-6.29,8.68-9.22,13.16-.63,1-.38,2.49-.53,3.75,1.31,0,2.82.41,3.89-.1,7.51-3.58,14.79-7.65,22.4-11,8.36-3.67,15.3-8.31,19.49-17,4.77-9.91,10.88-19.18,15.91-29,4.74-9.24,8.77-18.84,13.24-28.22a237.28,237.28,0,0,1,25.63-42c12.28-16.11,24-32.64,35.71-49.21,6.75-9.57,13.18-19.34,22-27.23,5.08-4.56,10.66-7.77,17.84-5.72,6.16,1.75,9,6.88,11.94,11.92a25.42,25.42,0,0,1,1.95,21.68c-4.48,12.55-9.55,24.92-15.09,37-2.19,4.79-6.32,8.68-9.55,13-8.84,11.81-17.64,23.65-26.54,35.43-2.76,3.65-5.75,7.11-8.35,10.3,6.84,2.23,13.49,4.42,20.17,6.53a8,8,0,0,0,3,.23c12.42-1,24.9-1.66,37.24-3.33,6.41-.87,12.6-3.47,18.82-5.48,6.85-2.22,15.6,1.34,18.65,7.81,2,4.15,1.24,9.48-2.8,11.23-13.93,6-20.41,18.49-27.81,30.34-3,4.77-6.58,9.16-9.93,13.7-2.09,2.83-3.18,5.82-1.57,9.88a25.92,25.92,0,0,0,15.64-9.46c4-5.19,7.36-10.84,11.06-16.26,5.77-8.46,14-14.28,22-20.28q17.42-13.07,35.27-25.58a33.39,33.39,0,0,1,19.17-6c9-.11,15.3-5.18,20.58-12.4,12.64-17.28,22.32-36.25,32.83-54.77,2-3.59,3.47-7.73,7.69-10.19,1.89-1.1,2.63-4.87,3.09-7.56.95-5.58,7.54-11.36,12.82-10.72,5.71.7,9.86,6.9,8.76,13.33a13.36,13.36,0,0,1-1.67,4.68c-7.3,11.84-14.81,23.55-22,35.42-6.81,11.18-13.7,22.33-20,33.81-12.27,22.49-27.43,42.81-44.64,61.68-5.8,6.36-11.57,12.75-17.51,19a28.42,28.42,0,0,1-6.12,4.67c-2.81,1.66-3,3.47-1,6.17A37.49,37.49,0,0,0,1252,339.2c8.18-8.71,15.73-18,23.77-26.85,4.65-5.12,9.57-10,14.69-14.7,9.81-9,18.78-18.56,26-29.78a26.86,26.86,0,0,1,6.31-6.68c4.31-3.26,9.27-2.68,13,1s4.68,9.64,1.33,13.64c-10.4,12.41-21.11,24.55-31.57,36.91-5.56,6.56-10.89,13.31-16.24,20-2.59,3.26-5,6.67-7.47,10l.92,1.19q17.14-5.31,34.27-10.61c4.77-1.47,9.66-2.63,14.28-4.48,2.17-.87,4.86-2.66,5.56-4.66,6.31-17.91,17.27-32.94,29-47.47,5.79-7.18,12.12-13.94,18.38-20.73a13.58,13.58,0,0,1,11.36-4.79c5.39.45,10.21,5.46,9.93,12-.61,14.41-1.67,29-11.58,40.72-6.86,8.15-13.68,16.41-21.35,23.75-4.14,4-10.05,6-15.09,9.09a18.53,18.53,0,0,0-4.7,4.16c8,1.75,15.3.61,22.42-2.28,4.75-1.93,9.64-3.54,14.42-5.39,4.39-1.7,7.29.5,6.73,5.32-.59,5-3.58,8.81-7.24,11.94-8.43,7.21-30.44,11.24-42.89,3.79-3.29-2-6.1-4.71-9.28-6.88a5,5,0,0,0-3.66-.83c-6.65,1.89-13.18,4.21-19.84,6.05-9.64,2.67-19.26,5.51-29.06,7.4a27.05,27.05,0,0,1-20.33-4c-.92-.6-3.16-.28-4.14.46-7.74,5.91-16.42,9.32-26.09,8.59-3.69-.28-7.37-2.76-10.7-4.8-2.36-1.45-3.73-1.43-6.44-.32-11,4.55-22.07,10.79-34.63,4.72-.93-.45-2.12-.73-2.68-1.48-3.53-4.65-7.32-4-12.11-1.73-7.83,3.72-15.73,3.54-22.92-2.08-.51-.4-1.3-.65-1.51-1.16-2.16-5.1-5.4-3.51-9.25-2.06a192.47,192.47,0,0,1-21.62,6.94,23.39,23.39,0,0,1-18.86-3.45c-3.62-2.38-7-4.87-6.19-10.13a3.8,3.8,0,0,0-2-3.17c-1-.27-2.66.65-3.54,1.54-5,5-9.42,10.52-14.73,15.07-9.7,8.32-20.53,14.44-33.78,15.46A27.81,27.81,0,0,1,1009,369a6.08,6.08,0,0,1-1-3.13c-.54-3.68-2.5-5.19-5.82-3.51-8.07,4.1-16.24,8.14-23.8,13.07-6,3.95-11.64,4.86-18,1.67-3-1.49-6.14-2.62-9.16-4-1.26-.59-2.93-1.25-3.43-2.33-1.93-4.15-4.34-2.79-7.1-1.14-8.26,4.93-16.29,10.36-24.93,14.52-11.6,5.6-22.67,4.53-32.21-5.18-1-1-3.74-1.11-5.17-.48-13.64,6-27.45,11.55-42.69,8.53-17.56-3.49-30.54-13.44-38.46-29.69-5.49-11.27-6.72-23.35-6.88-35.64,0-1.41-.13-2.83-.18-4.24-.23-5.56-1.08-10.69-6.83-13.63-1.71-.87-2.86-2.86-4.49-4.57-1.38,1.19-2.53,2.14-3.64,3.13-16.52,14.75-32.51,30.17-49.74,44-12,9.7-25.87,17.17-38.74,25.89-13.48,9.13-28.25,15.73-43,22.37-13.55,6.11-27.56,11.2-42.81,8.88-6.68-1-13.64-2.34-19.64-5.24-10.33-5-18-13.19-21.54-24.44-.66-2.12.73-4.86,1.1-7.33a30.94,30.94,0,0,0,.17-3.12c-1,0-2.26-.37-2.92.1-10.41,7.39-23.16,7.21-34.74,10.79a97.54,97.54,0,0,1-17.73,3.54c-9.15,1-18.37,1.84-27.57,2.05a199.81,199.81,0,0,1-25-1,21.48,21.48,0,0,1-15.24-8.13c-2.1-2.69-4-1.83-6,.35-6,6.47-12.1,12.94-18.39,19.17a20.22,20.22,0,0,1-14.87,6.21c-4.38,0-8.73,1.75-13.15,2.17-11.3,1.09-20.59-3.11-28.07-11.5-2.41-2.71-3.6-2.65-5.47.35-7.24,11.6-23.61,14.1-33.86,5.19-2-1.76-4.06-4.63-6.21-4.74-1.95-.11-4,2.88-6.11,4.44-7,5.26-13.92,10.62-22.53,13.08-7.83,2.24-15.26,2.14-21.78-3.58-3.54-3.11-4.57-7-3.66-11.53a48.27,48.27,0,0,0,1.25-6.42,3.94,3.94,0,0,0-1.41-3.16c-.84-.46-2.34.09-3.48.43-.54.16-.94.85-1.35,1.34-8.83,10.67-17.23,21.74-26.59,31.92-8.23,8.94-12.07,19.55-15.51,30.78C206.68,458,201.9,470.5,197.32,483c-2.46,6.74-5.1,13.42-8,20-5.2,11.73-10.59,23.37-16,35-5.16,11-10.26,22.12-15.79,33Q138.44,608.39,119,645.58c-6.79,13-14,25.8-23.86,36.76-8.74,9.73-17.72,19.32-27.3,28.21a47.63,47.63,0,0,1-16.09,9.54c-13.35,4.76-26.81-6-26.81-20.17,0-10.4,3.65-19.74,7.68-28.85,9.2-20.76,18.43-41.55,28.75-61.76,8-15.61,17.6-30.37,26.52-45.5,7-11.8,13.52-23.88,21.06-35.31,13.63-20.7,27.64-41.16,44.23-59.7,8.56-9.56,16.93-19.3,25.61-28.76a155.73,155.73,0,0,0,20.89-27.81c2.07-3.63,2.42-8.26,3.46-12.46,2.23-9.06,4.5-18.11,6.54-27.21,1-4.35,1.32-8.84,2.18-13.22C212.16,357.6,213.13,356,214.08,353.62Zm-28.33,108-1.34-1c-2.48,2.83-5,5.66-7.43,8.51-.75.87-1.36,1.87-2.1,2.75-8.66,10.32-18.11,20.08-25.84,31.06-13,18.44-26.57,36.49-37.48,56.38-13.38,24.38-27.63,48.29-41.21,72.56a291.32,291.32,0,0,0-13.41,27.23c-4.4,10.23-8.16,20.75-11.83,31.28a36.76,36.76,0,0,0-1.56,10.76,4.88,4.88,0,0,0,2.55,3.68c.87.37,2.57-1,3.79-1.7a25.75,25.75,0,0,0,2.3-2c12.65-10.08,23.33-22.15,32.7-35.14,9-12.55,16.93-26,24.7-39.39,6.88-11.86,13-24.16,19.26-36.38,3.38-6.61,6.2-13.5,9.4-20.2,3.32-6.94,6.93-13.74,10.15-20.72,3.65-7.9,7-16,10.55-23.89,1.69-3.72,4-7.17,5.56-10.92,5.27-12.52,10.39-25.1,15.48-37.7C182,471.72,183.84,466.62,185.75,461.57Zm419.16-74.69c10.08.37,19.28-3,28.18-7.05,15.18-6.83,30.3-13.89,44.11-23.32,13.64-9.32,27.53-18.33,40.68-28.31,9.25-7,17.37-15.52,26.11-23.22,3.27-2.88,7-5.27,10.27-8.09.92-.78,1.2-2.3,1.78-3.48-1.52-.29-3-.69-4.57-.83-.55-.05-1.14.54-1.74.77-8.28,3.13-16.38,6.88-24.88,9.24-14.7,4.1-29.69,7.11-44.44,11-8.13,2.16-16,5.21-24,8-2.28.79-5.24,1.33-6.49,3-2.9,3.92-7,5.06-11.14,6.22-7,2-14.26,2.91-21.07,5.28-6.19,2.16-12.52,4.85-17.68,8.76A62.55,62.55,0,0,0,586,360.05c-3.4,5.15-5.66,11.12-2.53,18,2.5,5.5,6.29,7.79,11.88,8.16C598.52,386.4,601.71,386.65,604.91,386.88ZM834.3,237.31c1.75-.17,2.73,0,3.4-.37,8.55-4.66,17.35-8.95,25.49-14.25,7.06-4.6,13.5-10.19,20-15.65,10.29-8.7,20.29-17.74,30.54-26.49,10.64-9.08,21.68-17.71,32.1-27,18.77-16.78,33-37.56,49.07-56.7a28.21,28.21,0,0,0,3.7-5.8c4.76-9.8,9.5-19.61,14-29.52,3.51-7.68,6.78-15.47,9.93-23.3.53-1.32-.1-3.11-.24-5.37-2.2,1.45-3.42,2.31-4.69,3.08a105.08,105.08,0,0,0-29.14,26C976.88,77,965.86,92.49,954,107.34c-11.62,14.53-23.53,28.88-36.14,42.55-13.63,14.78-29.67,27.15-42.79,42.57-12,14.15-25.22,27.32-37.87,40.95C836.28,234.38,835.59,235.56,834.3,237.31ZM119.88,428.49c.83,1.33,1.23,2.7,2.05,3a3.59,3.59,0,0,0,3-.73c12.78-11,25.5-22.07,35.86-35.45,7-9,13.63-18.23,19.93-27.7a231.38,231.38,0,0,0,13.66-23.35c4.65-9.16,8.55-18.7,12.69-28.12a3.13,3.13,0,0,0-.22-2.56c-.22-.35-1.78-.34-2.28.07-4.54,3.69-9.27,7.2-13.38,11.33-9.49,9.55-18.64,19.43-26.11,30.72-7.22,10.91-14.55,21.75-21.65,32.73q-9.5,14.69-18.57,29.66C122.91,421.38,121.54,425,119.88,428.49Zm936-128.77,1.37.55c4.19-5.21,8.31-10.48,12.6-15.61,10.77-12.88,21.71-25.62,32.38-38.57,3.91-4.74,7.07-10.09,10.91-14.89,11.49-14.35,23.32-28.45,29.06-46.39,1.59-5,3.31-9.93,4.72-15,.27-1-.64-2.3-1-3.47-1.38.47-3.19.54-4.08,1.48a131.09,131.09,0,0,0-10,11.67q-15.45,20.9-30.57,42c-8.16,11.36-16.77,22.47-24,34.39-7.77,12.78-14.21,26.38-21.11,39.68C1055.59,296.73,1056,298.34,1055.91,299.72Zm41.33-18c-2.74,2.66-5,4.52-6.81,6.69-5.3,6.24-10.4,12.66-15.68,18.92-4,4.7-8.3,9.12-12.15,13.91-8.22,10.22-18.34,18.26-29.25,25.27a13.19,13.19,0,0,0-6.33,10.25c-.56,4.77,2.38,7.12,7.11,6a11.88,11.88,0,0,0,3.78-1.82c5.94-4,12.32-7.63,17.61-12.41,6.4-5.79,12.66-12.06,17.55-19.12,6.09-8.79,10.74-18.59,16-28C1092.29,295.54,1097,290.3,1097.24,281.7ZM996.36,291.82c-5.58-2.51-8.25,1.4-11.3,4-4.11,3.46-7.82,7.42-12,10.81-10.53,8.54-21.26,16.84-31.85,25.31-7.8,6.24-15.48,12.64-23.28,18.88-4.77,3.82-9.7,7.44-14.52,11.21-2.2,1.72-3.09,4.22-1.39,6.38.64.82,3.68.64,5-.13,8.46-4.82,16.93-9.66,25-15,14-9.24,24.46-22.41,36.67-33.64,7.79-7.17,15.73-14.19,23.41-21.47C994,296.44,995,294,996.36,291.82ZM328.68,313a27,27,0,0,0-2.35,2c-4.74,5.27-9.45,10.57-14.19,15.84-3.42,3.8-7.06,7.43-10.28,11.39A194.13,194.13,0,0,0,280.06,375a40.26,40.26,0,0,0-4,11.86c-.59,3.62,1.4,4.41,4.76,2.79,6.88-3.32,11.35-9.19,15.87-14.93a83.65,83.65,0,0,0,7.23-11.12c2.72-4.89,5-10,7.55-15,1.62-3.18,3.42-6.26,5-9.44,4.05-8,5.9-17.05,12-24C328.74,314.89,328.59,314.26,328.68,313Zm924.66-20.41c-3.92,1.71-7.81,2.45-10.4,4.69-15.24,13.21-30.22,26.72-45.17,40.26a26.89,26.89,0,0,0-5.44,7c-.86,1.58-.56,3.8-.78,5.74,1.77,0,3.74.64,5.27.06,12.23-4.62,21.74-12.93,30.22-22.66,5.24-6,10.71-11.81,16.25-17.54C1247.86,305.37,1252,300.5,1253.34,292.59Zm-144.28,55.47c3.07-1.36,5.82-2.79,8.71-3.82,16-5.71,27-17,34.82-31.63.53-1,.4-3.4-.18-3.7a4.68,4.68,0,0,0-4.11,0c-8.38,6.12-16.83,12.19-24.8,18.81-5.51,4.58-10.38,9.94-15.38,15.11-.8.83-1,2.48-1,3.76C1107.11,347.07,1108.37,347.57,1109.06,348.06Zm19.12-47.57a10.5,10.5,0,0,0-1.28-1.89c-6-5.15-12.85-3.86-17.15,3.06q-6.19,10-12.61,19.79c-1.33,2-2.24,4.23-.09,5.73.73.51,3.74-.87,4.56-2.13,6-9.21,14.59-15.38,23.53-21.25C1126.33,303,1127.14,301.65,1128.18,300.49Zm261.77-21.11c-.45-1-.77-3-1.6-3.25-1.17-.34-2.91.33-4.07,1.09a12.76,12.76,0,0,0-3.08,3.39q-8,11.29-16,22.64a26.67,26.67,0,0,0-2.73,4.17,3.31,3.31,0,0,0,.4,2.69c.2.31,1.72.13,2.38-.26,10.41-6.29,17.94-15.2,23.31-26A29.65,29.65,0,0,0,1389.95,279.39Z"/><path class="a" d="M1379.25,222.24c-.1,4.64-3.74,7.88-8.65,7.7-2.9-.11-7.35-4.51-7.35-7.27,0-3.71,4.73-8.1,8.55-7.91C1375.92,215,1379.33,218.39,1379.25,222.24Z"/><path class="a" d="M1097.24,281.7c-.25,8.59-4.95,13.83-8.22,19.7-5.23,9.38-9.88,19.18-16,28-4.89,7.06-11.14,13.33-17.55,19.12-5.29,4.78-11.67,8.36-17.61,12.41a11.88,11.88,0,0,1-3.78,1.82c-4.73,1.13-7.66-1.22-7.11-6a13.19,13.19,0,0,1,6.33-10.25c10.92-7,21-15,29.25-25.27,3.85-4.79,8.18-9.21,12.15-13.91,5.29-6.26,10.38-12.68,15.68-18.92C1092.27,286.22,1094.5,284.37,1097.24,281.7Z"/></svg>