<svg xmlns="http://www.w3.org/2000/svg" viewBox="0 0 1800 1799.54"><defs><style>.a{fill:#fff;}</style></defs><title>Artboard 1</title><path class="a" d="M1222.43,1478.89c-1.24,3-3,4.56-7.45,1.86-3-1.8-7.43-1.19-11.24-1.47-4.25-.31-8.52-.27-12.76-.59-12.12-.91-24.22-2.12-36.36-2.8-4.94-.28-9.93.49-14.9.81-.72,0-1.54.49-2.15.28-6.38-2.2-12.68-2.06-19.46-1.52-9.38.74-18.93-1.07-28.43-1.37-4.42-.14-8.87.92-13.31,1a22.16,22.16,0,0,1-5.78-1.12c-9.12,0-16.74.49-24.28-.14s-15.15-2.37-22.78-3.63c-6.21,6-7.26,6-14.69,1.37-1.19-.74-4.3,0-5.46,1.1-3.48,3.4-7.17,2.29-11.29,2.15-7.64-.27-15-5.67-23-1.33-1.36.74-3.71-.52-5.62-.61-7.66-.36-15.79-2.36-22.85-.44s-13.59,2-20.49,2.34c-3,.12-5.87,1.84-8.87,2.12a48.3,48.3,0,0,1-12-.12c-5.54-.9-10.77-2.56-16.32.56-2.15,1.21-5.34.62-8.06.76-12.6.66-25.21,1.84-37.81,1.79a347.39,347.39,0,0,1-40.54-2.27c-6.19-.75-12-4.67-18-7-11.87-4.5-19.58-14-24.87-24.39-5.47-10.76-10.94-22.25-10.77-34.89,0-3.6,2.24-7.51,4.36-10.68,7.52-11.24,8.37-23.91,8.61-36.75.21-11.33,3.36-21.92,7.23-32.45,1.51-4.11,1.52-8.79,2.14-13.22.27-1.91.1-3.91.57-5.76,2.48-9.75,5.15-19.46,7.66-29.21,1.52-5.87,3.08-11.73,4.23-17.67.63-3.27,0-6.8.74-10,1.55-6.64,3.66-13.15,5.48-19.74a15.06,15.06,0,0,0,0-3.09c-7.32.63-14.45,1.64-21.6,1.79-19.59.43-39.2.35-58.79.78-8.33.18-16.64,1.19-25,1.71-12.52.78-25,1.47-37.57,2.19-8.3.48-16.59,1.15-24.89,1.37-8.6.22-17.43-1.19-25.78.27-10.49,1.83-20.74.52-31.1.69-3.56.06-7.08,1.45-10.65,2-5.44.86-10.89,1.79-16.37,2.17-3.64.26-7.52-1.23-11-.48-12.89,2.79-25.73,1.31-38.63.76-3-.13-6,2.41-9,2.51-8.65.28-17.32-.33-26-.08-7,.2-13.88,1.31-20.83,1.68-2.92.15-5.88-.59-8.83-.87a3.84,3.84,0,0,0-2.08.18c-9.66,5.38-20.71,2.13-30.73,5-11,3.1-22.17,2.34-33.31,2.93-8.62.45-17.23,1.17-25.82,2.07-3.89.41-7.7,2.08-11.57,2.18-6,.15-12-1-18-.82-8.45.28-16.87,1.44-25.32,2-6,.37-12.06.1-18.06.54-5.81.43-11.57,1.59-17.38,2.07-6.75.56-13.54.69-20.31,1.08-5.66.33-11.21-.81-17,1.74-4.19,1.83-9.73.68-14.67.68-13.34,0-26.7.26-40-.32-10.37-.46-20.69-2.08-31-3.09-3.47-.34-7.06,0-10.45-.62-8.38-1.63-16.65-3.84-25-5.45-2.08-.4-4.42.58-6.3.87-4.81-1-9.57-1.8-14.2-3.06a28,28,0,0,1-6.66-3.23c-5.91-3.5-11.34-8.31-17.69-10.46-14.22-4.81-15.75-18.64-22-29-1.65-2.73-.25-7.21-.62-10.86-.31-3.09-1.27-6.12-1.7-9.21a8.06,8.06,0,0,1,.76-3.17c.78-2.51,1.79-5,2.39-7.53.95-4.09,5.82-8.11,10.24-8.18a49,49,0,0,1,5.85-.13c6.52.68,11.17-2.73,16.15-6.29,5.22-3.73,11.22-6.34,16.86-9.49,2-1.12,3.9-2.39,5.87-3.56,4-2.36,8-4.67,12-7.05s7.7-5.09,11.81-7.1c5.62-2.75,12.24-4,17-7.79,2.73-2.17,5.75-4.08,8.35-6.36,4.73-4.13,10.73-4.92,16-7.57,3-1.49,5.41-3.93,8.23-5.73,4.11-2.63,8.34-5.08,12.52-7.58,6.78-4.05,13.51-8.17,20.37-12.09a33.74,33.74,0,0,1,8.24-3.64c9.21-2.33,16.35-8.72,24.92-12.23,3.89-1.59,7.93-2.81,12.49-4.4,1.68-1.21,4-3,6.49-4.63,5.34-3.39,10.57-7,16.2-9.86,8.68-4.36,17.77-7.88,26.46-12.22,5.11-2.55,9.62-6.27,14.65-9,14.15-7.65,28.41-15.09,42.67-22.54q15.34-8,30.77-15.85c9.74-5,19.52-9.84,29.28-14.75,8-4,16.08-7.9,23.95-12.15,2.78-1.5,5.07-3.93,8.88-7,6.8,1.88,12.81-4.87,19.94-8.07,11.26-5.05,22.36-10.5,33.35-16.14,9.27-4.76,18.16-10.23,27.45-15,3.13-1.59,7.16-1.36,10.38-2.83,3.69-1.68,6.92-4.34,10.38-6.53.64-.41,1.47-.51,2.14-.88,11-6.06,22.14-11.91,32.93-18.33,4.93-2.94,9.41-5.9,15.58-5.18,1.73.2,3.71-1.83,5.58-2.83,6-3.22,11.93-6.73,18.14-9.55,4.08-1.86,7.5-5.7,12.88-4.51,1.17.26,3.7-1.49,4.17-2.82,2.93-8.25,10.9-9.12,17.26-12.34,7.6-3.84,15.16-7.75,22.87-11.34,5.48-2.55,11.26-4.44,16.76-7,4.16-1.91,8-4.43,12.14-6.49,2.38-1.19,4.89-2.71,7.43-2.89,8.77-.63,14.39-8.08,22.49-9.91,2.49-.56,5.11-.57,9-1L720,819.6l.82,1.07,6.87-5.28a11.76,11.76,0,0,1,2.72-2c8-2.89,16-5.58,24-8.5,7.1-2.6,13.64-6.32,20.19-10.08,3.21-1.84,7.09-2.48,10.62-3.82a75.41,75.41,0,0,0,9.7-4.17c1-.55,1.22-2.51,1.93-4.14l4.09,1.09c.58-7.93,7.45-4.74,11.34-6.55,4.17-1.94,8.92-2.64,13.5-3.91-.29-1.51-1.84-3,2.38-5a84.43,84.43,0,0,1,28.68-8.23c2.93-.27,5.65-2.69,8.87-4.32.84-1.24,2.17-3.13,3.41-5.08a9,9,0,0,0,1.72-3.39c.67-6.05.68-12.22,1.79-18.18,1-5.17,3.09-10.13,4.68-15.19a5.68,5.68,0,0,0,.57-2.69c-3-12.14,2.79-23.27,3.93-34.92.52-5.36.75-10.75,1.46-16.07.9-6.81,2.35-13.55,3.19-20.37.6-4.92.37-10,.94-14.88.37-3.17,1.68-6.22,2.29-9.38,1.78-9.2,1.42-19.55,5.75-27.29,3.39-6.06,2.23-9.69,1.28-15.18-.84-4.82,1-10.21,2.11-15.25,1.78-8.15.54-9.23-7.6-7.77-6.09,1.09-12.37,1.23-18.58,1.53-10.23.49-20.47.83-30.71,1.12s-20.45.25-30.66.68c-19.13.81-38.25,1.82-57.37,2.8-24.84,1.28-49.67,2.69-74.52,3.86-8.1.38-16.23,0-24.33.38-5.9.3-11.76,1.72-17.66,2-15.21.69-30.46.72-45.66,1.57-19.28,1.07-38.52,2.67-57.78,4.07-16.67,1.21-33.33,2.81-50,3.59-15.4.72-30.86.31-46.27.9-13.16.5-26.29,2.47-39.43,2.38s-26.53-2.05-39.8-3c-7.91-.54-15.88-.28-23.74-1.16-2.71-.3-5.21-2.9-7.7-4.59-3.53-2.4-7.06-4.83-10.41-7.48-1.68-1.33-4.19-3.16-4.19-4.77,0-5.75-3.89-10.14-5.1-15.56a71.36,71.36,0,0,1-2.11-15c0-1.48,1.14-3.09,2.07-4.42a115.92,115.92,0,0,1,7.15-9.64c4-4.62,9.59-4.59,14.9-4.09,6.48.61,12.9,2,19.33,3.13,12.69,2.21,24.85,6.41,38.33,5.21,14-1.24,28.31.88,42.46.63,15.63-.27,31.24-1.81,46.88-2.28,4.67-.14,9.38,1.61,14.11,2.16a12.35,12.35,0,0,0,5.24-.94c3.67-1.28,7.16-2.7,10.94,0a4.91,4.91,0,0,0,4.13.19c5.25-2.44,10.06-2.29,13.71.92,3.9-.87,7.11-2,10.37-2.23q19.84-1.46,39.71-2.44c11.7-.58,23.42-.79,35.12-1.4,3.43-.18,6.8-1.59,10.24-1.77,18.72-1,37.45-1.74,56.18-2.49,6.57-.26,13.22.33,19.7-.5,12.29-1.56,25,.7,37-4.07,1-.41,2.54.51,3.84.59,3.53.21,7.07.21,10.59.47,1.83.14,3.62.89,5.43.91,1.27,0,2.56-.74,3.82-1.2.63-.23,1.42-1,1.8-.78,4.77,2.32,10.66-2.27,15.11,2.46.39.42,2.45-.07,3.21-.74,7.61-6.67,16.43-3.17,24.84-3.13,2.85,0,5.71,0,8.56-.22,10.22-.69,20.45-1.39,30.65-2.27,1.1-.09,2.11-1.32,3.22-.58,2.52.1,5,.22,7.56.31,7.77.28,15.54.63,23.31.79a84.62,84.62,0,0,0,11.13-.39c6.7-.75,13.34-2,20-2.69,3.63-.4,6.64-.9,6.28-5.63-.39-5-.62-10.07-.87-15.1-.07-1.34-.57-3.24.11-3.93,4-4.1,1.59-9.08,2.34-13.59.25-1.5,1.88-2.76,2.85-4.15s2.72-2.84,2.44-3.79c-2.68-9.36-2.62-18.19,1.13-27.55,1.78-4.44,3.86-10.14.42-15.79-.9-1.49,1.94-5.25,3.55-9.16l-4.56-3.49c1.74-7.62,5.18-15.63,4.76-23.43-.27-5-1.64-10.11-1.13-15.43s.25-10.56.39-15.84c.11-3.88.1-7.79.58-11.63.33-2.65,1.52-5.19,2.08-7.83a10.46,10.46,0,0,0,0-4.29c-.64-2.87-1.89-5.63-2.29-8.52a99.52,99.52,0,0,1-1.15-14.7c.07-5,1.47-10,1.27-15-.15-3.93-1.83-7.81-2.82-11.67,4.35-9.1-3.2-15.86-4.69-24.4l4.76-1.11c-.59-3-.59-6.11-1.79-8.6-2.32-4.83,1.5-7.17,3.7-9.8,2.43-2.91,6.47-4.55,8.64-7.59,3.16-4.42,6.54-4.83,11.47-3.83a53.43,53.43,0,0,0,16,1c8.6-.92,13.14,5.47,18.41,9.8,2.91,2.39,6.63,6.43,5.09,11.85-.18.62,1.77,2,2.9,2.81,3.74,2.71,4,5.32,1.1,7.3,0,4.39.62,8.21-.17,11.73-.85,3.83-3.5,7.25-.68,11.37.65.94.17,2.67.17,4,0,10.82.09,21.64-.14,32.46-.1,4.75-1,9.47-1.37,14.22-.76,11.15-1.39,22.32-2.05,33.48q-1.18,20-2.32,40c-.34,5.86-.63,11.73-1.11,17.58-.66,7.94-1.75,15.85-2.13,23.8-.24,5,.56,10.08.73,15.13a34.45,34.45,0,0,1-.61,5c-.24,2.13-.32,4.29-.69,6.39-.55,3.14-1.34,6.24-2,9.37-1.19,6-2.44,12.07-3.46,18.14-.51,3-.49,6,4,5.76,12.53-.6,25.06-1.21,37.6-1.67,5.79-.22,11.59-.12,17.38-.15,6.93,0,13.85-.13,20.78,0a25.33,25.33,0,0,1,5.44,1.16c1.33.33,2.79,1.34,3.92,1,4.83-1.33,9.45-3.77,14.33-4.42,6.14-.82,12.47-.35,18.72-.34,7,0,14.09,0,21.13.2,6.19.15,12.37.83,18.55.74,7.08-.1,14.18-.59,21.23-1.29,7.64-.77,15.25-3,22.72,1,.8.43,2.39-.77,3.65-1.06,6.6-1.51,13.12-1.2,20.19,0,2.05-.63,5-1.56,7.92-2.42.54-.16,1.57-.27,1.68-.05,3.68,7.24,8.37,1.74,12.86,1.31,11.75-1.13,23.55-1.74,35.34-2.37,9.31-.5,18.64-.87,28-1q18.37-.27,36.75-.06c13.36.16,26.71.93,40.06.77,7.23-.09,14.42-1.9,21.67-2.28,3.83-.2,7.77.83,11.59,1.61,4.79,1,9.94,1.45,14.16,3.64,5.65,2.94,10.73,7.12,15.64,11.26.93.79-.11,3.91.94,4.84,4.09,3.9,10.05,7.13,11.74,11.88s-.27,11.24-1.74,16.66c-.88,3.25-4.25,5.74-5.77,8.93-1,2,.23,5.38-1,7a38.49,38.49,0,0,1-9.63,8.91c-5.18,3.23-10.68,6.81-16.5,8-8.18,1.63-14.06,6.44-20.73,10.54-8.39,5.15-17.38,9.36-26.23,13.74-7.63,3.77-15.12,8.44-23.23,10.38-7.28,1.75-11.65,9.06-17.89,9.43-7.68.46-11.8,6.29-18.44,8.2-9.45,2.72-17.92,8.83-26.86,13.39-4.72,2.41-9.53,4.64-14.31,6.92q-6.94,3.3-13.92,6.53-9.61,4.45-19.25,8.84c-1.67.76-3.68,1.16-5,2.34-6.51,6-15.39,6.62-22.87,10.34-3.62,1.79-6.68,4.74-10.34,6.39-3.26,1.47-7.2,1.41-10.49,2.83-8.77,3.79-17.4,7.9-26,12.11-3.4,1.67-6.17,5-10.63,3-.41-.19-1.74.8-2.13,1.52-2.52,4.7-7.38,5-11.66,6.45s-8.26,2.78-12.24,5.37c-6.08,4-13.53,5.81-20.42,8.5-.7.28-1.66,0-2.3.34-5.58,3-11,6.45-16.7,9.2-5,2.4-10.39,3.94-15.48,6.17s-10,4.81-15,7.26c-8.18,4-16.33,8.1-24.55,12-10.59,5.08-21.2,10.14-31.88,15a82.31,82.31,0,0,1-13.18,4.66c-3,2.1-5.76,4.55-9,6.21-5.05,2.61-10.43,4.59-15.58,7-6.42,3-12.86,6.08-19.05,9.55-1.61.9-2.9,3.24-3.35,5.16-1.21,5.11-1.89,10.34-2.85,15.95l-2.65-.15c.36,1.08.7,1.93.93,2.82,1,3.8,1.58,6.74-2,10.5-2.37,2.46-1,8.51-1.3,12.86l-1.33-.9c-1,4-2.33,8.29-2.92,12.67-.21,1.57,2,3.35,2.1,5.1.28,4.68-1.16,9-2.84,13.46a75.86,75.86,0,0,0-3.75,15.09c-.66,4.14,1.13,9.5-.9,12.42-4.1,5.89-.78,12-2.59,17.83-1.86,6-2.14,12.45-4.17,18.33-.77,2.24-2.07,3.47.07,5.4.27.24-.05,1.82-.5,2.08-4.73,2.66-2.63,6.7-2.51,10.54.3,9.61-1.85,18.75-4.32,28.09-2.73,10.31-2.94,21.33-3.85,32.07-1,12-.94,24-5.55,35.53-1.81,4.52-1.48,9.93-1.94,14.95-.74,8.21-1.07,16.46-2.09,24.63-.54,4.37-2.28,8.58-3.26,12.9-.75,3.3-1.1,6.68-1.75,10-.39,2-1.27,3.92-1.52,5.92-.62,5-1,10.06-1.5,15.09-.19,1.92.19,4.28-.79,5.66-3.47,4.9-4.39,10.24-4.86,16.1-.53,6.45-2.54,12.77-3.53,19.2-1,6.28.4,6.45,6.34,5.93,9.37-.81,18.7-1.34,28.28,1.67,5.79,1.82,13.16,6,19.91-1.33,2-2.16,8.66-.16,13.16.22,2.38.2,4.7,1.13,7.07,1.54,10.56,1.81,20.63-2.6,31-2.53,13.16.09,26.31.33,39.47.45,2.92,0,5.84-.26,8.76-.3,8.42-.13,17-1.27,25.24-.08,14.49,2.09,28.8.23,43.19.17,4.19,0,8.37,1.39,12.59,1.76,5.12.44,10.27.46,15.41.7,4.22.2,8.44.45,12.66.69.17,0,.41.32.49.27,7.49-4.5,14.63,1.81,22,.69,1.33-.2,2.66-.5,4-.81,2.95-.69,5.57-1.15,8.35,1.28,1.61,1.41,4,1.14,6.9.5,5.13-1.15,10.8-4.76,16.62-1,1.29.84,3.69,0,5.58-.08,10.8-.18,21.6-.52,32.4-.44,8.89.06,17.79,1,26.67.87,10.31-.19,20.6-1.43,30.91-1.72,4.73-.13,9.49,1.16,14.26,1.42,7.06.39,14.14.36,21.2.66,9.52.41,19,.95,28.53,1.49,11.71.66,23.42,1.31,35.13,2.1q15,1,30,2.34c9.11.8,18.19,1.8,27.29,2.72,10.3,1,20.61,2,30.89,3.2a43.19,43.19,0,0,1,7.73,2.16c6.15,1.94,12.4,3.64,18.39,6,8.05,3.14,12.23,11,18.63,16.17,2,1.62,4.25,2.95,6.41,4.42,0,4.39.95,9.88-.24,14.86-1.48,6.17-4.37,12.11-7.42,17.73-.95,1.75-4.38,2.15-5.7,3.68-2.46,3.47-4.86,7-7.4,10.4-.92,1.23-2.83,2-3.17,3.32-1.39,5.21-5.36,4.45-8.85,3.87-8.12-1.36-16.32-2.62-24.2-4.91-6.71-1.95-13.86-4.17-19.3-8.28-6.41-4.85-13.56-3.79-20.3-5.4a117.6,117.6,0,0,0-19.89-2.51c-14.93-.94-29.89-1.45-44.83-2.29-9.26-.53-18.49-1.44-27.75-2-9.42-.59-18.54-3.21-28.29-2.3-7.82.73-15.91-1.63-23.91-2.35-2.93-.26-5.94.43-8.9.35-2.35-.06-4.69-.89-7-.93-7.06-.12-14.13.12-21.19-.08-4-.12-8-.93-12.07-1.22-2.43-.17-4.9.06-7.35.11-3.5.07-7,.36-10.5.17-7.39-.4-14.76-1-22.13-1.62-4.61-.38-9.22-1.21-13.83-1.25s-9.52,1.05-14.26,1c-10.83-.22-21.65-.93-32.48-1.3a29.91,29.91,0,0,0-5.65.81c-1.42.23-3.28,1.21-4.19.65-7.81-4.91-16.29-.71-24.39-2-9.4-1.46-19.54.14-28.4-2.64-6.93-2.17-11.22,2.59-17.14,2.23-13-.78-26.06.33-39-.8a146.46,146.46,0,0,0-26.32.17c-2.63.24-5.37-.85-8-.77-5.95.17-11.89,1.06-17.82,1-11.12-.12-22.22-1-33.34-1-10.31-.06-20.63.65-30.94.76-5.46.06-10.92-.47-16.39-.68-6.82-.25-13.65-.59-20.47-.52-1.17,0-2.86,1.66-3.37,2.92a87.11,87.11,0,0,0-3.89,11.9c-2.41,9.91-4.87,19.83-6.7,29.86-.72,3.92.59,8.17.25,12.22-1.29,15.33-4.06,30.19-11.43,44.13-2.39,4.52-6,10.08-1.34,16.63,1.79,2.53.62,9.12-1.59,12.07-4.32,5.77-5.54,12-6.62,18.65-.76,4.7-2.88,9.18-3.81,13.87-.89,4.48-1.74,9.21-1.18,13.65.26,2.06,3.8,5.1,6,5.28,11.32.9,22.7,1.11,34.06,1.3,1.85,0,3.73-1.27,5.59-2,1-.39,2-1.2,3.08-1.2,7.09,0,14.18.07,21.27.22,7.79.17,15.58.69,23.37.62,12.71-.11,25.42-.72,38.14-.83,13.39-.12,26.78.27,40.17.13,15.92-.17,31.83-.92,47.74-.9,6,0,12.05,1.58,18.1,2.18,2.23.22,4.54-.47,6.82-.51,7.65-.13,15.3-.09,23-.23,9.45-.17,18.91-.6,28.36-.62,3.64,0,7.27,1.06,10.91,1.16,9.52.26,19.05,0,28.56.42,6.58.27,13.11,1.54,19.68,1.9,10.59.57,21.19.81,31.8,1,2.62.05,5.31-1,7.87-.69,9.94,1.13,19.79,2.77,29.87,2.66,14.09-.14,27.89,2,41.82,4.46,11.86,2.12,24.4.65,36.63.46,5.41-.09,10.13,2.45,15.72,2.48,16.35.08,32.69,1.63,49,2.73,1.65.11,3.21,1.17,4.85,1.67,2,.61,4.14,1.66,6.15,1.53,18.46-1.21,36.8-1.11,55.14,2,7.12,1.21,14.54.51,21.79,1,12.4.91,24.77,2.3,37.17,3.1,10.29.67,20.63.64,30.93,1.18,7.35.38,14.66,1.37,22,1.76,9.27.5,18.56.66,27.84,1,16.29.62,32.6,1,48.87,2,16.8,1.08,33.56,2.87,50.33,4.33,9.16.8,18.39,1.13,27.47,2.48,12.46,1.84,25.15,3.12,35.3,12.29,2.36,2.13,6.71,2.37,10.23,2.85,5.85.81,10.36,2.79,12.53,8.94,1,2.91,3.22,5.46,5.16,8,2.26,2.9,2.73,5.19,1,9-2.61,5.74-6.88,11.68-3.19,18.77a4.57,4.57,0,0,1-.28,3.74c-3.66,6.29-3.51,15.23-14.18,16.38-8.27.89-16.46,3.79-24.32,6.78-10,3.8-17.78-.41-23.43-7.2-4.2-5-9.7-7.2-14.71-9.62-7.28-3.53-15.66-5.06-23.74-6.58-5.65-1.06-11.6-.47-17.38-1-3.63-.33-7.18-1.79-10.8-2-6.82-.35-13.69.13-20.51-.23-6-.31-12.2-2.69-17.85-1.65-8.85,1.63-17-.9-25.4-1.82-5-.55-9.79-2.72-14.78-3.53-3.09-.51-6.47.7-9.56.19-8.82-1.45-17.53-.78-26.33,0-3.32.29-6.77-1.49-10.16-1.47-14.82.08-29.64.67-44.46.57-2.75,0-5.46-2.4-8.23-3.59-4.9-2.1-9.61-3-15.15-1.15a25.59,25.59,0,0,1-17.34-.19c-4.78-1.72-10.46-.91-15.74-1.19a18.67,18.67,0,0,1-2.92.1c-13.63-3-27.46-2.87-41.3-2.79-1.5,0-3-.67-4.52-.89-7.28-1.06-14.57-2.06-21.85-3.1-1.14-.16-2.26-.56-3.41-.64-3.67-.26-7.34-.43-11-.61-2.52-.13-5-.19-7.57-.33-.77,0-1.71-.66-2.25-.38-8.8,4.52-17.33-.72-26-.94-11.38-.29-22.71-2.8-34.06-4.36-.58-.08-1.27-.47-1.71-.27-9.44,4.36-18.85-1.62-28.42,0C1233.28,1481.74,1228.31,1479.78,1222.43,1478.89ZM104,1203.18c1.86,1.06,2.64,1.85,3.47,1.92,6.39.5,12.79,1.21,19.18,1.16,9.18-.07,18.34-.91,27.52-1.1,11.35-.23,22.71-.14,34.06-.17q3.62,0,7.25.1c2.8.08,5.6.33,8.4.28.85,0,2-1.34,2.49-1.09,6.57,3.14,12.9-.14,19.32-.58,23.61-1.63,47.23-3.24,70.83-5,13.11-1,26.18-2.34,39.29-3.29q35.26-2.56,70.54-4.81c11.26-.74,22.53-1.27,33.79-1.94s22.22-1.46,33.33-2.06c13.14-.71,26.3-1.13,39.43-1.93,9.75-.59,19.46-2,29.21-2.31,10.05-.34,20.13.18,30.2.31a8.6,8.6,0,0,0,1.16-.16c13-1.64,26-3.33,39.08-4.85,2.43-.28,5,.37,7.42.23,6.65-.36,13.28-1.12,19.93-1.29,3.16-.08,6.37,1.34,9.51,1.18,8.32-.43,16.61-1.37,24.91-2,1.51-.12,3,.1,4.57.06,6.07-.18,12.14-.5,18.21-.55a69.05,69.05,0,0,1,8.29.72c1.12.13,2.23.71,3.33.69,8.62-.17,17.25-.61,25.87-.59,4.55,0,9.11,1.23,13.63,1,3.73-.15,7.39-1.67,11.12-2.4,2.34-.46,4.75-.58,7.52-.9l1.77,2.07c3.25-1,5.73-2.22,8.29-2.39a92.48,92.48,0,0,1,15.79,0c4.26.45,5.73-1.56,6.32-5,1.13-6.53,1.87-13.14,3.19-19.63,2-9.75,5.11-19.33,6.3-29.16,2.11-17.47,4.36-34.82,8.23-52.06,3.24-14.46,3.57-29.56,6.26-44.18.92-5-4.21-11.31,1.06-14,.4-4.19.33-7.12,1-9.86.85-3.31,2.64-6.38,3.52-9.69,2.23-8.29,3.34-17,6.5-24.87,2.43-6.06,2.43-12,3-18.15.17-1.7.36-3.4.69-5.07,1.16-5.84,2.43-11.65,3.56-17.49,1.16-6,2.21-12,3.4-18.54-3.48-1.15-3-5.08-2.17-9,1.14-5.54,3.13-11,3.49-16.57.55-8.64,4.48-16.45,4.55-25.35.06-8.47,7.09-16,5.51-25.22-.08-.46.65-1,.71-1.56.52-4.71,1-9.42,1.51-14.78-11.41,6.08-21,11.69-31.08,16.41-9.46,4.45-19.4,7.87-29.06,11.93-2.88,1.21-5.49,3.09-8.26,4.57-1.7.91-3.57,1.51-5.21,2.5s-2.8,2.51-4.43,3.27q-14.78,6.92-29.69,13.58c-8.52,3.79-17.39,6.91-25.63,11.23s-18.66,4.37-25.73,11.58c-.74.76-2.1.9-3.14,1.39-7.27,3.38-14.83,6.27-21.74,10.28a386,386,0,0,1-51.15,25.37c-12.48,5-24,12.34-35.92,18.72-4.18,2.24-8.15,4.87-12.37,7-7.64,3.86-15.45,7.37-23.09,11.21-11,5.55-22,11.22-33,16.92-5.39,2.8-10.55,6.07-16.05,8.6s-11.57,4-17,6.71-10.18,6.71-15.45,9.76c-5.62,3.26-9.89,8.22-17.22,9.47-5.58.95-10.26,6.43-15.66,9.27-9.66,5.09-19.58,9.68-29.36,14.53q-28.51,14.12-57,28.33c-3.29,1.64-6.34,3.75-9.59,5.47-12.73,6.69-25.54,13.22-38.22,20-9.25,4.94-18.23,10.38-27.54,15.21-8.37,4.35-17.15,7.9-25.5,12.29-11.32,5.94-22.2,12.73-33.62,18.44-12.62,6.32-24,14.73-37,20.52-12.81,5.68-24.27,14.4-36.41,21.64C131.26,1187.3,118.12,1194.89,104,1203.18ZM1080,649.8c8.08-3.57,15-7.49,22.35-9.53,4.53-1.25,7.92-4.32,12.82-5.32,6.63-1.35,12.27-7,18.68-10.17,4.42-2.15,9.42-3.11,15.37-5a50,50,0,0,0,5.44-3.73c4.72-4,11.45-2.9,16.48-7.43,2.73-2.46,8.53-1.32,13-4.76,5.28-4.07,12.8-5.19,19.26-7.82,2.15-.88,3.93-2.62,6-3.69q10.63-5.45,21.37-10.68c4.61-2.23,10.36-3.21,13.77-6.58,5.51-5.45,11.77-8.89,18.65-11.9,7.12-3.12,14.06-6.7,20.89-10.42,4.49-2.44,8.65-5.49,13-8.27l-.78-1.66a16.24,16.24,0,0,0-2.66-.43c-17.69,0-35.37.23-53.06.08-21.4-.17-42.8-.91-64.2-.87-13.15,0-26.29,1.18-39.44,1.54-11.41.32-22.83.1-34.24.39-6.2.16-12.37,1.14-18.57,1.34-10.46.35-20.93.3-31.39.55-7.92.19-15.83.72-23.75.86-11.36.21-22.72.14-34.08.31-8.3.12-16.6.33-24.89.71-4.73.22-9,.59-9.75,7.26-1.34,11.89-3.57,23.68-5.56,35.49a58.78,58.78,0,0,1-2,7h.76L950.87,616c-2.51,1.84-8.14,40.4-6.93,46.56l1.82-4.76c3,8-.06,14.9-2.55,21.76-1,2.84-3.84,5-6.28,8.09l5,1.55c-.82,4.71-1.5,8.85-2.29,13a13.23,13.23,0,0,1-1.39,4.68c-.64,1-2.21,1.36-3.36,2l4.18,1.89.49,6.84c2.83-1.11,5.05-1.84,7.15-2.83,11-5.18,21.78-10.86,33-15.48,6.12-2.52,12.09-5,17.78-8.46,7.93-4.87,16.14-9.69,24.86-12.75,7.38-2.59,14.82-4.16,21.37-9.1,5.46-4.11,12-7,18.37-9.61,3.49-1.44,7.17-1.84,9.83-5.16,1-1.21,3.71-1.29,5.66-1.36s3.73.58,6.84,1.13Z"/></svg>