<?xml version="1.0" standalone="no"?>
<!DOCTYPE svg PUBLIC "-//W3C//DTD SVG 20010904//EN"
 "http://www.w3.org/TR/2001/REC-SVG-20010904/DTD/svg10.dtd">
<svg version="1.0" xmlns="http://www.w3.org/2000/svg"
 width="281.000000pt" height="281.000000pt" viewBox="0 0 281.000000 281.000000"
 preserveAspectRatio="xMidYMid meet">
<metadata>
Created by potrace 1.11, written by Peter Selinger 2001-2013
</metadata>
<g transform="translate(0.000000,281.000000) scale(0.100000,-0.100000)"
fill="#000000" stroke="none">
<path d="M610 2600 l0 -180 33 -1 c17 -1 47 0 65 1 l32 2 0 -311 0 -311 55 0
55 0 0 -55 0 -55 63 0 63 0 -1 -60 -1 -60 63 0 63 0 0 -125 0 -125 -63 0 -64
0 1 -52 1 -53 -60 -5 -59 -5 -1 -50 c0 -55 4 -52 -80 -54 l-40 -1 0 -357 0
-358 -60 -5 -60 -5 -1 -172 -2 -173 37 -1 c20 0 374 -1 786 -2 l750 -1 3 187
c2 146 0 187 -10 188 -7 0 -34 1 -60 1 l-48 -1 0 348 0 348 -60 -2 -60 -2 0
58 0 58 -62 3 -63 3 0 58 1 57 -61 0 -62 0 0 125 0 124 61 3 61 3 0 50 0 50
58 3 c62 3 60 1 60 75 l-1 37 59 0 c33 0 59 3 60 8 0 4 1 142 2 307 l2 300 30
1 c17 1 45 2 63 3 l32 1 0 180 0 180 -790 0 -790 0 0 -180z m1331 27 c2 -18 3
-44 1 -59 l-3 -28 -539 0 -538 0 -3 33 c-2 17 -3 44 -1 58 l3 27 539 0 538 1
3 -32z m-3 -450 l-3 -242 -55 0 -55 0 -5 -55 -5 -55 -55 0 -55 0 -2 -40 c-1
-22 -2 -52 -2 -66 -1 -24 -3 -25 -56 -24 -31 1 -58 -2 -61 -7 -3 -5 -6 -31 -6
-59 l1 -49 -58 0 -57 0 1 55 c2 44 -1 55 -14 56 -9 0 -36 1 -61 2 l-45 1 0
-59 0 -60 57 -3 57 -3 3 -117 3 -117 52 1 c58 1 62 -3 61 -66 0 -19 0 -41 1
-47 1 -9 20 -13 61 -13 66 0 65 2 60 -87 -2 -36 -7 -33 90 -37 l35 -1 0 -52
c0 -28 3 -55 7 -59 4 -4 31 -7 60 -8 l53 -1 0 -288 c0 -159 -2 -292 -5 -295
-3 -4 -30 -7 -62 -8 l-56 0 0 30 c1 90 4 86 -57 86 l-55 0 0 60 0 60 -63 0
-63 0 1 -57 c1 -64 9 -71 77 -66 l39 3 -3 -57 -3 -58 -60 0 -60 0 0 55 0 55
-57 3 -58 3 0 59 0 60 -60 0 -60 0 0 65 0 65 -60 0 c-41 0 -60 -4 -61 -12 -3
-32 2 -102 7 -107 3 -3 29 -6 57 -6 l52 0 1 -52 c2 -76 4 -79 63 -77 l51 2 0
-57 0 -57 -57 1 -58 1 -2 39 c-1 22 -2 48 -2 58 -1 14 -11 17 -56 17 l-55 0 0
60 0 60 -63 0 -63 0 1 -57 0 -58 -60 -5 -60 -5 0 -53 c1 -29 -3 -52 -9 -53 -6
-1 -33 -2 -61 -3 l-50 -3 2 281 c1 155 2 289 3 298 0 14 9 18 43 17 78 -2 76
-4 79 54 l3 52 55 0 55 0 0 66 0 66 58 -3 c33 -1 60 3 64 9 4 6 6 30 6 54 -1
24 4 46 10 50 6 4 33 5 59 4 l48 -2 0 126 0 126 -42 -2 c-77 -3 -76 -3 -76 49
0 26 -1 53 -1 60 -1 8 -20 12 -61 12 -66 0 -63 -3 -60 78 2 46 4 45 -77 44
-31 -1 -43 3 -44 13 -1 8 -3 33 -4 55 -1 22 -3 44 -4 49 0 5 -25 8 -53 8 l-53
-2 -2 230 c-1 127 0 235 2 241 2 7 168 11 539 12 l536 2 -2 -243z m-730 -1746
l-3 -56 -50 0 c-56 0 -63 9 -57 75 l4 39 54 -1 55 -2 -3 -55z m835 -180 c15
-1 18 -8 15 -48 l-3 -48 -658 0 -657 0 0 47 c0 41 3 47 23 50 17 2 1209 1
1280 -1z"/>
<path d="M1094 2120 c1 -63 0 -62 56 -62 73 0 70 -3 70 62 l0 60 -64 0 -63 0
1 -60z"/>
<path d="M1341 2120 c-1 -42 3 -60 11 -61 7 0 36 0 63 1 l51 1 -3 -64 -3 -65
63 2 62 1 3 58 c3 62 6 59 -63 61 -22 1 -45 4 -50 8 -6 3 -10 31 -9 62 l1 56
-62 0 -62 0 -2 -60z"/>
<path d="M1584 2121 l0 -59 36 -4 c19 -1 47 -2 63 0 26 3 27 5 27 63 l0 59
-63 0 -63 0 0 -59z"/>
<path d="M1223 2046 c-6 -9 -7 -20 -4 -90 1 -22 5 -24 61 -24 l61 0 -3 62 -3
61 -53 1 c-29 0 -56 -4 -59 -10z"/>
<path d="M1341 1920 c-3 -8 -6 -22 -5 -30 1 -8 2 -30 3 -47 l1 -33 60 0 61 0
-3 63 -3 62 -53 0 c-39 1 -56 -4 -61 -15z"/>
<path d="M1340 1150 c0 -65 -4 -62 67 -62 53 -1 58 5 56 58 -1 27 -2 52 -2 57
-1 4 -28 7 -61 7 l-60 0 0 -60z"/>
<path d="M1345 850 c-2 -4 -4 -30 -4 -58 2 -56 5 -58 79 -57 l45 0 0 60 0 60
-57 2 c-32 1 -60 -2 -63 -7z"/>
<path d="M1465 727 c-2 -7 -3 -34 -2 -62 l2 -50 50 -1 c73 -1 75 1 75 67 l0
58 -61 0 c-37 -1 -62 -5 -64 -12z"/>
</g>
</svg>
