<svg version="1" xmlns="http://www.w3.org/2000/svg" width="374.667" height="374.667" viewBox="0 0 281.000000 281.000000"><path d="M70.7 11.7C68.2 21.9 58.9 57.1 48.5 96c-2.5 9.6-4.8 18.2-5 19-.1.8-1.5 6-3 11.5s-3.6 13.4-4.6 17.5c-1.1 4.1-3.4 12.7-5 19-1.7 6.3-4.4 16.5-5.9 22.6-1.6 6.1-3.9 14.7-5 19-1.2 4.3-3.2 11.9-4.5 16.9-4.2 16-7.3 27.8-10.5 40-1.8 6.6-3.3 12.7-3.5 13.5-.2.8-.4 1.9-.5 2.5-.1.5-.2 1.4-.1 2 .1 1.1 204.7 1.3 205.8.1.4-.3.8-1.2.9-1.9.1-.7 1-4.1 1.9-7.7.9-3.6 1.9-7.2 2.1-8 .2-.8 2.1-8.3 4.3-16.5 2.2-8.3 6-22.9 8.6-32.5 2.5-9.6 6.8-25.8 9.5-36 5.5-21.1 6.8-25.8 21.9-83.5 6.1-23.1 12.2-46.3 13.7-51.5 1.4-5.2 2.7-10.2 2.9-11 .2-.8 1.9-7.6 3.9-15.1S280 2 280 1.6c0-.3-46.5-.6-103.3-.6H73.5l-2.8 10.7zm118.7 43.8c7.1 3.4 12 12.2 11 19.8-1.8 12.6-6.6 24.6-10.7 26.8-2 1.1-3.1 1.2-16.9 1l-8.8-.1 2.6-4.3c3.9-6.6 5.3-10 5.9-15l.6-4.5-10.2.1c-11.2.2-11.3.3-12.4 6.9-.6 4.1-13.4 25.9-26 44.2-15.1 22.2-17.4 27.6-17.9 43.5-.4 11 1.3 22.7 3.8 26.6 1.2 1.8 2.5 2.1 12 2.3 5.8.1 10.6-.1 10.6-.4 0-.3-.6-1.7-1.4-3.3-.8-1.5-2.1-6.2-2.9-10.4-2.1-11.1-1.9-11.2 12.9-11.2h11.9l.9 6c1.5 10.5 3.4 16 8.7 23.9 5.7 8.7 7 12.1 5.8 15.3-1.5 4-4.2 4.5-24.3 4.6-23.5.1-28.3-.6-38.6-5.8-8.3-4.2-19.3-15.8-22.8-23.9-2.9-6.7-4.2-22.4-2.7-33.1.8-5.7 6.6-16.7 20.1-37.7 6.4-10.1 12.2-19.2 12.8-20.3.6-1.1 2.9-4.7 5-7.9 4.6-7.1 6.1-11.2 7-18.7 1.4-11.6 4.8-19.5 9.8-23.1 3.8-2.7 12.3-3.4 36.4-3.2 11.1.1 14.9.5 17.8 1.9z"/></svg>