<svg xmlns="http://www.w3.org/2000/svg" xmlns:xlink="http://www.w3.org/1999/xlink" viewBox="0 0 600 236"><defs><style>.a{fill:url(#a);}.b{mask:url(#b);}.c{fill:#ff895a;}.d{fill:#f14b08;}.e{fill:#a61820;}.f{filter:url(#c);}</style><radialGradient id="a" cx="-28.93" cy="171.65" fy="186.37590789531734" r="129.22" gradientTransform="translate(327.13 70.62) scale(1.27 0.79)" gradientUnits="userSpaceOnUse"><stop offset="0"/><stop offset="0.61"/><stop offset="0.66" stop-color="#040404"/><stop offset="0.71" stop-color="#101010"/><stop offset="0.76" stop-color="#232323"/><stop offset="0.8" stop-color="#3f3f3f"/><stop offset="0.85" stop-color="#626262"/><stop offset="0.9" stop-color="#8e8e8e"/><stop offset="0.95" stop-color="#c2c2c2"/><stop offset="1" stop-color="#fcfcfc"/><stop offset="1" stop-color="#fff"/></radialGradient><filter id="c" x="7.63" y="2.9" width="586.16" height="348.82" filterUnits="userSpaceOnUse" color-interpolation-filters="sRGB"><feFlood flood-color="#fff" result="bg"/><feBlend in="SourceGraphic" in2="bg"/></filter><mask id="b" x="7.63" y="2.9" width="586.16" height="348.82" maskUnits="userSpaceOnUse"><g class="f"><ellipse class="a" cx="290.99" cy="209.9" rx="205.7" ry="141.82"/><ellipse cx="302.03" cy="189.46" rx="73" ry="49.83"/></g></mask></defs><title>Artboard 2</title><g class="b"><path class="c" d="M592.37,192.93l-284.75,9.23,272.8-48.34q-1.93-4.39-4.09-8.69L306.77,202.19l-.95,0,248.92-90.84c-1.92-2.43-3.88-4.85-5.92-7.22L305.5,202.23l-.77,0L521.28,77q-3.34-2.82-6.81-5.55L304.73,202.25l-.76,0,0-.18L484.14,50.68q-3.54-2.1-7.16-4.13L304,202l.28-1.57.6-1.66L445.32,31.15q-3.54-1.49-7.14-2.91L305.06,198.33l2.27-6.25L407.73,17.85q-3.49-1-7-2L308.4,189.14,373.55,9.67q-3.4-.64-6.83-1.23L306.95,191.86l-1.71,3.21L338.64,4.7q-3.34-.32-6.71-.58L304.82,195.85l-2.92,5.48-1.13-2.12L304.12,2.93c-1.14,0-2.28,0-3.43,0s-2.16,0-3.24,0l3.17,196-1.72-3.23L271.79,3.95q-3.37.24-6.71.55l33.41,190.42-1.71-3.21L236.94,8.07q-3.44.57-6.85,1.19L295.32,189,202.8,15.33q-3.55.93-7.06,1.93L296.39,191.93l2.27,6.25L165.09,27.51q-3.63,1.4-7.19,2.88L298.83,198.63l.6,1.66.28,1.57L126,45.7q-3.66,2-7.24,4.11l181,152.13,0,.18-.76,0L88.06,70.54q-3.51,2.73-6.89,5.56L299,202.1l-.77,0L53.28,103.35q-3.1,3.58-6,7.25L297.9,202.06l-.95,0L25.37,144.54q-2.2,4.33-4.16,8.75L296.11,202l-287-9.31q-.87,4.83-1.44,9.72l289.47-.23,2.19.39.58.21.19,1.07-.15-1.05.5.18.43,1.19-.38-1.17.23.09v.52l.25-.43h0l.69-1.19.12.14-.12-.15.27-.48.29.5-.22.28.23-.27.19.32h0l.54.93-.17.07.17-.06.1.17-.09-.17.33-.12-.38,1.17.43-1.19.5-.18-.15,1.05.19-1.07.58-.21,2.19-.39,287.16.23Q593.21,197.72,592.37,192.93Zm-291.69,9.82-.44-.39-.06-.17h.49Zm-3.24-9,1.21,2.1.52,3-.13-.17Zm1.72,5.29.06.07,0,.24Zm-.15-2.56,1.61,2.8,0,1.44-1.27-1.62Zm.41,2.87,1.23,1.47,0,1.34-.5,0-.64-2Zm.73,2.92-.09-.08h.06Zm-.51-1.42.47,1.29H300l-.21-.19Zm.32,1.28h-.14l0-.12Zm-2.29.05h.57l.79.29Zm.83,0h1.28l.08.47-.44-.09Zm1.09.44.27,0v.07Zm.24-.44H300l.16.13.16.43-.43-.09Zm.08.57v-.08l.43.08.07.2Zm.55.22-.07-.21.14,0-.14,0-.12-.37.43.36v.32Zm.25.63v-.51l.22.08Zm.23-.43-.22-.09,0-.9h.69l-.69,0,0-1.23.84,1Zm.66-1.24-.85-1.08,0-1.32,1.09,1.9Zm2.35.18-.21.19h-.1l.47-1.29Zm0,.06,0,.12h-.14Zm-.26.18-.09.08,0-.08Zm.79-2.83,0-.24.06-.07Zm.61-3.5,1.21-2.1-1.6,4.92-.13.17ZM302,201.42l2.76-4.79-.37,2.63-2.11,2.69Zm.29.54,2.07-2.47-.12.84-.64,2-1.11,0Zm1,1.16-.34.14-.5-.93h1.1l-.06.17-.46.41.45-.38-.12.37-.14,0,.14,0Zm.55-.22-.49.2.07-.2.43-.08Zm0-.1-.43.09.16-.43.16-.13h.19Zm0,.08v-.07l.27,0Zm.45-.18-.44.09.08-.47h1.28Zm.39-.08.79-.29h.57Z"/></g><path class="d" d="M88,200.48V172.16a26.22,26.22,0,0,0,7,7.14,14.73,14.73,0,0,0,8.52,2.94,8.25,8.25,0,0,0,5-1.62,5.14,5.14,0,0,0,2.22-4.38,7.35,7.35,0,0,0-1.92-5,17.44,17.44,0,0,0-4.08-3.48Q96,161,92.54,156.2a26.41,26.41,0,0,1-4.92-15.84,31.76,31.76,0,0,1,1.44-9.12,39.64,39.64,0,0,1,4.44-9.6,23,23,0,0,1,8.7-7.92,26.67,26.67,0,0,1,13-3.12,36.49,36.49,0,0,1,17.4,4.56v27.48a24.52,24.52,0,0,0-6.42-6.78,13.51,13.51,0,0,0-8-2.94,6.92,6.92,0,0,0-4.38,1.56,4.84,4.84,0,0,0-2,4,7.71,7.71,0,0,0,2.4,5q.36.36,4.44,3.72,8.64,6,12,11,4.44,6.24,4.44,15.72,0,12.84-8.1,21.54t-20.7,8.7A47.09,47.09,0,0,1,88,200.48Z"/><path class="d" d="M145.46,139.28H169v34.08q0,6.12.84,8.52a3.52,3.52,0,0,0,3.72,2.4q3,0,3.84-2.34t.84-8.58V139.28h23.52V176.6q0,13.68-7.44,20.52T173.54,204q-13.56,0-20.82-7.14t-7.26-20.22Z"/><path class="d" d="M237.38,139.28l-.6,11.76.24.24a21,21,0,0,1,6.24-9.42,14.71,14.71,0,0,1,10-3.9q16.92,0,16.92,22.92v41.76H246.62v-32a23,23,0,0,0-.78-7,3.34,3.34,0,0,0-3.54-2.22q-3.12,0-4,2.58a27.12,27.12,0,0,0-.9,8.22v30.48H213.86V139.28Z"/><path class="e" d="M281.42,200.48V172.16a26.22,26.22,0,0,0,7,7.14,14.73,14.73,0,0,0,8.52,2.94,8.25,8.25,0,0,0,5-1.62,5.14,5.14,0,0,0,2.22-4.38,7.35,7.35,0,0,0-1.92-5,17.44,17.44,0,0,0-4.08-3.48Q289.46,161,286,156.2a26.41,26.41,0,0,1-4.92-15.84,31.76,31.76,0,0,1,1.44-9.12,39.64,39.64,0,0,1,4.44-9.6,23,23,0,0,1,8.7-7.92,26.67,26.67,0,0,1,13-3.12,36.49,36.49,0,0,1,17.4,4.56v27.48a24.52,24.52,0,0,0-6.42-6.78,13.51,13.51,0,0,0-8-2.94,6.92,6.92,0,0,0-4.38,1.56,4.84,4.84,0,0,0-2,4,7.71,7.71,0,0,0,2.4,5q.36.36,4.44,3.72,8.64,6,12,11,4.44,6.24,4.44,15.72,0,12.84-8.1,21.54t-20.7,8.7A47.09,47.09,0,0,1,281.42,200.48Z"/><path class="e" d="M363,139.28l-.6,8.76.24.24Q367.09,138,376.93,138a15.71,15.71,0,0,1,9.9,3.3,20.93,20.93,0,0,1,6.48,8.52,51.83,51.83,0,0,1,3.24,10.56,56.61,56.61,0,0,1,1,10.62,61.71,61.71,0,0,1-.9,10.5A56.46,56.46,0,0,1,393.73,192a19.85,19.85,0,0,1-6.18,8.64,15.4,15.4,0,0,1-9.9,3.3q-9.36,0-15-10l-.24.24q.6,9.84.6,11.76v25H339.5V139.28Zm4.56,44.88q5.76,0,5.76-14.28a28.37,28.37,0,0,0-1.26-8.64q-1.26-4-4.38-4-5.4,0-5.4,13.08Q362.29,184.16,367.58,184.16Z"/><path class="e" d="M412.33,147.32q7.56-9.36,22-9.36t22,9.36q7.56,9.36,7.56,23.64t-7.56,23.64q-7.56,9.36-22,9.36t-22-9.36q-7.56-9.36-7.56-23.64T412.33,147.32ZM440.77,171q0-15.36-6.48-15.36T427.81,171q0,15.36,6.48,15.36T440.77,171Z"/><path class="e" d="M502.69,202.64H479.17V158.12h-6.72V139.28h6.72v-18.6h23.52v18.6h7.8v18.84h-7.8Z"/></svg>