<svg xmlns="http://www.w3.org/2000/svg" viewBox="0 0 250 241.23"><defs><style>.a{fill:#231f20;}</style></defs><title>Artboard 22 copy 12</title><path class="a" d="M138.85,60.84V189.76a4.26,4.26,0,0,1-6.57,3.58L75.92,156.93H29.68a2.79,2.79,0,0,1-2.79-2.79V96.46a2.79,2.79,0,0,1,2.79-2.79H75.92l56.37-36.41A4.26,4.26,0,0,1,138.85,60.84Z"/><path class="a" d="M156.51,57.21h-3.15V63.6h6.3a61.55,61.55,0,0,1,0,122.93v-.08h-6.3v6.47h3.15a67.85,67.85,0,0,0,0-135.7Z"/><path class="a" d="M156.33,78.35h-3.18v6.41h5.31a41.53,41.53,0,0,1,.94,82.89h-6.24v6.47h3.18a47.89,47.89,0,1,0,0-95.77Z"/></svg>