<svg xmlns="http://www.w3.org/2000/svg" viewBox="0 0 250 250"><defs><style>.a{fill:#231f20;}</style></defs><title>Artboard 22 copy 4</title><path class="a" d="M185.62,67.9c2.23-2.36,4.43-4.75,6.69-7.07,3.33-3.42,6.77-6.73,10-10.2,2.85-3,5.54-6.19,8.31-9.28,2.34-2.62,4.83-5.12,7-7.88a24.82,24.82,0,0,0,3.09-5.75,68.24,68.24,0,0,0,2.12-6.63c.91-3,1.84-6.08,2.61-9.16.32-1.31.78-1.92,2.23-1.89,4.35.08,8.7.05,13.05,0,1.29,0,1.91.16,1.84,1.79-.17,4.15.26,8.35-.15,12.46-.44,4.38-1,8.8-3.76,12.63-1.75,2.4-2.73,5.35-4.31,7.89-1.72,2.77-3.79,5.34-5.62,8-2.69,4-5.17,8.11-8,12A47.74,47.74,0,0,0,214,77.93a24.91,24.91,0,0,0-1,7.27c-.1,4.36-.26,8.71.68,13.08a26.91,26.91,0,0,0,5.19,10.66c2.71,3.58,5.73,6.92,8.59,10.37a10.59,10.59,0,0,1,.84,1.53h-8.76a59.18,59.18,0,0,1-6-.11,4.67,4.67,0,0,1-2.84-1.29,125.23,125.23,0,0,1-8.18-10.14,34.22,34.22,0,0,1-5-9.22c-1-3.38-.84-7.13-1.14-10.72-.07-.87.13-1.77,0-2.64-.4-3.81.57-7.42,1.69-11,.67-2.1,1.93-4,2.78-6.08a51.44,51.44,0,0,0-9.27,14c-.62,1.32-.66,2.91-1.07,4.34-.71,2.52-1.56,5-2.24,7.54-.82,3-.78,3.06-4,3.06h-7.95a5,5,0,0,1-5.26-3.9c-1.16-3.67-2.71-7.25-3.46-11-.59-3-.28-6.13-.22-9.2a42.22,42.22,0,0,0,.23-4.65c-.73,1.62-1.56,3.2-2.18,4.86a40.06,40.06,0,0,0-2.13,18.07c.34,3.71.68,7.32,2.44,10.67,2.89,5.49,6.92,10.15,10.94,14.81.27.31.57.6.85.91s.54.63,1,1.18c-.31.19-.58.49-.84.48-2.22,0-4.43-.16-6.64-.21a44.87,44.87,0,0,0-6.77,0c-2.08.27-3.1-.95-4.16-2.17-2.44-2.83-4.81-5.73-7.14-8.65a28.11,28.11,0,0,1-6.55-20.21,35.86,35.86,0,0,0,0-4.73c-.24-4.21,1.18-8.06,3-11.65,3.79-7.53,8.7-14.39,13.53-21.29,2.81-4,5.18-8.3,7.74-12.47a30.67,30.67,0,0,0,2.85-4.93,32.52,32.52,0,0,0,2-7.41c.5-4.08.62-8.22.83-12.33A17.65,17.65,0,0,0,176,11.6c-.15-1.16.31-1.55,1.43-1.54,4.6,0,9.21,0,13.81,0,.84,0,1.51-.17,1.52,1.34s1.22,2.91,1.63,4.44c.77,2.87,1.38,5.78,2,8.69.22,1.08,0,2.26.33,3.32,1,3.66,0,7.09-1,10.53-.76,2.54-1.48,5.1-2.36,7.6-1.18,3.35-2.58,6.63-3.76,10s-2.13,6.61-3.24,9.9a10.07,10.07,0,0,1-1.07,1.82Z"/><path class="a" d="M129.75,9.11c4,0,8.05-.43,12,.13,3.63.52,7.06,1.81,9.55,5.25,2.83,3.9,2.76,7.82,1.9,12.09-.38,1.89-.27,4-1,5.69a58.59,58.59,0,0,1-4.46,8.25c-3.88,6.17-7.92,12.23-11.87,18.36-2.43,3.77-5,7.45-7.14,11.4-2.57,4.87-4.69,9.94-4.46,15.71.19,4.67-.4,9.45,1.24,13.92a82.22,82.22,0,0,0,4.28,8.55c1.49,2.94,3,5.87,4.43,8.85.39.83-1.62,2.81-2.61,3.35-3.59,2-7.38.35-11.05.77-3.19.36-6.46-.09-9.69.05-6.45.3-12.6-.67-18.26-3.92a36.09,36.09,0,0,1-9.15-7.23c-3.3-3.69-5.79-7.69-6.61-12.53a79.27,79.27,0,0,1-.67-9.63A28.37,28.37,0,0,1,78.9,73.61c1.58-3.06,3.38-6,5.23-8.91,4.54-7.1,9.2-14.12,13.74-21.22,2-3.17,4.36-6.27,5.71-9.74s1.58-7.31,2.35-11c.74-3.51,1.21-7.08,3.87-9.93,2.16-2.3,5-3.06,7.74-3.42,4-.53,8.12-.45,12.19-.63Zm-7.15,17.14c-.76,4.1-1.45,7.8-3.89,11.16-3.11,4.29-5.49,9.11-8.32,13.62-1.82,2.9-3.93,5.62-5.81,8.48-1.35,2.05-2.31,4.41-3.86,6.28a39.71,39.71,0,0,0-5.63,10.27C93,81,93.18,86.16,93.25,91.33a28.75,28.75,0,0,0,2.62,12.39,2.46,2.46,0,0,0,2.61,1.75c3.27-.13,6.55,0,9.83,0,.59,0,1.19-.08,2-.14-.72-1.67-1.45-3-1.9-4.47-1.31-4.2-1.33-8.53-1.36-12.9a32.37,32.37,0,0,1,1.29-10.45c2.4-7.37,7-13.46,11.26-19.77,1.83-2.72,3.9-5.28,5.63-8,2.81-4.48,5.23-9.23,8.21-13.59,2.05-3,1.73-6.35,2.8-9.82Z"/><path class="a" d="M59.93,41.48a42.41,42.41,0,0,1,3-5.43c2.28-3,2.52-6.81,2.89-9.92A9.72,9.72,0,0,0,64.58,26C61,26,57.51,26,54,25.93c-1.5,0-2,.73-2.11,2a18.77,18.77,0,0,1-3.26,9.14c-3,4.6-5.61,9.43-8.57,14-2.47,3.85-5.31,7.47-7.77,11.32-2.91,4.57-6.18,9-7.84,14.24a43.11,43.11,0,0,0-1.52,12,39.7,39.7,0,0,0,1.71,13c1.1,3.53,1.4,3.7,5,3.7H40.44c-2.79-3.32-2.95-7.14-3.66-10.76a14.14,14.14,0,0,1,0-4.41,1.82,1.82,0,0,1,1.38-1.06c5.09-.08,10.17,0,15.29,0,.34,2.76.61,5.47,1,8.15a26.81,26.81,0,0,0,5.59,12.1c2,2.59,3.84,5.42,3.47,9a2.52,2.52,0,0,1-.89,1.39c-2.6,2.31-5.84,1.64-8.87,1.73-4.66.15-9.33.16-14,.17a35.64,35.64,0,0,1-19.35-5.07A32.42,32.42,0,0,1,12,108.69a27.14,27.14,0,0,1-4.38-6.95c-1.9-5-2-10.29-1.86-15.56.08-3.93.54-7.89,2.33-11.37C10.5,70,13.35,65.47,16.2,60.92,21.8,52,27.7,43.24,33.06,34.17c1.46-2.47,1.55-5.79,2.13-8.75.78-4,1.33-8.07,3.66-11.48a8.8,8.8,0,0,1,6.79-4.2c8.61-.29,17.23-.56,25.83-.34A11.79,11.79,0,0,1,82.24,16a11.94,11.94,0,0,1,1.27,7.67A80.74,80.74,0,0,1,82,32.07c-.6,2-2.19,3.79-2.93,5.82-1.24,3.38-3.64,3.84-6.82,3.64C68.38,41.29,64.44,41.48,59.93,41.48Z"/><path class="a" d="M45.35,130.38a28.15,28.15,0,0,1,3.3-.42c8.51,0,17-.16,25.54,0,3.85.09,7.83.17,11.25,2.54a11.86,11.86,0,0,1,5,6.63c1,3.67.16,7.28-.34,10.92-.66,4.81-4,8.27-6,12.41a52,52,0,0,1-3.86,5.83c-2.88,4.37-5.6,8.85-8.64,13.1-3.31,4.61-7.3,8.66-12.7,10.73a28.83,28.83,0,0,1-8.56,1.66c-4.55.27-9.12,0-13.69.12a2.17,2.17,0,0,0-1.48,1.11c-2.32,4.62-2.41,9.54-2.39,14.61,0,4.15,0,8.24,1.71,12a46.21,46.21,0,0,0,5.12,8.54c2.5,3.38,5.38,6.48,8.08,9.71.16.2.3.69.21.78a1.46,1.46,0,0,1-.92.37c-4.81-.06-9.61-.13-14.41-.28a3.08,3.08,0,0,1-2-.79c-4.58-4.89-9-9.94-12.24-15.85-2.46-4.46-2.75-9.38-2.83-14.32-.07-3.9,0-7.81,1.21-11.55A40.9,40.9,0,0,1,22.35,187c2.75-3.81,5.19-7.84,7.73-11.8,4.29-6.72,8.78-13.33,12.71-20.25,1.46-2.57,1.72-5.87,2.25-8.88a52.21,52.21,0,0,0,.75-8C45.84,135.54,45.52,133,45.35,130.38ZM62.19,148c-3,11.49-10.91,20.25-16.89,30.19,1.1-.08,1.88-.2,2.66-.19,2.44,0,4.88.23,7.31.11a3.41,3.41,0,0,0,2.28-1.37c2.43-3.58,4.74-7.25,7.06-10.91s4.88-7.45,7-11.35c1-1.82,1.21-4.05,1.88-6.47Z"/><path class="a" d="M211.5,178.94c2.94,0,5.88,0,8.82,0a39.39,39.39,0,0,1,4.53-.1c1.25.14.92,1,.39,1.78-2,3.06-3.91,6.16-5.86,9.24a8.74,8.74,0,0,0-.78,1.27c-1.68,4.1-1,3.17-6.18,3.19-3.26,0-6.52,0-9.77.22-.55,0-1.21,1.21-1.49,2-2.44,6.55-2.39,13.25-1.24,20.05.43,2.52.75,5,2.1,7.24a2.58,2.58,0,0,0,2.6,1.23q3.68.12,7.37.21a11.17,11.17,0,0,0,3-.06c2-.53,3,.48,4.15,1.95,3.6,4.73,7.35,9.35,11,14-.22,0-.75.07-1.28.07H212.4c-3.89,0-7.79.1-11.68-.06a5.11,5.11,0,0,1-3.3-1.29c-4.66-5.09-9.19-10.29-12.44-16.46a22.83,22.83,0,0,1-2.34-10.31,75.73,75.73,0,0,1,.43-12,26.17,26.17,0,0,1,2.78-8.21,127,127,0,0,1,6.62-10.91c4.16-6.39,8.54-12.65,12.61-19.1,2.14-3.39,4.52-6.87,5.57-10.65A48,48,0,0,0,212.17,133a24,24,0,0,1,0-2.73c2.73-.09,5.47-.22,8.22-.27,3.51-.07,7-.11,10.52-.1,3.28,0,6.56.12,9.84.18.33,0,.66,0,1,0,1.58-.06,2.28.84,2.27,2.42,0,1.88.39,3.78.3,5.65a84.46,84.46,0,0,1-.89,9.68c-.27,1.68-2.15,1.08-3.23,1.13-3.46.15-6.93,0-10.39-.07-1.22,0-1.86.26-1.82,1.67.07,2.56-1.49,4.52-2.75,6.54q-5.95,9.57-12,19.06a20.51,20.51,0,0,1-1.87,2.2Z"/><path class="a" d="M181.74,241.19H168.93c-6.31,0-12.62.11-18.93-.08a5.46,5.46,0,0,1-3.61-1.9A189.28,189.28,0,0,1,135,224c-1.51-2.35-2.09-5.52-2.37-8.38-.58-6.06-1.09-12.23,1.09-18.1A67.57,67.57,0,0,1,138.3,188c1.68-3,3.64-5.83,5.54-8.69,2.36-3.55,4.86-7,7.15-10.58,3.07-4.83,6.15-9.67,8.9-14.68.94-1.71,1.07-3.94,1.3-6a82.4,82.4,0,0,0,.84-13.45c-.21-4.3-.07-4.3,4.32-4.3,3.66,0,7.31,0,11,0,1.12,0,1.67.42,1.68,1.46,0,3.35.19,6.7,0,10a47.36,47.36,0,0,1-1.39,10.42c-.86,2.89-2.74,5.51-4.32,8.16-2.16,3.62-4.44,7.19-6.73,10.73-3,4.59-6,9.14-9,13.7-2.82,4.25-5.69,8.49-6.95,13.52-1.81,7.2-1.5,14.45-.09,21.67a15.61,15.61,0,0,0,1.27,3.37,2.41,2.41,0,0,0,2.55,1.63q6.55-.2,13.1,0a3.92,3.92,0,0,1,2.48,1.4c2.43,2.88,4.71,5.89,7.06,8.84C178.43,237.09,179.93,238.93,181.74,241.19Z"/><path class="a" d="M119.4,241.15H112l-7.74,0c-1.89,0-2.92-1.4-3.92-2.62-3.18-3.88-6.28-7.85-9.34-11.83-2.73-3.56-3.79-7.79-4.12-12.13-.47-6.23-.76-12.56,1.59-18.5a62.2,62.2,0,0,1,5.16-9.52c2.68-4.34,5.6-8.53,8.36-12.82,3.84-6,7.81-11.9,11.34-18.06a24.27,24.27,0,0,0,2.56-8.36,116.49,116.49,0,0,0,.81-11.89,22.3,22.3,0,0,0-.35-3.53c-.13-1.12.29-1.61,1.47-1.6,4.67,0,9.33,0,14,.08.61,0,1.7.88,1.72,1.39a96.68,96.68,0,0,1-.68,16.84c-.62,4.73-3.15,8.25-5.24,12.09-2,3.68-4.41,7.15-6.74,10.65-2.71,4.08-5.62,8-8.26,12.15-2.86,4.47-5.92,8.89-7.32,14.09a45.12,45.12,0,0,0-1.39,8.6c-.33,4.72-.42,9.56,1.19,14a39.34,39.34,0,0,0,5,9.17C113,233.41,116.19,237.11,119.4,241.15Z"/></svg>