<svg xmlns="http://www.w3.org/2000/svg" viewBox="0 0 250 241.23"><defs><style>.a{fill:#231f20;}</style></defs><title>Artboard 22 copy 11</title><path class="a" d="M216.13,39.43H33.87a7.64,7.64,0,0,0-7.64,7.64V194.16a7.64,7.64,0,0,0,7.64,7.64H216.13a7.64,7.64,0,0,0,7.64-7.64V47.07A7.64,7.64,0,0,0,216.13,39.43Zm-157,31A10.31,10.31,0,1,1,48.85,80.72,10.31,10.31,0,0,1,59.17,70.41ZM207.94,181.15a7.64,7.64,0,0,1-7.64,7.64H49.7a7.64,7.64,0,0,1-7.64-7.64v-.26l41.56-64.35a2.92,2.92,0,0,1,4.9,0L114.4,156.6l36.17-56a3.55,3.55,0,0,1,6,0l51.42,79.6Z"/></svg>