<svg xmlns="http://www.w3.org/2000/svg" viewBox="0 0 250 241.23"><defs><style>.a{fill:#fff;}</style></defs><title>Artboard 22 copy 17</title><path class="a" d="M25.23,39.83H219.77a3,3,0,0,1,3,3V55.17a3,3,0,0,1-3,3H25.23a0,0,0,0,1,0,0V39.83A0,0,0,0,1,25.23,39.83Z"/><path class="a" d="M25.23,75.83H136.4a3,3,0,0,1,3,3V91.18a3,3,0,0,1-3,3H25.23a0,0,0,0,1,0,0V75.83A0,0,0,0,1,25.23,75.83Z"/><path class="a" d="M25.23,111.84H201.87a3,3,0,0,1,3,3v12.35a3,3,0,0,1-3,3H25.23a0,0,0,0,1,0,0V111.84A0,0,0,0,1,25.23,111.84Z"/><path class="a" d="M25.23,147.84H169.84a3,3,0,0,1,3,3v12.35a3,3,0,0,1-3,3H25.23a0,0,0,0,1,0,0V147.84A0,0,0,0,1,25.23,147.84Z"/><path class="a" d="M25.23,183.85H219.77a3,3,0,0,1,3,3V199.2a3,3,0,0,1-3,3H25.23a0,0,0,0,1,0,0V183.85A0,0,0,0,1,25.23,183.85Z"/></svg>